<svg width="1416" height="852" viewBox="0 0 1416 852" fill="none" xmlns="http://www.w3.org/2000/svg">
<path d="M1415.3 7.92227H1408.3V0.134766H1407.2V7.92227H1400.2V9.03477H1407.2V16.8223H1408.3V9.03477H1415.3V7.92227Z" fill="#542CEA" fill-opacity="0.28"/>
<path d="M1415.3 63.5473H1408.3V55.7598H1407.2V63.5473H1400.2V64.6598H1407.2V72.4473H1408.3V64.6598H1415.3V63.5473Z" fill="#542CEA" fill-opacity="0.28"/>
<path d="M1415.3 119.172H1408.3V111.385H1407.2V119.172H1400.2V120.285H1407.2V128.072H1408.3V120.285H1415.3V119.172Z" fill="#542CEA" fill-opacity="0.28"/>
<path d="M1415.3 174.797H1408.3V167.01H1407.2V174.797H1400.2V175.91H1407.2V183.697H1408.3V175.91H1415.3V174.797Z" fill="#542CEA" fill-opacity="0.28"/>
<path d="M1415.3 230.422H1408.3V222.635H1407.2V230.422H1400.2V231.535H1407.2V239.322H1408.3V231.535H1415.3V230.422Z" fill="#542CEA" fill-opacity="0.28"/>
<path d="M1415.3 286.047H1408.3V278.26H1407.2V286.047H1400.2V287.16H1407.2V294.947H1408.3V287.16H1415.3V286.047Z" fill="#542CEA" fill-opacity="0.28"/>
<path d="M1415.3 341.672H1408.3V333.885H1407.2V341.672H1400.2V342.785H1407.2V350.572H1408.3V342.785H1415.3V341.672Z" fill="#542CEA" fill-opacity="0.28"/>
<path d="M1415.3 397.297H1408.3V389.51H1407.2V397.297H1400.2V398.41H1407.2V406.197H1408.3V398.41H1415.3V397.297Z" fill="#542CEA" fill-opacity="0.28"/>
<path d="M1415.3 452.922H1408.3V445.135H1407.2V452.922H1400.2V454.035H1407.2V461.822H1408.3V454.035H1415.3V452.922Z" fill="#542CEA" fill-opacity="0.28"/>
<path d="M1415.3 508.547H1408.3V500.76H1407.2V508.547H1400.2V509.66H1407.2V517.447H1408.3V509.66H1415.3V508.547Z" fill="#542CEA" fill-opacity="0.28"/>
<path d="M1415.3 564.172H1408.3V556.385H1407.2V564.172H1400.2V565.285H1407.2V573.072H1408.3V565.285H1415.3V564.172Z" fill="#542CEA" fill-opacity="0.28"/>
<path d="M1415.3 619.797H1408.3V612.01H1407.2V619.797H1400.2V620.91H1407.2V628.697H1408.3V620.91H1415.3V619.797Z" fill="#542CEA" fill-opacity="0.28"/>
<path d="M1415.3 675.422H1408.3V667.635H1407.2V675.422H1400.2V676.535H1407.2V684.322H1408.3V676.535H1415.3V675.422Z" fill="#542CEA" fill-opacity="0.28"/>
<path d="M1415.3 731.047H1408.3V723.26H1407.2V731.047H1400.2V732.16H1407.2V739.947H1408.3V732.16H1415.3V731.047Z" fill="#542CEA" fill-opacity="0.28"/>
<path d="M1415.3 786.672H1408.3V778.885H1407.2V786.672H1400.2V787.785H1407.2V795.572H1408.3V787.785H1415.3V786.672Z" fill="#542CEA" fill-opacity="0.28"/>
<path d="M1415.3 842.297H1408.3V834.51H1407.2V842.297H1400.2V843.41H1407.2V851.197H1408.3V843.41H1415.3V842.297Z" fill="#542CEA" fill-opacity="0.28"/>
<path d="M1365.3 7.92227H1358.3V0.134766H1357.2V7.92227H1350.2V9.03477H1357.2V16.8223H1358.3V9.03477H1365.3V7.92227Z" fill="#542CEA" fill-opacity="0.28"/>
<path d="M1365.3 63.5473H1358.3V55.7598H1357.2V63.5473H1350.2V64.6598H1357.2V72.4473H1358.3V64.6598H1365.3V63.5473Z" fill="#542CEA" fill-opacity="0.28"/>
<path d="M1365.3 119.172H1358.3V111.385H1357.2V119.172H1350.2V120.285H1357.2V128.072H1358.3V120.285H1365.3V119.172Z" fill="#542CEA" fill-opacity="0.28"/>
<path d="M1365.3 174.797H1358.3V167.01H1357.2V174.797H1350.2V175.91H1357.2V183.697H1358.3V175.91H1365.3V174.797Z" fill="#542CEA" fill-opacity="0.28"/>
<path d="M1365.3 230.422H1358.3V222.635H1357.2V230.422H1350.2V231.535H1357.2V239.322H1358.3V231.535H1365.3V230.422Z" fill="#542CEA" fill-opacity="0.28"/>
<path d="M1365.3 286.047H1358.3V278.26H1357.2V286.047H1350.2V287.16H1357.2V294.947H1358.3V287.16H1365.3V286.047Z" fill="#542CEA" fill-opacity="0.28"/>
<path d="M1365.3 341.672H1358.3V333.885H1357.2V341.672H1350.2V342.785H1357.2V350.572H1358.3V342.785H1365.3V341.672Z" fill="#542CEA" fill-opacity="0.28"/>
<path d="M1365.3 397.297H1358.3V389.51H1357.2V397.297H1350.2V398.41H1357.2V406.197H1358.3V398.41H1365.3V397.297Z" fill="#542CEA" fill-opacity="0.28"/>
<path d="M1365.3 452.922H1358.3V445.135H1357.2V452.922H1350.2V454.035H1357.2V461.822H1358.3V454.035H1365.3V452.922Z" fill="#542CEA" fill-opacity="0.28"/>
<path d="M1365.3 508.547H1358.3V500.76H1357.2V508.547H1350.2V509.66H1357.2V517.447H1358.3V509.66H1365.3V508.547Z" fill="#542CEA" fill-opacity="0.28"/>
<path d="M1365.3 564.172H1358.3V556.385H1357.2V564.172H1350.2V565.285H1357.2V573.072H1358.3V565.285H1365.3V564.172Z" fill="#542CEA" fill-opacity="0.28"/>
<path d="M1365.3 619.797H1358.3V612.01H1357.2V619.797H1350.2V620.91H1357.2V628.697H1358.3V620.91H1365.3V619.797Z" fill="#542CEA" fill-opacity="0.28"/>
<path d="M1365.3 675.422H1358.3V667.635H1357.2V675.422H1350.2V676.535H1357.2V684.322H1358.3V676.535H1365.3V675.422Z" fill="#542CEA" fill-opacity="0.28"/>
<path d="M1365.3 731.047H1358.3V723.26H1357.2V731.047H1350.2V732.16H1357.2V739.947H1358.3V732.16H1365.3V731.047Z" fill="#542CEA" fill-opacity="0.28"/>
<path d="M1365.3 786.672H1358.3V778.885H1357.2V786.672H1350.2V787.785H1357.2V795.572H1358.3V787.785H1365.3V786.672Z" fill="#542CEA" fill-opacity="0.28"/>
<path d="M1365.3 842.297H1358.3V834.51H1357.2V842.297H1350.2V843.41H1357.2V851.197H1358.3V843.41H1365.3V842.297Z" fill="#542CEA" fill-opacity="0.28"/>
<path d="M1315.3 7.92227H1308.3V0.134766H1307.2V7.92227H1300.2V9.03477H1307.2V16.8223H1308.3V9.03477H1315.3V7.92227Z" fill="#542CEA" fill-opacity="0.28"/>
<path d="M1315.3 63.5473H1308.3V55.7598H1307.2V63.5473H1300.2V64.6598H1307.2V72.4473H1308.3V64.6598H1315.3V63.5473Z" fill="#542CEA" fill-opacity="0.28"/>
<path d="M1315.3 119.172H1308.3V111.385H1307.2V119.172H1300.2V120.285H1307.2V128.072H1308.3V120.285H1315.3V119.172Z" fill="#542CEA" fill-opacity="0.28"/>
<path d="M1315.3 174.797H1308.3V167.01H1307.2V174.797H1300.2V175.91H1307.2V183.697H1308.3V175.91H1315.3V174.797Z" fill="#542CEA" fill-opacity="0.28"/>
<path d="M1315.3 230.422H1308.3V222.635H1307.2V230.422H1300.2V231.535H1307.2V239.322H1308.3V231.535H1315.3V230.422Z" fill="#542CEA" fill-opacity="0.28"/>
<path d="M1315.3 286.047H1308.3V278.26H1307.2V286.047H1300.2V287.16H1307.2V294.947H1308.3V287.16H1315.3V286.047Z" fill="#542CEA" fill-opacity="0.28"/>
<path d="M1315.3 341.672H1308.3V333.885H1307.2V341.672H1300.2V342.785H1307.2V350.572H1308.3V342.785H1315.3V341.672Z" fill="#542CEA" fill-opacity="0.28"/>
<path d="M1315.3 397.297H1308.3V389.51H1307.2V397.297H1300.2V398.41H1307.2V406.197H1308.3V398.41H1315.3V397.297Z" fill="#542CEA" fill-opacity="0.28"/>
<path d="M1315.3 452.922H1308.3V445.135H1307.2V452.922H1300.2V454.035H1307.2V461.822H1308.3V454.035H1315.3V452.922Z" fill="#542CEA" fill-opacity="0.28"/>
<path d="M1315.3 508.547H1308.3V500.76H1307.2V508.547H1300.2V509.66H1307.2V517.447H1308.3V509.66H1315.3V508.547Z" fill="#542CEA" fill-opacity="0.28"/>
<path d="M1315.3 564.172H1308.3V556.385H1307.2V564.172H1300.2V565.285H1307.2V573.072H1308.3V565.285H1315.3V564.172Z" fill="#542CEA" fill-opacity="0.28"/>
<path d="M1315.3 619.797H1308.3V612.01H1307.2V619.797H1300.2V620.91H1307.2V628.697H1308.3V620.91H1315.3V619.797Z" fill="#542CEA" fill-opacity="0.28"/>
<path d="M1315.3 675.422H1308.3V667.635H1307.2V675.422H1300.2V676.535H1307.2V684.322H1308.3V676.535H1315.3V675.422Z" fill="#542CEA" fill-opacity="0.28"/>
<path d="M1315.3 731.047H1308.3V723.26H1307.2V731.047H1300.2V732.16H1307.2V739.947H1308.3V732.16H1315.3V731.047Z" fill="#542CEA" fill-opacity="0.28"/>
<path d="M1315.3 786.672H1308.3V778.885H1307.2V786.672H1300.2V787.785H1307.2V795.572H1308.3V787.785H1315.3V786.672Z" fill="#542CEA" fill-opacity="0.28"/>
<path d="M1315.3 842.297H1308.3V834.51H1307.2V842.297H1300.2V843.41H1307.2V851.197H1308.3V843.41H1315.3V842.297Z" fill="#542CEA" fill-opacity="0.28"/>
<path d="M1265.3 7.92227H1258.3V0.134766H1257.2V7.92227H1250.2V9.03477H1257.2V16.8223H1258.3V9.03477H1265.3V7.92227Z" fill="#542CEA" fill-opacity="0.28"/>
<path d="M1265.3 63.5473H1258.3V55.7598H1257.2V63.5473H1250.2V64.6598H1257.2V72.4473H1258.3V64.6598H1265.3V63.5473Z" fill="#542CEA" fill-opacity="0.28"/>
<path d="M1265.3 119.172H1258.3V111.385H1257.2V119.172H1250.2V120.285H1257.2V128.072H1258.3V120.285H1265.3V119.172Z" fill="#542CEA" fill-opacity="0.28"/>
<path d="M1265.3 174.797H1258.3V167.01H1257.2V174.797H1250.2V175.91H1257.2V183.697H1258.3V175.91H1265.3V174.797Z" fill="#542CEA" fill-opacity="0.28"/>
<path d="M1265.3 230.422H1258.3V222.635H1257.2V230.422H1250.2V231.535H1257.2V239.322H1258.3V231.535H1265.3V230.422Z" fill="#542CEA" fill-opacity="0.28"/>
<path d="M1265.3 286.047H1258.3V278.26H1257.2V286.047H1250.2V287.16H1257.2V294.947H1258.3V287.16H1265.3V286.047Z" fill="#542CEA" fill-opacity="0.28"/>
<path d="M1265.3 341.672H1258.3V333.885H1257.2V341.672H1250.2V342.785H1257.2V350.572H1258.3V342.785H1265.3V341.672Z" fill="#542CEA" fill-opacity="0.28"/>
<path d="M1265.3 397.297H1258.3V389.51H1257.2V397.297H1250.2V398.41H1257.2V406.197H1258.3V398.41H1265.3V397.297Z" fill="#542CEA" fill-opacity="0.28"/>
<path d="M1265.3 452.922H1258.3V445.135H1257.2V452.922H1250.2V454.035H1257.2V461.822H1258.3V454.035H1265.3V452.922Z" fill="#542CEA" fill-opacity="0.28"/>
<path d="M1265.3 508.547H1258.3V500.76H1257.2V508.547H1250.2V509.66H1257.2V517.447H1258.3V509.66H1265.3V508.547Z" fill="#542CEA" fill-opacity="0.28"/>
<path d="M1265.3 564.172H1258.3V556.385H1257.2V564.172H1250.2V565.285H1257.2V573.072H1258.3V565.285H1265.3V564.172Z" fill="#542CEA" fill-opacity="0.28"/>
<path d="M1265.3 619.797H1258.3V612.01H1257.2V619.797H1250.2V620.91H1257.2V628.697H1258.3V620.91H1265.3V619.797Z" fill="#542CEA" fill-opacity="0.28"/>
<path d="M1265.3 675.422H1258.3V667.635H1257.2V675.422H1250.2V676.535H1257.2V684.322H1258.3V676.535H1265.3V675.422Z" fill="#542CEA" fill-opacity="0.28"/>
<path d="M1265.3 731.047H1258.3V723.26H1257.2V731.047H1250.2V732.16H1257.2V739.947H1258.3V732.16H1265.3V731.047Z" fill="#542CEA" fill-opacity="0.28"/>
<path d="M1265.3 786.672H1258.3V778.885H1257.2V786.672H1250.2V787.785H1257.2V795.572H1258.3V787.785H1265.3V786.672Z" fill="#542CEA" fill-opacity="0.28"/>
<path d="M1265.3 842.297H1258.3V834.51H1257.2V842.297H1250.2V843.41H1257.2V851.197H1258.3V843.41H1265.3V842.297Z" fill="#542CEA" fill-opacity="0.28"/>
<path d="M1215.3 7.92227H1208.3V0.134766H1207.2V7.92227H1200.2V9.03477H1207.2V16.8223H1208.3V9.03477H1215.3V7.92227Z" fill="#542CEA" fill-opacity="0.28"/>
<path d="M1215.3 63.5473H1208.3V55.7598H1207.2V63.5473H1200.2V64.6598H1207.2V72.4473H1208.3V64.6598H1215.3V63.5473Z" fill="#542CEA" fill-opacity="0.28"/>
<path d="M1215.3 119.172H1208.3V111.385H1207.2V119.172H1200.2V120.285H1207.2V128.072H1208.3V120.285H1215.3V119.172Z" fill="#542CEA" fill-opacity="0.28"/>
<path d="M1215.3 174.797H1208.3V167.01H1207.2V174.797H1200.2V175.91H1207.2V183.697H1208.3V175.91H1215.3V174.797Z" fill="#542CEA" fill-opacity="0.28"/>
<path d="M1215.3 230.422H1208.3V222.635H1207.2V230.422H1200.2V231.535H1207.2V239.322H1208.3V231.535H1215.3V230.422Z" fill="#542CEA" fill-opacity="0.28"/>
<path d="M1215.3 286.047H1208.3V278.26H1207.2V286.047H1200.2V287.16H1207.2V294.947H1208.3V287.16H1215.3V286.047Z" fill="#542CEA" fill-opacity="0.28"/>
<path d="M1215.3 341.672H1208.3V333.885H1207.2V341.672H1200.2V342.785H1207.2V350.572H1208.3V342.785H1215.3V341.672Z" fill="#542CEA" fill-opacity="0.28"/>
<path d="M1215.3 397.297H1208.3V389.51H1207.2V397.297H1200.2V398.41H1207.2V406.197H1208.3V398.41H1215.3V397.297Z" fill="#542CEA" fill-opacity="0.28"/>
<path d="M1215.3 452.922H1208.3V445.135H1207.2V452.922H1200.2V454.035H1207.2V461.822H1208.3V454.035H1215.3V452.922Z" fill="#542CEA" fill-opacity="0.28"/>
<path d="M1215.3 508.547H1208.3V500.76H1207.2V508.547H1200.2V509.66H1207.2V517.447H1208.3V509.66H1215.3V508.547Z" fill="#542CEA" fill-opacity="0.28"/>
<path d="M1215.3 564.172H1208.3V556.385H1207.2V564.172H1200.2V565.285H1207.2V573.072H1208.3V565.285H1215.3V564.172Z" fill="#542CEA" fill-opacity="0.28"/>
<path d="M1215.3 619.797H1208.3V612.01H1207.2V619.797H1200.2V620.91H1207.2V628.697H1208.3V620.91H1215.3V619.797Z" fill="#542CEA" fill-opacity="0.28"/>
<path d="M1215.3 675.422H1208.3V667.635H1207.2V675.422H1200.2V676.535H1207.2V684.322H1208.3V676.535H1215.3V675.422Z" fill="#542CEA" fill-opacity="0.28"/>
<path d="M1215.3 731.047H1208.3V723.26H1207.2V731.047H1200.2V732.16H1207.2V739.947H1208.3V732.16H1215.3V731.047Z" fill="#542CEA" fill-opacity="0.28"/>
<path d="M1215.3 786.672H1208.3V778.885H1207.2V786.672H1200.2V787.785H1207.2V795.572H1208.3V787.785H1215.3V786.672Z" fill="#542CEA" fill-opacity="0.28"/>
<path d="M1215.3 842.297H1208.3V834.51H1207.2V842.297H1200.2V843.41H1207.2V851.197H1208.3V843.41H1215.3V842.297Z" fill="#542CEA" fill-opacity="0.28"/>
<path d="M1165.3 7.92227H1158.3V0.134766H1157.2V7.92227H1150.2V9.03477H1157.2V16.8223H1158.3V9.03477H1165.3V7.92227Z" fill="#542CEA" fill-opacity="0.28"/>
<path d="M1165.3 63.5473H1158.3V55.7598H1157.2V63.5473H1150.2V64.6598H1157.2V72.4473H1158.3V64.6598H1165.3V63.5473Z" fill="#542CEA" fill-opacity="0.28"/>
<path d="M1165.3 119.172H1158.3V111.385H1157.2V119.172H1150.2V120.285H1157.2V128.072H1158.3V120.285H1165.3V119.172Z" fill="#542CEA" fill-opacity="0.28"/>
<path d="M1165.3 174.797H1158.3V167.01H1157.2V174.797H1150.2V175.91H1157.2V183.697H1158.3V175.91H1165.3V174.797Z" fill="#542CEA" fill-opacity="0.28"/>
<path d="M1165.3 230.422H1158.3V222.635H1157.2V230.422H1150.2V231.535H1157.2V239.322H1158.3V231.535H1165.3V230.422Z" fill="#542CEA" fill-opacity="0.28"/>
<path d="M1165.3 286.047H1158.3V278.26H1157.2V286.047H1150.2V287.16H1157.2V294.947H1158.3V287.16H1165.3V286.047Z" fill="#542CEA" fill-opacity="0.28"/>
<path d="M1165.3 341.672H1158.3V333.885H1157.2V341.672H1150.2V342.785H1157.2V350.572H1158.3V342.785H1165.3V341.672Z" fill="#542CEA" fill-opacity="0.28"/>
<path d="M1165.3 397.297H1158.3V389.51H1157.2V397.297H1150.2V398.41H1157.2V406.197H1158.3V398.41H1165.3V397.297Z" fill="#542CEA" fill-opacity="0.28"/>
<path d="M1165.3 452.922H1158.3V445.135H1157.2V452.922H1150.2V454.035H1157.2V461.822H1158.3V454.035H1165.3V452.922Z" fill="#542CEA" fill-opacity="0.28"/>
<path d="M1165.3 508.547H1158.3V500.76H1157.2V508.547H1150.2V509.66H1157.2V517.447H1158.3V509.66H1165.3V508.547Z" fill="#542CEA" fill-opacity="0.28"/>
<path d="M1165.3 564.172H1158.3V556.385H1157.2V564.172H1150.2V565.285H1157.2V573.072H1158.3V565.285H1165.3V564.172Z" fill="#542CEA" fill-opacity="0.28"/>
<path d="M1165.3 619.797H1158.3V612.01H1157.2V619.797H1150.2V620.91H1157.2V628.697H1158.3V620.91H1165.3V619.797Z" fill="#542CEA" fill-opacity="0.28"/>
<path d="M1165.3 675.422H1158.3V667.635H1157.2V675.422H1150.2V676.535H1157.2V684.322H1158.3V676.535H1165.3V675.422Z" fill="#542CEA" fill-opacity="0.28"/>
<path d="M1165.3 731.047H1158.3V723.26H1157.2V731.047H1150.2V732.16H1157.2V739.947H1158.3V732.16H1165.3V731.047Z" fill="#542CEA" fill-opacity="0.28"/>
<path d="M1165.3 786.672H1158.3V778.885H1157.2V786.672H1150.2V787.785H1157.2V795.572H1158.3V787.785H1165.3V786.672Z" fill="#542CEA" fill-opacity="0.28"/>
<path d="M1165.3 842.297H1158.3V834.51H1157.2V842.297H1150.2V843.41H1157.2V851.197H1158.3V843.41H1165.3V842.297Z" fill="#542CEA" fill-opacity="0.28"/>
<path d="M1115.3 7.92227H1108.3V0.134766H1107.2V7.92227H1100.2V9.03477H1107.2V16.8223H1108.3V9.03477H1115.3V7.92227Z" fill="#542CEA" fill-opacity="0.28"/>
<path d="M1115.3 63.5473H1108.3V55.7598H1107.2V63.5473H1100.2V64.6598H1107.2V72.4473H1108.3V64.6598H1115.3V63.5473Z" fill="#542CEA" fill-opacity="0.28"/>
<path d="M1115.3 119.172H1108.3V111.385H1107.2V119.172H1100.2V120.285H1107.2V128.072H1108.3V120.285H1115.3V119.172Z" fill="#542CEA" fill-opacity="0.28"/>
<path d="M1115.3 174.797H1108.3V167.01H1107.2V174.797H1100.2V175.91H1107.2V183.697H1108.3V175.91H1115.3V174.797Z" fill="#542CEA" fill-opacity="0.28"/>
<path d="M1115.3 230.422H1108.3V222.635H1107.2V230.422H1100.2V231.535H1107.2V239.322H1108.3V231.535H1115.3V230.422Z" fill="#542CEA" fill-opacity="0.28"/>
<path d="M1115.3 286.047H1108.3V278.26H1107.2V286.047H1100.2V287.16H1107.2V294.947H1108.3V287.16H1115.3V286.047Z" fill="#542CEA" fill-opacity="0.28"/>
<path d="M1115.3 341.672H1108.3V333.885H1107.2V341.672H1100.2V342.785H1107.2V350.572H1108.3V342.785H1115.3V341.672Z" fill="#542CEA" fill-opacity="0.28"/>
<path d="M1115.3 397.297H1108.3V389.51H1107.2V397.297H1100.2V398.41H1107.2V406.197H1108.3V398.41H1115.3V397.297Z" fill="#542CEA" fill-opacity="0.28"/>
<path d="M1115.3 452.922H1108.3V445.135H1107.2V452.922H1100.2V454.035H1107.2V461.822H1108.3V454.035H1115.3V452.922Z" fill="#542CEA" fill-opacity="0.28"/>
<path d="M1115.3 508.547H1108.3V500.76H1107.2V508.547H1100.2V509.66H1107.2V517.447H1108.3V509.66H1115.3V508.547Z" fill="#542CEA" fill-opacity="0.28"/>
<path d="M1115.3 564.172H1108.3V556.385H1107.2V564.172H1100.2V565.285H1107.2V573.072H1108.3V565.285H1115.3V564.172Z" fill="#542CEA" fill-opacity="0.28"/>
<path d="M1115.3 619.797H1108.3V612.01H1107.2V619.797H1100.2V620.91H1107.2V628.697H1108.3V620.91H1115.3V619.797Z" fill="#542CEA" fill-opacity="0.28"/>
<path d="M1115.3 675.422H1108.3V667.635H1107.2V675.422H1100.2V676.535H1107.2V684.322H1108.3V676.535H1115.3V675.422Z" fill="#542CEA" fill-opacity="0.28"/>
<path d="M1115.3 731.047H1108.3V723.26H1107.2V731.047H1100.2V732.16H1107.2V739.947H1108.3V732.16H1115.3V731.047Z" fill="#542CEA" fill-opacity="0.28"/>
<path d="M1115.3 786.672H1108.3V778.885H1107.2V786.672H1100.2V787.785H1107.2V795.572H1108.3V787.785H1115.3V786.672Z" fill="#542CEA" fill-opacity="0.28"/>
<path d="M1115.3 842.297H1108.3V834.51H1107.2V842.297H1100.2V843.41H1107.2V851.197H1108.3V843.41H1115.3V842.297Z" fill="#542CEA" fill-opacity="0.28"/>
<path d="M1065.3 7.92227H1058.3V0.134766H1057.2V7.92227H1050.2V9.03477H1057.2V16.8223H1058.3V9.03477H1065.3V7.92227Z" fill="#542CEA" fill-opacity="0.28"/>
<path d="M1065.3 63.5473H1058.3V55.7598H1057.2V63.5473H1050.2V64.6598H1057.2V72.4473H1058.3V64.6598H1065.3V63.5473Z" fill="#542CEA" fill-opacity="0.28"/>
<path d="M1065.3 119.172H1058.3V111.385H1057.2V119.172H1050.2V120.285H1057.2V128.072H1058.3V120.285H1065.3V119.172Z" fill="#542CEA" fill-opacity="0.28"/>
<path d="M1065.3 174.797H1058.3V167.01H1057.2V174.797H1050.2V175.91H1057.2V183.697H1058.3V175.91H1065.3V174.797Z" fill="#542CEA" fill-opacity="0.28"/>
<path d="M1065.3 230.422H1058.3V222.635H1057.2V230.422H1050.2V231.535H1057.2V239.322H1058.3V231.535H1065.3V230.422Z" fill="#542CEA" fill-opacity="0.28"/>
<path d="M1065.3 286.047H1058.3V278.26H1057.2V286.047H1050.2V287.16H1057.2V294.947H1058.3V287.16H1065.3V286.047Z" fill="#542CEA" fill-opacity="0.28"/>
<path d="M1065.3 341.672H1058.3V333.885H1057.2V341.672H1050.2V342.785H1057.2V350.572H1058.3V342.785H1065.3V341.672Z" fill="#542CEA" fill-opacity="0.28"/>
<path d="M1065.3 397.297H1058.3V389.51H1057.2V397.297H1050.2V398.41H1057.2V406.197H1058.3V398.41H1065.3V397.297Z" fill="#542CEA" fill-opacity="0.28"/>
<path d="M1065.3 452.922H1058.3V445.135H1057.2V452.922H1050.2V454.035H1057.2V461.822H1058.3V454.035H1065.3V452.922Z" fill="#542CEA" fill-opacity="0.28"/>
<path d="M1065.3 508.547H1058.3V500.76H1057.2V508.547H1050.2V509.66H1057.2V517.447H1058.3V509.66H1065.3V508.547Z" fill="#542CEA" fill-opacity="0.28"/>
<path d="M1065.3 564.172H1058.3V556.385H1057.2V564.172H1050.2V565.285H1057.2V573.072H1058.3V565.285H1065.3V564.172Z" fill="#542CEA" fill-opacity="0.28"/>
<path d="M1065.3 619.797H1058.3V612.01H1057.2V619.797H1050.2V620.91H1057.2V628.697H1058.3V620.91H1065.3V619.797Z" fill="#542CEA" fill-opacity="0.28"/>
<path d="M1065.3 675.422H1058.3V667.635H1057.2V675.422H1050.2V676.535H1057.2V684.322H1058.3V676.535H1065.3V675.422Z" fill="#542CEA" fill-opacity="0.28"/>
<path d="M1065.3 731.047H1058.3V723.26H1057.2V731.047H1050.2V732.16H1057.2V739.947H1058.3V732.16H1065.3V731.047Z" fill="#542CEA" fill-opacity="0.28"/>
<path d="M1065.3 786.672H1058.3V778.885H1057.2V786.672H1050.2V787.785H1057.2V795.572H1058.3V787.785H1065.3V786.672Z" fill="#542CEA" fill-opacity="0.28"/>
<path d="M1065.3 842.297H1058.3V834.51H1057.2V842.297H1050.2V843.41H1057.2V851.197H1058.3V843.41H1065.3V842.297Z" fill="#542CEA" fill-opacity="0.28"/>
<path d="M1015.3 7.92227H1008.3V0.134766H1007.2V7.92227H1000.2V9.03477H1007.2V16.8223H1008.3V9.03477H1015.3V7.92227Z" fill="#542CEA" fill-opacity="0.28"/>
<path d="M1015.3 63.5473H1008.3V55.7598H1007.2V63.5473H1000.2V64.6598H1007.2V72.4473H1008.3V64.6598H1015.3V63.5473Z" fill="#542CEA" fill-opacity="0.28"/>
<path d="M1015.3 119.172H1008.3V111.385H1007.2V119.172H1000.2V120.285H1007.2V128.072H1008.3V120.285H1015.3V119.172Z" fill="#542CEA" fill-opacity="0.28"/>
<path d="M1015.3 174.797H1008.3V167.01H1007.2V174.797H1000.2V175.91H1007.2V183.697H1008.3V175.91H1015.3V174.797Z" fill="#542CEA" fill-opacity="0.28"/>
<path d="M1015.3 230.422H1008.3V222.635H1007.2V230.422H1000.2V231.535H1007.2V239.322H1008.3V231.535H1015.3V230.422Z" fill="#542CEA" fill-opacity="0.28"/>
<path d="M1015.3 286.047H1008.3V278.26H1007.2V286.047H1000.2V287.16H1007.2V294.947H1008.3V287.16H1015.3V286.047Z" fill="#542CEA" fill-opacity="0.28"/>
<path d="M1015.3 341.672H1008.3V333.885H1007.2V341.672H1000.2V342.785H1007.2V350.572H1008.3V342.785H1015.3V341.672Z" fill="#542CEA" fill-opacity="0.28"/>
<path d="M1015.3 397.297H1008.3V389.51H1007.2V397.297H1000.2V398.41H1007.2V406.197H1008.3V398.41H1015.3V397.297Z" fill="#542CEA" fill-opacity="0.28"/>
<path d="M1015.3 452.922H1008.3V445.135H1007.2V452.922H1000.2V454.035H1007.2V461.822H1008.3V454.035H1015.3V452.922Z" fill="#542CEA" fill-opacity="0.28"/>
<path d="M1015.3 508.547H1008.3V500.76H1007.2V508.547H1000.2V509.66H1007.2V517.447H1008.3V509.66H1015.3V508.547Z" fill="#542CEA" fill-opacity="0.28"/>
<path d="M1015.3 564.172H1008.3V556.385H1007.2V564.172H1000.2V565.285H1007.2V573.072H1008.3V565.285H1015.3V564.172Z" fill="#542CEA" fill-opacity="0.28"/>
<path d="M1015.3 619.797H1008.3V612.01H1007.2V619.797H1000.2V620.91H1007.2V628.697H1008.3V620.91H1015.3V619.797Z" fill="#542CEA" fill-opacity="0.28"/>
<path d="M1015.3 675.422H1008.3V667.635H1007.2V675.422H1000.2V676.535H1007.2V684.322H1008.3V676.535H1015.3V675.422Z" fill="#542CEA" fill-opacity="0.28"/>
<path d="M1015.3 731.047H1008.3V723.26H1007.2V731.047H1000.2V732.16H1007.2V739.947H1008.3V732.16H1015.3V731.047Z" fill="#542CEA" fill-opacity="0.28"/>
<path d="M1015.3 786.672H1008.3V778.885H1007.2V786.672H1000.2V787.785H1007.2V795.572H1008.3V787.785H1015.3V786.672Z" fill="#542CEA" fill-opacity="0.28"/>
<path d="M1015.3 842.297H1008.3V834.51H1007.2V842.297H1000.2V843.41H1007.2V851.197H1008.3V843.41H1015.3V842.297Z" fill="#542CEA" fill-opacity="0.28"/>
<path d="M965.3 7.92227H958.3V0.134766H957.2V7.92227H950.2V9.03477H957.2V16.8223H958.3V9.03477H965.3V7.92227Z" fill="#542CEA" fill-opacity="0.28"/>
<path d="M965.3 63.5473H958.3V55.7598H957.2V63.5473H950.2V64.6598H957.2V72.4473H958.3V64.6598H965.3V63.5473Z" fill="#542CEA" fill-opacity="0.28"/>
<path d="M965.3 119.172H958.3V111.385H957.2V119.172H950.2V120.285H957.2V128.072H958.3V120.285H965.3V119.172Z" fill="#542CEA" fill-opacity="0.28"/>
<path d="M965.3 174.797H958.3V167.01H957.2V174.797H950.2V175.91H957.2V183.697H958.3V175.91H965.3V174.797Z" fill="#542CEA" fill-opacity="0.28"/>
<path d="M965.3 230.422H958.3V222.635H957.2V230.422H950.2V231.535H957.2V239.322H958.3V231.535H965.3V230.422Z" fill="#542CEA" fill-opacity="0.28"/>
<path d="M965.3 286.047H958.3V278.26H957.2V286.047H950.2V287.16H957.2V294.947H958.3V287.16H965.3V286.047Z" fill="#542CEA" fill-opacity="0.28"/>
<path d="M965.3 341.672H958.3V333.885H957.2V341.672H950.2V342.785H957.2V350.572H958.3V342.785H965.3V341.672Z" fill="#542CEA" fill-opacity="0.28"/>
<path d="M965.3 397.297H958.3V389.51H957.2V397.297H950.2V398.41H957.2V406.197H958.3V398.41H965.3V397.297Z" fill="#542CEA" fill-opacity="0.28"/>
<path d="M965.3 452.922H958.3V445.135H957.2V452.922H950.2V454.035H957.2V461.822H958.3V454.035H965.3V452.922Z" fill="#542CEA" fill-opacity="0.28"/>
<path d="M965.3 508.547H958.3V500.76H957.2V508.547H950.2V509.66H957.2V517.447H958.3V509.66H965.3V508.547Z" fill="#542CEA" fill-opacity="0.28"/>
<path d="M965.3 564.172H958.3V556.385H957.2V564.172H950.2V565.285H957.2V573.072H958.3V565.285H965.3V564.172Z" fill="#542CEA" fill-opacity="0.28"/>
<path d="M965.3 619.797H958.3V612.01H957.2V619.797H950.2V620.91H957.2V628.697H958.3V620.91H965.3V619.797Z" fill="#542CEA" fill-opacity="0.28"/>
<path d="M965.3 675.422H958.3V667.635H957.2V675.422H950.2V676.535H957.2V684.322H958.3V676.535H965.3V675.422Z" fill="#542CEA" fill-opacity="0.28"/>
<path d="M965.3 731.047H958.3V723.26H957.2V731.047H950.2V732.16H957.2V739.947H958.3V732.16H965.3V731.047Z" fill="#542CEA" fill-opacity="0.28"/>
<path d="M965.3 786.672H958.3V778.885H957.2V786.672H950.2V787.785H957.2V795.572H958.3V787.785H965.3V786.672Z" fill="#542CEA" fill-opacity="0.28"/>
<path d="M965.3 842.297H958.3V834.51H957.2V842.297H950.2V843.41H957.2V851.197H958.3V843.41H965.3V842.297Z" fill="#542CEA" fill-opacity="0.28"/>
<path d="M915.3 7.92227H908.3V0.134766H907.2V7.92227H900.2V9.03477H907.2V16.8223H908.3V9.03477H915.3V7.92227Z" fill="#542CEA" fill-opacity="0.28"/>
<path d="M915.3 63.5473H908.3V55.7598H907.2V63.5473H900.2V64.6598H907.2V72.4473H908.3V64.6598H915.3V63.5473Z" fill="#542CEA" fill-opacity="0.28"/>
<path d="M915.3 119.172H908.3V111.385H907.2V119.172H900.2V120.285H907.2V128.072H908.3V120.285H915.3V119.172Z" fill="#542CEA" fill-opacity="0.28"/>
<path d="M915.3 174.797H908.3V167.01H907.2V174.797H900.2V175.91H907.2V183.697H908.3V175.91H915.3V174.797Z" fill="#542CEA" fill-opacity="0.28"/>
<path d="M915.3 230.422H908.3V222.635H907.2V230.422H900.2V231.535H907.2V239.322H908.3V231.535H915.3V230.422Z" fill="#542CEA" fill-opacity="0.28"/>
<path d="M915.3 286.047H908.3V278.26H907.2V286.047H900.2V287.16H907.2V294.947H908.3V287.16H915.3V286.047Z" fill="#542CEA" fill-opacity="0.28"/>
<path d="M915.3 341.672H908.3V333.885H907.2V341.672H900.2V342.785H907.2V350.572H908.3V342.785H915.3V341.672Z" fill="#542CEA" fill-opacity="0.28"/>
<path d="M915.3 397.297H908.3V389.51H907.2V397.297H900.2V398.41H907.2V406.197H908.3V398.41H915.3V397.297Z" fill="#542CEA" fill-opacity="0.28"/>
<path d="M915.3 452.922H908.3V445.135H907.2V452.922H900.2V454.035H907.2V461.822H908.3V454.035H915.3V452.922Z" fill="#542CEA" fill-opacity="0.28"/>
<path d="M915.3 508.547H908.3V500.76H907.2V508.547H900.2V509.66H907.2V517.447H908.3V509.66H915.3V508.547Z" fill="#542CEA" fill-opacity="0.28"/>
<path d="M915.3 564.172H908.3V556.385H907.2V564.172H900.2V565.285H907.2V573.072H908.3V565.285H915.3V564.172Z" fill="#542CEA" fill-opacity="0.28"/>
<path d="M915.3 619.797H908.3V612.01H907.2V619.797H900.2V620.91H907.2V628.697H908.3V620.91H915.3V619.797Z" fill="#542CEA" fill-opacity="0.28"/>
<path d="M915.3 675.422H908.3V667.635H907.2V675.422H900.2V676.535H907.2V684.322H908.3V676.535H915.3V675.422Z" fill="#542CEA" fill-opacity="0.28"/>
<path d="M915.3 731.047H908.3V723.26H907.2V731.047H900.2V732.16H907.2V739.947H908.3V732.16H915.3V731.047Z" fill="#542CEA" fill-opacity="0.28"/>
<path d="M915.3 786.672H908.3V778.885H907.2V786.672H900.2V787.785H907.2V795.572H908.3V787.785H915.3V786.672Z" fill="#542CEA" fill-opacity="0.28"/>
<path d="M915.3 842.297H908.3V834.51H907.2V842.297H900.2V843.41H907.2V851.197H908.3V843.41H915.3V842.297Z" fill="#542CEA" fill-opacity="0.28"/>
<path d="M865.3 7.92227H858.3V0.134766H857.2V7.92227H850.2V9.03477H857.2V16.8223H858.3V9.03477H865.3V7.92227Z" fill="#542CEA" fill-opacity="0.28"/>
<path d="M865.3 63.5473H858.3V55.7598H857.2V63.5473H850.2V64.6598H857.2V72.4473H858.3V64.6598H865.3V63.5473Z" fill="#542CEA" fill-opacity="0.28"/>
<path d="M865.3 119.172H858.3V111.385H857.2V119.172H850.2V120.285H857.2V128.072H858.3V120.285H865.3V119.172Z" fill="#542CEA" fill-opacity="0.28"/>
<path d="M865.3 174.797H858.3V167.01H857.2V174.797H850.2V175.91H857.2V183.697H858.3V175.91H865.3V174.797Z" fill="#542CEA" fill-opacity="0.28"/>
<path d="M865.3 230.422H858.3V222.635H857.2V230.422H850.2V231.535H857.2V239.322H858.3V231.535H865.3V230.422Z" fill="#542CEA" fill-opacity="0.28"/>
<path d="M865.3 286.047H858.3V278.26H857.2V286.047H850.2V287.16H857.2V294.947H858.3V287.16H865.3V286.047Z" fill="#542CEA" fill-opacity="0.28"/>
<path d="M865.3 341.672H858.3V333.885H857.2V341.672H850.2V342.785H857.2V350.572H858.3V342.785H865.3V341.672Z" fill="#542CEA" fill-opacity="0.28"/>
<path d="M865.3 397.297H858.3V389.51H857.2V397.297H850.2V398.41H857.2V406.197H858.3V398.41H865.3V397.297Z" fill="#542CEA" fill-opacity="0.28"/>
<path d="M865.3 452.922H858.3V445.135H857.2V452.922H850.2V454.035H857.2V461.822H858.3V454.035H865.3V452.922Z" fill="#542CEA" fill-opacity="0.28"/>
<path d="M865.3 508.547H858.3V500.76H857.2V508.547H850.2V509.66H857.2V517.447H858.3V509.66H865.3V508.547Z" fill="#542CEA" fill-opacity="0.28"/>
<path d="M865.3 564.172H858.3V556.385H857.2V564.172H850.2V565.285H857.2V573.072H858.3V565.285H865.3V564.172Z" fill="#542CEA" fill-opacity="0.28"/>
<path d="M865.3 619.797H858.3V612.01H857.2V619.797H850.2V620.91H857.2V628.697H858.3V620.91H865.3V619.797Z" fill="#542CEA" fill-opacity="0.28"/>
<path d="M865.3 675.422H858.3V667.635H857.2V675.422H850.2V676.535H857.2V684.322H858.3V676.535H865.3V675.422Z" fill="#542CEA" fill-opacity="0.28"/>
<path d="M865.3 731.047H858.3V723.26H857.2V731.047H850.2V732.16H857.2V739.947H858.3V732.16H865.3V731.047Z" fill="#542CEA" fill-opacity="0.28"/>
<path d="M865.3 786.672H858.3V778.885H857.2V786.672H850.2V787.785H857.2V795.572H858.3V787.785H865.3V786.672Z" fill="#542CEA" fill-opacity="0.28"/>
<path d="M865.3 842.297H858.3V834.51H857.2V842.297H850.2V843.41H857.2V851.197H858.3V843.41H865.3V842.297Z" fill="#542CEA" fill-opacity="0.28"/>
<path d="M815.3 7.92227H808.3V0.134766H807.2V7.92227H800.2V9.03477H807.2V16.8223H808.3V9.03477H815.3V7.92227Z" fill="#542CEA" fill-opacity="0.28"/>
<path d="M815.3 63.5473H808.3V55.7598H807.2V63.5473H800.2V64.6598H807.2V72.4473H808.3V64.6598H815.3V63.5473Z" fill="#542CEA" fill-opacity="0.28"/>
<path d="M815.3 119.172H808.3V111.385H807.2V119.172H800.2V120.285H807.2V128.072H808.3V120.285H815.3V119.172Z" fill="#542CEA" fill-opacity="0.28"/>
<path d="M815.3 174.797H808.3V167.01H807.2V174.797H800.2V175.91H807.2V183.697H808.3V175.91H815.3V174.797Z" fill="#542CEA" fill-opacity="0.28"/>
<path d="M815.3 230.422H808.3V222.635H807.2V230.422H800.2V231.535H807.2V239.322H808.3V231.535H815.3V230.422Z" fill="#542CEA" fill-opacity="0.28"/>
<path d="M815.3 286.047H808.3V278.26H807.2V286.047H800.2V287.16H807.2V294.947H808.3V287.16H815.3V286.047Z" fill="#542CEA" fill-opacity="0.28"/>
<path d="M815.3 341.672H808.3V333.885H807.2V341.672H800.2V342.785H807.2V350.572H808.3V342.785H815.3V341.672Z" fill="#542CEA" fill-opacity="0.28"/>
<path d="M815.3 397.297H808.3V389.51H807.2V397.297H800.2V398.41H807.2V406.197H808.3V398.41H815.3V397.297Z" fill="#542CEA" fill-opacity="0.28"/>
<path d="M815.3 452.922H808.3V445.135H807.2V452.922H800.2V454.035H807.2V461.822H808.3V454.035H815.3V452.922Z" fill="#542CEA" fill-opacity="0.28"/>
<path d="M815.3 508.547H808.3V500.76H807.2V508.547H800.2V509.66H807.2V517.447H808.3V509.66H815.3V508.547Z" fill="#542CEA" fill-opacity="0.28"/>
<path d="M815.3 564.172H808.3V556.385H807.2V564.172H800.2V565.285H807.2V573.072H808.3V565.285H815.3V564.172Z" fill="#542CEA" fill-opacity="0.28"/>
<path d="M815.3 619.797H808.3V612.01H807.2V619.797H800.2V620.91H807.2V628.697H808.3V620.91H815.3V619.797Z" fill="#542CEA" fill-opacity="0.28"/>
<path d="M815.3 675.422H808.3V667.635H807.2V675.422H800.2V676.535H807.2V684.322H808.3V676.535H815.3V675.422Z" fill="#542CEA" fill-opacity="0.28"/>
<path d="M815.3 731.047H808.3V723.26H807.2V731.047H800.2V732.16H807.2V739.947H808.3V732.16H815.3V731.047Z" fill="#542CEA" fill-opacity="0.28"/>
<path d="M815.3 786.672H808.3V778.885H807.2V786.672H800.2V787.785H807.2V795.572H808.3V787.785H815.3V786.672Z" fill="#542CEA" fill-opacity="0.28"/>
<path d="M815.3 842.297H808.3V834.51H807.2V842.297H800.2V843.41H807.2V851.197H808.3V843.41H815.3V842.297Z" fill="#542CEA" fill-opacity="0.28"/>
<path d="M765.3 7.92227H758.3V0.134766H757.2V7.92227H750.2V9.03477H757.2V16.8223H758.3V9.03477H765.3V7.92227Z" fill="#542CEA" fill-opacity="0.28"/>
<path d="M765.3 63.5473H758.3V55.7598H757.2V63.5473H750.2V64.6598H757.2V72.4473H758.3V64.6598H765.3V63.5473Z" fill="#542CEA" fill-opacity="0.28"/>
<path d="M765.3 119.172H758.3V111.385H757.2V119.172H750.2V120.285H757.2V128.072H758.3V120.285H765.3V119.172Z" fill="#542CEA" fill-opacity="0.28"/>
<path d="M765.3 174.797H758.3V167.01H757.2V174.797H750.2V175.91H757.2V183.697H758.3V175.91H765.3V174.797Z" fill="#542CEA" fill-opacity="0.28"/>
<path d="M765.3 230.422H758.3V222.635H757.2V230.422H750.2V231.535H757.2V239.322H758.3V231.535H765.3V230.422Z" fill="#542CEA" fill-opacity="0.28"/>
<path d="M765.3 286.047H758.3V278.26H757.2V286.047H750.2V287.16H757.2V294.947H758.3V287.16H765.3V286.047Z" fill="#542CEA" fill-opacity="0.28"/>
<path d="M765.3 341.672H758.3V333.885H757.2V341.672H750.2V342.785H757.2V350.572H758.3V342.785H765.3V341.672Z" fill="#542CEA" fill-opacity="0.28"/>
<path d="M765.3 397.297H758.3V389.51H757.2V397.297H750.2V398.41H757.2V406.197H758.3V398.41H765.3V397.297Z" fill="#542CEA" fill-opacity="0.28"/>
<path d="M765.3 452.922H758.3V445.135H757.2V452.922H750.2V454.035H757.2V461.822H758.3V454.035H765.3V452.922Z" fill="#542CEA" fill-opacity="0.28"/>
<path d="M765.3 508.547H758.3V500.76H757.2V508.547H750.2V509.66H757.2V517.447H758.3V509.66H765.3V508.547Z" fill="#542CEA" fill-opacity="0.28"/>
<path d="M765.3 564.172H758.3V556.385H757.2V564.172H750.2V565.285H757.2V573.072H758.3V565.285H765.3V564.172Z" fill="#542CEA" fill-opacity="0.28"/>
<path d="M765.3 619.797H758.3V612.01H757.2V619.797H750.2V620.91H757.2V628.697H758.3V620.91H765.3V619.797Z" fill="#542CEA" fill-opacity="0.28"/>
<path d="M765.3 675.422H758.3V667.635H757.2V675.422H750.2V676.535H757.2V684.322H758.3V676.535H765.3V675.422Z" fill="#542CEA" fill-opacity="0.28"/>
<path d="M765.3 731.047H758.3V723.26H757.2V731.047H750.2V732.16H757.2V739.947H758.3V732.16H765.3V731.047Z" fill="#542CEA" fill-opacity="0.28"/>
<path d="M765.3 786.672H758.3V778.885H757.2V786.672H750.2V787.785H757.2V795.572H758.3V787.785H765.3V786.672Z" fill="#542CEA" fill-opacity="0.28"/>
<path d="M765.3 842.297H758.3V834.51H757.2V842.297H750.2V843.41H757.2V851.197H758.3V843.41H765.3V842.297Z" fill="#542CEA" fill-opacity="0.28"/>
<path d="M715.3 7.92227H708.3V0.134766H707.2V7.92227H700.2V9.03477H707.2V16.8223H708.3V9.03477H715.3V7.92227Z" fill="#542CEA" fill-opacity="0.28"/>
<path d="M715.3 63.5473H708.3V55.7598H707.2V63.5473H700.2V64.6598H707.2V72.4473H708.3V64.6598H715.3V63.5473Z" fill="#542CEA" fill-opacity="0.28"/>
<path d="M715.3 119.172H708.3V111.385H707.2V119.172H700.2V120.285H707.2V128.072H708.3V120.285H715.3V119.172Z" fill="#542CEA" fill-opacity="0.28"/>
<path d="M715.3 174.797H708.3V167.01H707.2V174.797H700.2V175.91H707.2V183.697H708.3V175.91H715.3V174.797Z" fill="#542CEA" fill-opacity="0.28"/>
<path d="M715.3 230.422H708.3V222.635H707.2V230.422H700.2V231.535H707.2V239.322H708.3V231.535H715.3V230.422Z" fill="#542CEA" fill-opacity="0.28"/>
<path d="M715.3 286.047H708.3V278.26H707.2V286.047H700.2V287.16H707.2V294.947H708.3V287.16H715.3V286.047Z" fill="#542CEA" fill-opacity="0.28"/>
<path d="M715.3 341.672H708.3V333.885H707.2V341.672H700.2V342.785H707.2V350.572H708.3V342.785H715.3V341.672Z" fill="#542CEA" fill-opacity="0.28"/>
<path d="M715.3 397.297H708.3V389.51H707.2V397.297H700.2V398.41H707.2V406.197H708.3V398.41H715.3V397.297Z" fill="#542CEA" fill-opacity="0.28"/>
<path d="M715.3 452.922H708.3V445.135H707.2V452.922H700.2V454.035H707.2V461.822H708.3V454.035H715.3V452.922Z" fill="#542CEA" fill-opacity="0.28"/>
<path d="M715.3 508.547H708.3V500.76H707.2V508.547H700.2V509.66H707.2V517.447H708.3V509.66H715.3V508.547Z" fill="#542CEA" fill-opacity="0.28"/>
<path d="M715.3 564.172H708.3V556.385H707.2V564.172H700.2V565.285H707.2V573.072H708.3V565.285H715.3V564.172Z" fill="#542CEA" fill-opacity="0.28"/>
<path d="M715.3 619.797H708.3V612.01H707.2V619.797H700.2V620.91H707.2V628.697H708.3V620.91H715.3V619.797Z" fill="#542CEA" fill-opacity="0.28"/>
<path d="M715.3 675.422H708.3V667.635H707.2V675.422H700.2V676.535H707.2V684.322H708.3V676.535H715.3V675.422Z" fill="#542CEA" fill-opacity="0.28"/>
<path d="M715.3 731.047H708.3V723.26H707.2V731.047H700.2V732.16H707.2V739.947H708.3V732.16H715.3V731.047Z" fill="#542CEA" fill-opacity="0.28"/>
<path d="M715.3 786.672H708.3V778.885H707.2V786.672H700.2V787.785H707.2V795.572H708.3V787.785H715.3V786.672Z" fill="#542CEA" fill-opacity="0.28"/>
<path d="M715.3 842.297H708.3V834.51H707.2V842.297H700.2V843.41H707.2V851.197H708.3V843.41H715.3V842.297Z" fill="#542CEA" fill-opacity="0.28"/>
<path d="M665.3 7.92227H658.3V0.134766H657.2V7.92227H650.2V9.03477H657.2V16.8223H658.3V9.03477H665.3V7.92227Z" fill="#542CEA" fill-opacity="0.28"/>
<path d="M665.3 63.5473H658.3V55.7598H657.2V63.5473H650.2V64.6598H657.2V72.4473H658.3V64.6598H665.3V63.5473Z" fill="#542CEA" fill-opacity="0.28"/>
<path d="M665.3 119.172H658.3V111.385H657.2V119.172H650.2V120.285H657.2V128.072H658.3V120.285H665.3V119.172Z" fill="#542CEA" fill-opacity="0.28"/>
<path d="M665.3 174.797H658.3V167.01H657.2V174.797H650.2V175.91H657.2V183.697H658.3V175.91H665.3V174.797Z" fill="#542CEA" fill-opacity="0.28"/>
<path d="M665.3 230.422H658.3V222.635H657.2V230.422H650.2V231.535H657.2V239.322H658.3V231.535H665.3V230.422Z" fill="#542CEA" fill-opacity="0.28"/>
<path d="M665.3 286.047H658.3V278.26H657.2V286.047H650.2V287.16H657.2V294.947H658.3V287.16H665.3V286.047Z" fill="#542CEA" fill-opacity="0.28"/>
<path d="M665.3 341.672H658.3V333.885H657.2V341.672H650.2V342.785H657.2V350.572H658.3V342.785H665.3V341.672Z" fill="#542CEA" fill-opacity="0.28"/>
<path d="M665.3 397.297H658.3V389.51H657.2V397.297H650.2V398.41H657.2V406.197H658.3V398.41H665.3V397.297Z" fill="#542CEA" fill-opacity="0.28"/>
<path d="M665.3 452.922H658.3V445.135H657.2V452.922H650.2V454.035H657.2V461.822H658.3V454.035H665.3V452.922Z" fill="#542CEA" fill-opacity="0.28"/>
<path d="M665.3 508.547H658.3V500.76H657.2V508.547H650.2V509.66H657.2V517.447H658.3V509.66H665.3V508.547Z" fill="#542CEA" fill-opacity="0.28"/>
<path d="M665.3 564.172H658.3V556.385H657.2V564.172H650.2V565.285H657.2V573.072H658.3V565.285H665.3V564.172Z" fill="#542CEA" fill-opacity="0.28"/>
<path d="M665.3 619.797H658.3V612.01H657.2V619.797H650.2V620.91H657.2V628.697H658.3V620.91H665.3V619.797Z" fill="#542CEA" fill-opacity="0.28"/>
<path d="M665.3 675.422H658.3V667.635H657.2V675.422H650.2V676.535H657.2V684.322H658.3V676.535H665.3V675.422Z" fill="#542CEA" fill-opacity="0.28"/>
<path d="M665.3 731.047H658.3V723.26H657.2V731.047H650.2V732.16H657.2V739.947H658.3V732.16H665.3V731.047Z" fill="#542CEA" fill-opacity="0.28"/>
<path d="M665.3 786.672H658.3V778.885H657.2V786.672H650.2V787.785H657.2V795.572H658.3V787.785H665.3V786.672Z" fill="#542CEA" fill-opacity="0.28"/>
<path d="M665.3 842.297H658.3V834.51H657.2V842.297H650.2V843.41H657.2V851.197H658.3V843.41H665.3V842.297Z" fill="#542CEA" fill-opacity="0.28"/>
<path d="M615.3 7.92227H608.3V0.134766H607.2V7.92227H600.2V9.03477H607.2V16.8223H608.3V9.03477H615.3V7.92227Z" fill="#542CEA" fill-opacity="0.28"/>
<path d="M615.3 63.5473H608.3V55.7598H607.2V63.5473H600.2V64.6598H607.2V72.4473H608.3V64.6598H615.3V63.5473Z" fill="#542CEA" fill-opacity="0.28"/>
<path d="M615.3 119.172H608.3V111.385H607.2V119.172H600.2V120.285H607.2V128.072H608.3V120.285H615.3V119.172Z" fill="#542CEA" fill-opacity="0.28"/>
<path d="M615.3 174.797H608.3V167.01H607.2V174.797H600.2V175.91H607.2V183.697H608.3V175.91H615.3V174.797Z" fill="#542CEA" fill-opacity="0.28"/>
<path d="M615.3 230.422H608.3V222.635H607.2V230.422H600.2V231.535H607.2V239.322H608.3V231.535H615.3V230.422Z" fill="#542CEA" fill-opacity="0.28"/>
<path d="M615.3 286.047H608.3V278.26H607.2V286.047H600.2V287.16H607.2V294.947H608.3V287.16H615.3V286.047Z" fill="#542CEA" fill-opacity="0.28"/>
<path d="M615.3 341.672H608.3V333.885H607.2V341.672H600.2V342.785H607.2V350.572H608.3V342.785H615.3V341.672Z" fill="#542CEA" fill-opacity="0.28"/>
<path d="M615.3 397.297H608.3V389.51H607.2V397.297H600.2V398.41H607.2V406.197H608.3V398.41H615.3V397.297Z" fill="#542CEA" fill-opacity="0.28"/>
<path d="M615.3 452.922H608.3V445.135H607.2V452.922H600.2V454.035H607.2V461.822H608.3V454.035H615.3V452.922Z" fill="#542CEA" fill-opacity="0.28"/>
<path d="M615.3 508.547H608.3V500.76H607.2V508.547H600.2V509.66H607.2V517.447H608.3V509.66H615.3V508.547Z" fill="#542CEA" fill-opacity="0.28"/>
<path d="M615.3 564.172H608.3V556.385H607.2V564.172H600.2V565.285H607.2V573.072H608.3V565.285H615.3V564.172Z" fill="#542CEA" fill-opacity="0.28"/>
<path d="M615.3 619.797H608.3V612.01H607.2V619.797H600.2V620.91H607.2V628.697H608.3V620.91H615.3V619.797Z" fill="#542CEA" fill-opacity="0.28"/>
<path d="M615.3 675.422H608.3V667.635H607.2V675.422H600.2V676.535H607.2V684.322H608.3V676.535H615.3V675.422Z" fill="#542CEA" fill-opacity="0.28"/>
<path d="M615.3 731.047H608.3V723.26H607.2V731.047H600.2V732.16H607.2V739.947H608.3V732.16H615.3V731.047Z" fill="#542CEA" fill-opacity="0.28"/>
<path d="M615.3 786.672H608.3V778.885H607.2V786.672H600.2V787.785H607.2V795.572H608.3V787.785H615.3V786.672Z" fill="#542CEA" fill-opacity="0.28"/>
<path d="M615.3 842.297H608.3V834.51H607.2V842.297H600.2V843.41H607.2V851.197H608.3V843.41H615.3V842.297Z" fill="#542CEA" fill-opacity="0.28"/>
<path d="M565.3 7.92227H558.3V0.134766H557.2V7.92227H550.2V9.03477H557.2V16.8223H558.3V9.03477H565.3V7.92227Z" fill="#542CEA" fill-opacity="0.28"/>
<path d="M565.3 63.5473H558.3V55.7598H557.2V63.5473H550.2V64.6598H557.2V72.4473H558.3V64.6598H565.3V63.5473Z" fill="#542CEA" fill-opacity="0.28"/>
<path d="M565.3 119.172H558.3V111.385H557.2V119.172H550.2V120.285H557.2V128.072H558.3V120.285H565.3V119.172Z" fill="#542CEA" fill-opacity="0.28"/>
<path d="M565.3 174.797H558.3V167.01H557.2V174.797H550.2V175.91H557.2V183.697H558.3V175.91H565.3V174.797Z" fill="#542CEA" fill-opacity="0.28"/>
<path d="M565.3 230.422H558.3V222.635H557.2V230.422H550.2V231.535H557.2V239.322H558.3V231.535H565.3V230.422Z" fill="#542CEA" fill-opacity="0.28"/>
<path d="M565.3 286.047H558.3V278.26H557.2V286.047H550.2V287.16H557.2V294.947H558.3V287.16H565.3V286.047Z" fill="#542CEA" fill-opacity="0.28"/>
<path d="M565.3 341.672H558.3V333.885H557.2V341.672H550.2V342.785H557.2V350.572H558.3V342.785H565.3V341.672Z" fill="#542CEA" fill-opacity="0.28"/>
<path d="M565.3 397.297H558.3V389.51H557.2V397.297H550.2V398.41H557.2V406.197H558.3V398.41H565.3V397.297Z" fill="#542CEA" fill-opacity="0.28"/>
<path d="M565.3 452.922H558.3V445.135H557.2V452.922H550.2V454.035H557.2V461.822H558.3V454.035H565.3V452.922Z" fill="#542CEA" fill-opacity="0.28"/>
<path d="M565.3 508.547H558.3V500.76H557.2V508.547H550.2V509.66H557.2V517.447H558.3V509.66H565.3V508.547Z" fill="#542CEA" fill-opacity="0.28"/>
<path d="M565.3 564.172H558.3V556.385H557.2V564.172H550.2V565.285H557.2V573.072H558.3V565.285H565.3V564.172Z" fill="#542CEA" fill-opacity="0.28"/>
<path d="M565.3 619.797H558.3V612.01H557.2V619.797H550.2V620.91H557.2V628.697H558.3V620.91H565.3V619.797Z" fill="#542CEA" fill-opacity="0.28"/>
<path d="M565.3 675.422H558.3V667.635H557.2V675.422H550.2V676.535H557.2V684.322H558.3V676.535H565.3V675.422Z" fill="#542CEA" fill-opacity="0.28"/>
<path d="M565.3 731.047H558.3V723.26H557.2V731.047H550.2V732.16H557.2V739.947H558.3V732.16H565.3V731.047Z" fill="#542CEA" fill-opacity="0.28"/>
<path d="M565.3 786.672H558.3V778.885H557.2V786.672H550.2V787.785H557.2V795.572H558.3V787.785H565.3V786.672Z" fill="#542CEA" fill-opacity="0.28"/>
<path d="M565.3 842.297H558.3V834.51H557.2V842.297H550.2V843.41H557.2V851.197H558.3V843.41H565.3V842.297Z" fill="#542CEA" fill-opacity="0.28"/>
<path d="M515.3 7.92227H508.3V0.134766H507.2V7.92227H500.2V9.03477H507.2V16.8223H508.3V9.03477H515.3V7.92227Z" fill="#542CEA" fill-opacity="0.28"/>
<path d="M515.3 63.5473H508.3V55.7598H507.2V63.5473H500.2V64.6598H507.2V72.4473H508.3V64.6598H515.3V63.5473Z" fill="#542CEA" fill-opacity="0.28"/>
<path d="M515.3 119.172H508.3V111.385H507.2V119.172H500.2V120.285H507.2V128.072H508.3V120.285H515.3V119.172Z" fill="#542CEA" fill-opacity="0.28"/>
<path d="M515.3 174.797H508.3V167.01H507.2V174.797H500.2V175.91H507.2V183.697H508.3V175.91H515.3V174.797Z" fill="#542CEA" fill-opacity="0.28"/>
<path d="M515.3 230.422H508.3V222.635H507.2V230.422H500.2V231.535H507.2V239.322H508.3V231.535H515.3V230.422Z" fill="#542CEA" fill-opacity="0.28"/>
<path d="M515.3 286.047H508.3V278.26H507.2V286.047H500.2V287.16H507.2V294.947H508.3V287.16H515.3V286.047Z" fill="#542CEA" fill-opacity="0.28"/>
<path d="M515.3 341.672H508.3V333.885H507.2V341.672H500.2V342.785H507.2V350.572H508.3V342.785H515.3V341.672Z" fill="#542CEA" fill-opacity="0.28"/>
<path d="M515.3 397.297H508.3V389.51H507.2V397.297H500.2V398.41H507.2V406.197H508.3V398.41H515.3V397.297Z" fill="#542CEA" fill-opacity="0.28"/>
<path d="M515.3 452.922H508.3V445.135H507.2V452.922H500.2V454.035H507.2V461.822H508.3V454.035H515.3V452.922Z" fill="#542CEA" fill-opacity="0.28"/>
<path d="M515.3 508.547H508.3V500.76H507.2V508.547H500.2V509.66H507.2V517.447H508.3V509.66H515.3V508.547Z" fill="#542CEA" fill-opacity="0.28"/>
<path d="M515.3 564.172H508.3V556.385H507.2V564.172H500.2V565.285H507.2V573.072H508.3V565.285H515.3V564.172Z" fill="#542CEA" fill-opacity="0.28"/>
<path d="M515.3 619.797H508.3V612.01H507.2V619.797H500.2V620.91H507.2V628.697H508.3V620.91H515.3V619.797Z" fill="#542CEA" fill-opacity="0.28"/>
<path d="M515.3 675.422H508.3V667.635H507.2V675.422H500.2V676.535H507.2V684.322H508.3V676.535H515.3V675.422Z" fill="#542CEA" fill-opacity="0.28"/>
<path d="M515.3 731.047H508.3V723.26H507.2V731.047H500.2V732.16H507.2V739.947H508.3V732.16H515.3V731.047Z" fill="#542CEA" fill-opacity="0.28"/>
<path d="M515.3 786.672H508.3V778.885H507.2V786.672H500.2V787.785H507.2V795.572H508.3V787.785H515.3V786.672Z" fill="#542CEA" fill-opacity="0.28"/>
<path d="M515.3 842.297H508.3V834.51H507.2V842.297H500.2V843.41H507.2V851.197H508.3V843.41H515.3V842.297Z" fill="#542CEA" fill-opacity="0.28"/>
<path d="M465.3 7.92227H458.3V0.134766H457.2V7.92227H450.2V9.03477H457.2V16.8223H458.3V9.03477H465.3V7.92227Z" fill="#542CEA" fill-opacity="0.28"/>
<path d="M465.3 63.5473H458.3V55.7598H457.2V63.5473H450.2V64.6598H457.2V72.4473H458.3V64.6598H465.3V63.5473Z" fill="#542CEA" fill-opacity="0.28"/>
<path d="M465.3 119.172H458.3V111.385H457.2V119.172H450.2V120.285H457.2V128.072H458.3V120.285H465.3V119.172Z" fill="#542CEA" fill-opacity="0.28"/>
<path d="M465.3 174.797H458.3V167.01H457.2V174.797H450.2V175.91H457.2V183.697H458.3V175.91H465.3V174.797Z" fill="#542CEA" fill-opacity="0.28"/>
<path d="M465.3 230.422H458.3V222.635H457.2V230.422H450.2V231.535H457.2V239.322H458.3V231.535H465.3V230.422Z" fill="#542CEA" fill-opacity="0.28"/>
<path d="M465.3 286.047H458.3V278.26H457.2V286.047H450.2V287.16H457.2V294.947H458.3V287.16H465.3V286.047Z" fill="#542CEA" fill-opacity="0.28"/>
<path d="M465.3 341.672H458.3V333.885H457.2V341.672H450.2V342.785H457.2V350.572H458.3V342.785H465.3V341.672Z" fill="#542CEA" fill-opacity="0.28"/>
<path d="M465.3 397.297H458.3V389.51H457.2V397.297H450.2V398.41H457.2V406.197H458.3V398.41H465.3V397.297Z" fill="#542CEA" fill-opacity="0.28"/>
<path d="M465.3 452.922H458.3V445.135H457.2V452.922H450.2V454.035H457.2V461.822H458.3V454.035H465.3V452.922Z" fill="#542CEA" fill-opacity="0.28"/>
<path d="M465.3 508.547H458.3V500.76H457.2V508.547H450.2V509.66H457.2V517.447H458.3V509.66H465.3V508.547Z" fill="#542CEA" fill-opacity="0.28"/>
<path d="M465.3 564.172H458.3V556.385H457.2V564.172H450.2V565.285H457.2V573.072H458.3V565.285H465.3V564.172Z" fill="#542CEA" fill-opacity="0.28"/>
<path d="M465.3 619.797H458.3V612.01H457.2V619.797H450.2V620.91H457.2V628.697H458.3V620.91H465.3V619.797Z" fill="#542CEA" fill-opacity="0.28"/>
<path d="M465.3 675.422H458.3V667.635H457.2V675.422H450.2V676.535H457.2V684.322H458.3V676.535H465.3V675.422Z" fill="#542CEA" fill-opacity="0.28"/>
<path d="M465.3 731.047H458.3V723.26H457.2V731.047H450.2V732.16H457.2V739.947H458.3V732.16H465.3V731.047Z" fill="#542CEA" fill-opacity="0.28"/>
<path d="M465.3 786.672H458.3V778.885H457.2V786.672H450.2V787.785H457.2V795.572H458.3V787.785H465.3V786.672Z" fill="#542CEA" fill-opacity="0.28"/>
<path d="M465.3 842.297H458.3V834.51H457.2V842.297H450.2V843.41H457.2V851.197H458.3V843.41H465.3V842.297Z" fill="#542CEA" fill-opacity="0.28"/>
<path d="M415.3 7.92227H408.3V0.134766H407.2V7.92227H400.2V9.03477H407.2V16.8223H408.3V9.03477H415.3V7.92227Z" fill="#542CEA" fill-opacity="0.28"/>
<path d="M415.3 63.5473H408.3V55.7598H407.2V63.5473H400.2V64.6598H407.2V72.4473H408.3V64.6598H415.3V63.5473Z" fill="#542CEA" fill-opacity="0.28"/>
<path d="M415.3 119.172H408.3V111.385H407.2V119.172H400.2V120.285H407.2V128.072H408.3V120.285H415.3V119.172Z" fill="#542CEA" fill-opacity="0.28"/>
<path d="M415.3 174.797H408.3V167.01H407.2V174.797H400.2V175.91H407.2V183.697H408.3V175.91H415.3V174.797Z" fill="#542CEA" fill-opacity="0.28"/>
<path d="M415.3 230.422H408.3V222.635H407.2V230.422H400.2V231.535H407.2V239.322H408.3V231.535H415.3V230.422Z" fill="#542CEA" fill-opacity="0.28"/>
<path d="M415.3 286.047H408.3V278.26H407.2V286.047H400.2V287.16H407.2V294.947H408.3V287.16H415.3V286.047Z" fill="#542CEA" fill-opacity="0.28"/>
<path d="M415.3 341.672H408.3V333.885H407.2V341.672H400.2V342.785H407.2V350.572H408.3V342.785H415.3V341.672Z" fill="#542CEA" fill-opacity="0.28"/>
<path d="M415.3 397.297H408.3V389.51H407.2V397.297H400.2V398.41H407.2V406.197H408.3V398.41H415.3V397.297Z" fill="#542CEA" fill-opacity="0.28"/>
<path d="M415.3 452.922H408.3V445.135H407.2V452.922H400.2V454.035H407.2V461.822H408.3V454.035H415.3V452.922Z" fill="#542CEA" fill-opacity="0.28"/>
<path d="M415.3 508.547H408.3V500.76H407.2V508.547H400.2V509.66H407.2V517.447H408.3V509.66H415.3V508.547Z" fill="#542CEA" fill-opacity="0.28"/>
<path d="M415.3 564.172H408.3V556.385H407.2V564.172H400.2V565.285H407.2V573.072H408.3V565.285H415.3V564.172Z" fill="#542CEA" fill-opacity="0.28"/>
<path d="M415.3 619.797H408.3V612.01H407.2V619.797H400.2V620.91H407.2V628.697H408.3V620.91H415.3V619.797Z" fill="#542CEA" fill-opacity="0.28"/>
<path d="M415.3 675.422H408.3V667.635H407.2V675.422H400.2V676.535H407.2V684.322H408.3V676.535H415.3V675.422Z" fill="#542CEA" fill-opacity="0.28"/>
<path d="M415.3 731.047H408.3V723.26H407.2V731.047H400.2V732.16H407.2V739.947H408.3V732.16H415.3V731.047Z" fill="#542CEA" fill-opacity="0.28"/>
<path d="M415.3 786.672H408.3V778.885H407.2V786.672H400.2V787.785H407.2V795.572H408.3V787.785H415.3V786.672Z" fill="#542CEA" fill-opacity="0.28"/>
<path d="M415.3 842.297H408.3V834.51H407.2V842.297H400.2V843.41H407.2V851.197H408.3V843.41H415.3V842.297Z" fill="#542CEA" fill-opacity="0.28"/>
<path d="M365.3 7.92227H358.3V0.134766H357.2V7.92227H350.2V9.03477H357.2V16.8223H358.3V9.03477H365.3V7.92227Z" fill="#542CEA" fill-opacity="0.28"/>
<path d="M365.3 63.5473H358.3V55.7598H357.2V63.5473H350.2V64.6598H357.2V72.4473H358.3V64.6598H365.3V63.5473Z" fill="#542CEA" fill-opacity="0.28"/>
<path d="M365.3 119.172H358.3V111.385H357.2V119.172H350.2V120.285H357.2V128.072H358.3V120.285H365.3V119.172Z" fill="#542CEA" fill-opacity="0.28"/>
<path d="M365.3 174.797H358.3V167.01H357.2V174.797H350.2V175.91H357.2V183.697H358.3V175.91H365.3V174.797Z" fill="#542CEA" fill-opacity="0.28"/>
<path d="M365.3 230.422H358.3V222.635H357.2V230.422H350.2V231.535H357.2V239.322H358.3V231.535H365.3V230.422Z" fill="#542CEA" fill-opacity="0.28"/>
<path d="M365.3 286.047H358.3V278.26H357.2V286.047H350.2V287.16H357.2V294.947H358.3V287.16H365.3V286.047Z" fill="#542CEA" fill-opacity="0.28"/>
<path d="M365.3 341.672H358.3V333.885H357.2V341.672H350.2V342.785H357.2V350.572H358.3V342.785H365.3V341.672Z" fill="#542CEA" fill-opacity="0.28"/>
<path d="M365.3 397.297H358.3V389.51H357.2V397.297H350.2V398.41H357.2V406.197H358.3V398.41H365.3V397.297Z" fill="#542CEA" fill-opacity="0.28"/>
<path d="M365.3 452.922H358.3V445.135H357.2V452.922H350.2V454.035H357.2V461.822H358.3V454.035H365.3V452.922Z" fill="#542CEA" fill-opacity="0.28"/>
<path d="M365.3 508.547H358.3V500.76H357.2V508.547H350.2V509.66H357.2V517.447H358.3V509.66H365.3V508.547Z" fill="#542CEA" fill-opacity="0.28"/>
<path d="M365.3 564.172H358.3V556.385H357.2V564.172H350.2V565.285H357.2V573.072H358.3V565.285H365.3V564.172Z" fill="#542CEA" fill-opacity="0.28"/>
<path d="M365.3 619.797H358.3V612.01H357.2V619.797H350.2V620.91H357.2V628.697H358.3V620.91H365.3V619.797Z" fill="#542CEA" fill-opacity="0.28"/>
<path d="M365.3 675.422H358.3V667.635H357.2V675.422H350.2V676.535H357.2V684.322H358.3V676.535H365.3V675.422Z" fill="#542CEA" fill-opacity="0.28"/>
<path d="M365.3 731.047H358.3V723.26H357.2V731.047H350.2V732.16H357.2V739.947H358.3V732.16H365.3V731.047Z" fill="#542CEA" fill-opacity="0.28"/>
<path d="M365.3 786.672H358.3V778.885H357.2V786.672H350.2V787.785H357.2V795.572H358.3V787.785H365.3V786.672Z" fill="#542CEA" fill-opacity="0.28"/>
<path d="M365.3 842.297H358.3V834.51H357.2V842.297H350.2V843.41H357.2V851.197H358.3V843.41H365.3V842.297Z" fill="#542CEA" fill-opacity="0.28"/>
<path d="M315.3 7.92227H308.3V0.134766H307.2V7.92227H300.2V9.03477H307.2V16.8223H308.3V9.03477H315.3V7.92227Z" fill="#542CEA" fill-opacity="0.28"/>
<path d="M315.3 63.5473H308.3V55.7598H307.2V63.5473H300.2V64.6598H307.2V72.4473H308.3V64.6598H315.3V63.5473Z" fill="#542CEA" fill-opacity="0.28"/>
<path d="M315.3 119.172H308.3V111.385H307.2V119.172H300.2V120.285H307.2V128.072H308.3V120.285H315.3V119.172Z" fill="#542CEA" fill-opacity="0.28"/>
<path d="M315.3 174.797H308.3V167.01H307.2V174.797H300.2V175.91H307.2V183.697H308.3V175.91H315.3V174.797Z" fill="#542CEA" fill-opacity="0.28"/>
<path d="M315.3 230.422H308.3V222.635H307.2V230.422H300.2V231.535H307.2V239.322H308.3V231.535H315.3V230.422Z" fill="#542CEA" fill-opacity="0.28"/>
<path d="M315.3 286.047H308.3V278.26H307.2V286.047H300.2V287.16H307.2V294.947H308.3V287.16H315.3V286.047Z" fill="#542CEA" fill-opacity="0.28"/>
<path d="M315.3 341.672H308.3V333.885H307.2V341.672H300.2V342.785H307.2V350.572H308.3V342.785H315.3V341.672Z" fill="#542CEA" fill-opacity="0.28"/>
<path d="M315.3 397.297H308.3V389.51H307.2V397.297H300.2V398.41H307.2V406.197H308.3V398.41H315.3V397.297Z" fill="#542CEA" fill-opacity="0.28"/>
<path d="M315.3 452.922H308.3V445.135H307.2V452.922H300.2V454.035H307.2V461.822H308.3V454.035H315.3V452.922Z" fill="#542CEA" fill-opacity="0.28"/>
<path d="M315.3 508.547H308.3V500.76H307.2V508.547H300.2V509.66H307.2V517.447H308.3V509.66H315.3V508.547Z" fill="#542CEA" fill-opacity="0.28"/>
<path d="M315.3 564.172H308.3V556.385H307.2V564.172H300.2V565.285H307.2V573.072H308.3V565.285H315.3V564.172Z" fill="#542CEA" fill-opacity="0.28"/>
<path d="M315.3 619.797H308.3V612.01H307.2V619.797H300.2V620.91H307.2V628.697H308.3V620.91H315.3V619.797Z" fill="#542CEA" fill-opacity="0.28"/>
<path d="M315.3 675.422H308.3V667.635H307.2V675.422H300.2V676.535H307.2V684.322H308.3V676.535H315.3V675.422Z" fill="#542CEA" fill-opacity="0.28"/>
<path d="M315.3 731.047H308.3V723.26H307.2V731.047H300.2V732.16H307.2V739.947H308.3V732.16H315.3V731.047Z" fill="#542CEA" fill-opacity="0.28"/>
<path d="M315.3 786.672H308.3V778.885H307.2V786.672H300.2V787.785H307.2V795.572H308.3V787.785H315.3V786.672Z" fill="#542CEA" fill-opacity="0.28"/>
<path d="M315.3 842.297H308.3V834.51H307.2V842.297H300.2V843.41H307.2V851.197H308.3V843.41H315.3V842.297Z" fill="#542CEA" fill-opacity="0.28"/>
<path d="M265.3 7.92227H258.3V0.134766H257.2V7.92227H250.2V9.03477H257.2V16.8223H258.3V9.03477H265.3V7.92227Z" fill="#542CEA" fill-opacity="0.28"/>
<path d="M265.3 63.5473H258.3V55.7598H257.2V63.5473H250.2V64.6598H257.2V72.4473H258.3V64.6598H265.3V63.5473Z" fill="#542CEA" fill-opacity="0.28"/>
<path d="M265.3 119.172H258.3V111.385H257.2V119.172H250.2V120.285H257.2V128.072H258.3V120.285H265.3V119.172Z" fill="#542CEA" fill-opacity="0.28"/>
<path d="M265.3 174.797H258.3V167.01H257.2V174.797H250.2V175.91H257.2V183.697H258.3V175.91H265.3V174.797Z" fill="#542CEA" fill-opacity="0.28"/>
<path d="M265.3 230.422H258.3V222.635H257.2V230.422H250.2V231.535H257.2V239.322H258.3V231.535H265.3V230.422Z" fill="#542CEA" fill-opacity="0.28"/>
<path d="M265.3 286.047H258.3V278.26H257.2V286.047H250.2V287.16H257.2V294.947H258.3V287.16H265.3V286.047Z" fill="#542CEA" fill-opacity="0.28"/>
<path d="M265.3 341.672H258.3V333.885H257.2V341.672H250.2V342.785H257.2V350.572H258.3V342.785H265.3V341.672Z" fill="#542CEA" fill-opacity="0.28"/>
<path d="M265.3 397.297H258.3V389.51H257.2V397.297H250.2V398.41H257.2V406.197H258.3V398.41H265.3V397.297Z" fill="#542CEA" fill-opacity="0.28"/>
<path d="M265.3 452.922H258.3V445.135H257.2V452.922H250.2V454.035H257.2V461.822H258.3V454.035H265.3V452.922Z" fill="#542CEA" fill-opacity="0.28"/>
<path d="M265.3 508.547H258.3V500.76H257.2V508.547H250.2V509.66H257.2V517.447H258.3V509.66H265.3V508.547Z" fill="#542CEA" fill-opacity="0.28"/>
<path d="M265.3 564.172H258.3V556.385H257.2V564.172H250.2V565.285H257.2V573.072H258.3V565.285H265.3V564.172Z" fill="#542CEA" fill-opacity="0.28"/>
<path d="M265.3 619.797H258.3V612.01H257.2V619.797H250.2V620.91H257.2V628.697H258.3V620.91H265.3V619.797Z" fill="#542CEA" fill-opacity="0.28"/>
<path d="M265.3 675.422H258.3V667.635H257.2V675.422H250.2V676.535H257.2V684.322H258.3V676.535H265.3V675.422Z" fill="#542CEA" fill-opacity="0.28"/>
<path d="M265.3 731.047H258.3V723.26H257.2V731.047H250.2V732.16H257.2V739.947H258.3V732.16H265.3V731.047Z" fill="#542CEA" fill-opacity="0.28"/>
<path d="M265.3 786.672H258.3V778.885H257.2V786.672H250.2V787.785H257.2V795.572H258.3V787.785H265.3V786.672Z" fill="#542CEA" fill-opacity="0.28"/>
<path d="M265.3 842.297H258.3V834.51H257.2V842.297H250.2V843.41H257.2V851.197H258.3V843.41H265.3V842.297Z" fill="#542CEA" fill-opacity="0.28"/>
<path d="M215.3 7.92227H208.3V0.134766H207.2V7.92227H200.2V9.03477H207.2V16.8223H208.3V9.03477H215.3V7.92227Z" fill="#542CEA" fill-opacity="0.28"/>
<path d="M215.3 63.5473H208.3V55.7598H207.2V63.5473H200.2V64.6598H207.2V72.4473H208.3V64.6598H215.3V63.5473Z" fill="#542CEA" fill-opacity="0.28"/>
<path d="M215.3 119.172H208.3V111.385H207.2V119.172H200.2V120.285H207.2V128.072H208.3V120.285H215.3V119.172Z" fill="#542CEA" fill-opacity="0.28"/>
<path d="M215.3 174.797H208.3V167.01H207.2V174.797H200.2V175.91H207.2V183.697H208.3V175.91H215.3V174.797Z" fill="#542CEA" fill-opacity="0.28"/>
<path d="M215.3 230.422H208.3V222.635H207.2V230.422H200.2V231.535H207.2V239.322H208.3V231.535H215.3V230.422Z" fill="#542CEA" fill-opacity="0.28"/>
<path d="M215.3 286.047H208.3V278.26H207.2V286.047H200.2V287.16H207.2V294.947H208.3V287.16H215.3V286.047Z" fill="#542CEA" fill-opacity="0.28"/>
<path d="M215.3 341.672H208.3V333.885H207.2V341.672H200.2V342.785H207.2V350.572H208.3V342.785H215.3V341.672Z" fill="#542CEA" fill-opacity="0.28"/>
<path d="M215.3 397.297H208.3V389.51H207.2V397.297H200.2V398.41H207.2V406.197H208.3V398.41H215.3V397.297Z" fill="#542CEA" fill-opacity="0.28"/>
<path d="M215.3 452.922H208.3V445.135H207.2V452.922H200.2V454.035H207.2V461.822H208.3V454.035H215.3V452.922Z" fill="#542CEA" fill-opacity="0.28"/>
<path d="M215.3 508.547H208.3V500.76H207.2V508.547H200.2V509.66H207.2V517.447H208.3V509.66H215.3V508.547Z" fill="#542CEA" fill-opacity="0.28"/>
<path d="M215.3 564.172H208.3V556.385H207.2V564.172H200.2V565.285H207.2V573.072H208.3V565.285H215.3V564.172Z" fill="#542CEA" fill-opacity="0.28"/>
<path d="M215.3 619.797H208.3V612.01H207.2V619.797H200.2V620.91H207.2V628.697H208.3V620.91H215.3V619.797Z" fill="#542CEA" fill-opacity="0.28"/>
<path d="M215.3 675.422H208.3V667.635H207.2V675.422H200.2V676.535H207.2V684.322H208.3V676.535H215.3V675.422Z" fill="#542CEA" fill-opacity="0.28"/>
<path d="M215.3 731.047H208.3V723.26H207.2V731.047H200.2V732.16H207.2V739.947H208.3V732.16H215.3V731.047Z" fill="#542CEA" fill-opacity="0.28"/>
<path d="M215.3 786.672H208.3V778.885H207.2V786.672H200.2V787.785H207.2V795.572H208.3V787.785H215.3V786.672Z" fill="#542CEA" fill-opacity="0.28"/>
<path d="M215.3 842.297H208.3V834.51H207.2V842.297H200.2V843.41H207.2V851.197H208.3V843.41H215.3V842.297Z" fill="#542CEA" fill-opacity="0.28"/>
<path d="M165.3 7.92227H158.3V0.134766H157.2V7.92227H150.2V9.03477H157.2V16.8223H158.3V9.03477H165.3V7.92227Z" fill="#542CEA" fill-opacity="0.28"/>
<path d="M165.3 63.5473H158.3V55.7598H157.2V63.5473H150.2V64.6598H157.2V72.4473H158.3V64.6598H165.3V63.5473Z" fill="#542CEA" fill-opacity="0.28"/>
<path d="M165.3 119.172H158.3V111.385H157.2V119.172H150.2V120.285H157.2V128.072H158.3V120.285H165.3V119.172Z" fill="#542CEA" fill-opacity="0.28"/>
<path d="M165.3 174.797H158.3V167.01H157.2V174.797H150.2V175.91H157.2V183.697H158.3V175.91H165.3V174.797Z" fill="#542CEA" fill-opacity="0.28"/>
<path d="M165.3 230.422H158.3V222.635H157.2V230.422H150.2V231.535H157.2V239.322H158.3V231.535H165.3V230.422Z" fill="#542CEA" fill-opacity="0.28"/>
<path d="M165.3 286.047H158.3V278.26H157.2V286.047H150.2V287.16H157.2V294.947H158.3V287.16H165.3V286.047Z" fill="#542CEA" fill-opacity="0.28"/>
<path d="M165.3 341.672H158.3V333.885H157.2V341.672H150.2V342.785H157.2V350.572H158.3V342.785H165.3V341.672Z" fill="#542CEA" fill-opacity="0.28"/>
<path d="M165.3 397.297H158.3V389.51H157.2V397.297H150.2V398.41H157.2V406.197H158.3V398.41H165.3V397.297Z" fill="#542CEA" fill-opacity="0.28"/>
<path d="M165.3 452.922H158.3V445.135H157.2V452.922H150.2V454.035H157.2V461.822H158.3V454.035H165.3V452.922Z" fill="#542CEA" fill-opacity="0.28"/>
<path d="M165.3 508.547H158.3V500.76H157.2V508.547H150.2V509.66H157.2V517.447H158.3V509.66H165.3V508.547Z" fill="#542CEA" fill-opacity="0.28"/>
<path d="M165.3 564.172H158.3V556.385H157.2V564.172H150.2V565.285H157.2V573.072H158.3V565.285H165.3V564.172Z" fill="#542CEA" fill-opacity="0.28"/>
<path d="M165.3 619.797H158.3V612.01H157.2V619.797H150.2V620.91H157.2V628.697H158.3V620.91H165.3V619.797Z" fill="#542CEA" fill-opacity="0.28"/>
<path d="M165.3 675.422H158.3V667.635H157.2V675.422H150.2V676.535H157.2V684.322H158.3V676.535H165.3V675.422Z" fill="#542CEA" fill-opacity="0.28"/>
<path d="M165.3 731.047H158.3V723.26H157.2V731.047H150.2V732.16H157.2V739.947H158.3V732.16H165.3V731.047Z" fill="#542CEA" fill-opacity="0.28"/>
<path d="M165.3 786.672H158.3V778.885H157.2V786.672H150.2V787.785H157.2V795.572H158.3V787.785H165.3V786.672Z" fill="#542CEA" fill-opacity="0.28"/>
<path d="M165.3 842.297H158.3V834.51H157.2V842.297H150.2V843.41H157.2V851.197H158.3V843.41H165.3V842.297Z" fill="#542CEA" fill-opacity="0.28"/>
<path d="M115.3 7.92227H108.3V0.134766H107.2V7.92227H100.2V9.03477H107.2V16.8223H108.3V9.03477H115.3V7.92227Z" fill="#542CEA" fill-opacity="0.28"/>
<path d="M115.3 63.5473H108.3V55.7598H107.2V63.5473H100.2V64.6598H107.2V72.4473H108.3V64.6598H115.3V63.5473Z" fill="#542CEA" fill-opacity="0.28"/>
<path d="M115.3 119.172H108.3V111.385H107.2V119.172H100.2V120.285H107.2V128.072H108.3V120.285H115.3V119.172Z" fill="#542CEA" fill-opacity="0.28"/>
<path d="M115.3 174.797H108.3V167.01H107.2V174.797H100.2V175.91H107.2V183.697H108.3V175.91H115.3V174.797Z" fill="#542CEA" fill-opacity="0.28"/>
<path d="M115.3 230.422H108.3V222.635H107.2V230.422H100.2V231.535H107.2V239.322H108.3V231.535H115.3V230.422Z" fill="#542CEA" fill-opacity="0.28"/>
<path d="M115.3 286.047H108.3V278.26H107.2V286.047H100.2V287.16H107.2V294.947H108.3V287.16H115.3V286.047Z" fill="#542CEA" fill-opacity="0.28"/>
<path d="M115.3 341.672H108.3V333.885H107.2V341.672H100.2V342.785H107.2V350.572H108.3V342.785H115.3V341.672Z" fill="#542CEA" fill-opacity="0.28"/>
<path d="M115.3 397.297H108.3V389.51H107.2V397.297H100.2V398.41H107.2V406.197H108.3V398.41H115.3V397.297Z" fill="#542CEA" fill-opacity="0.28"/>
<path d="M115.3 452.922H108.3V445.135H107.2V452.922H100.2V454.035H107.2V461.822H108.3V454.035H115.3V452.922Z" fill="#542CEA" fill-opacity="0.28"/>
<path d="M115.3 508.547H108.3V500.76H107.2V508.547H100.2V509.66H107.2V517.447H108.3V509.66H115.3V508.547Z" fill="#542CEA" fill-opacity="0.28"/>
<path d="M115.3 564.172H108.3V556.385H107.2V564.172H100.2V565.285H107.2V573.072H108.3V565.285H115.3V564.172Z" fill="#542CEA" fill-opacity="0.28"/>
<path d="M115.3 619.797H108.3V612.01H107.2V619.797H100.2V620.91H107.2V628.697H108.3V620.91H115.3V619.797Z" fill="#542CEA" fill-opacity="0.28"/>
<path d="M115.3 675.422H108.3V667.635H107.2V675.422H100.2V676.535H107.2V684.322H108.3V676.535H115.3V675.422Z" fill="#542CEA" fill-opacity="0.28"/>
<path d="M115.3 731.047H108.3V723.26H107.2V731.047H100.2V732.16H107.2V739.947H108.3V732.16H115.3V731.047Z" fill="#542CEA" fill-opacity="0.28"/>
<path d="M115.3 786.672H108.3V778.885H107.2V786.672H100.2V787.785H107.2V795.572H108.3V787.785H115.3V786.672Z" fill="#542CEA" fill-opacity="0.28"/>
<path d="M115.3 842.297H108.3V834.51H107.2V842.297H100.2V843.41H107.2V851.197H108.3V843.41H115.3V842.297Z" fill="#542CEA" fill-opacity="0.28"/>
<path d="M65.3003 7.92227H58.3003V0.134766H57.2002V7.92227H50.2002V9.03477H57.2002V16.8223H58.3003V9.03477H65.3003V7.92227Z" fill="#542CEA" fill-opacity="0.28"/>
<path d="M65.3003 63.5473H58.3003V55.7598H57.2002V63.5473H50.2002V64.6598H57.2002V72.4473H58.3003V64.6598H65.3003V63.5473Z" fill="#542CEA" fill-opacity="0.28"/>
<path d="M65.3003 119.172H58.3003V111.385H57.2002V119.172H50.2002V120.285H57.2002V128.072H58.3003V120.285H65.3003V119.172Z" fill="#542CEA" fill-opacity="0.28"/>
<path d="M65.3003 174.797H58.3003V167.01H57.2002V174.797H50.2002V175.91H57.2002V183.697H58.3003V175.91H65.3003V174.797Z" fill="#542CEA" fill-opacity="0.28"/>
<path d="M65.3003 230.422H58.3003V222.635H57.2002V230.422H50.2002V231.535H57.2002V239.322H58.3003V231.535H65.3003V230.422Z" fill="#542CEA" fill-opacity="0.28"/>
<path d="M65.3003 286.047H58.3003V278.26H57.2002V286.047H50.2002V287.16H57.2002V294.947H58.3003V287.16H65.3003V286.047Z" fill="#542CEA" fill-opacity="0.28"/>
<path d="M65.3003 341.672H58.3003V333.885H57.2002V341.672H50.2002V342.785H57.2002V350.572H58.3003V342.785H65.3003V341.672Z" fill="#542CEA" fill-opacity="0.28"/>
<path d="M65.3003 397.297H58.3003V389.51H57.2002V397.297H50.2002V398.41H57.2002V406.197H58.3003V398.41H65.3003V397.297Z" fill="#542CEA" fill-opacity="0.28"/>
<path d="M65.3003 452.922H58.3003V445.135H57.2002V452.922H50.2002V454.035H57.2002V461.822H58.3003V454.035H65.3003V452.922Z" fill="#542CEA" fill-opacity="0.28"/>
<path d="M65.3003 508.547H58.3003V500.76H57.2002V508.547H50.2002V509.66H57.2002V517.447H58.3003V509.66H65.3003V508.547Z" fill="#542CEA" fill-opacity="0.28"/>
<path d="M65.3003 564.172H58.3003V556.385H57.2002V564.172H50.2002V565.285H57.2002V573.072H58.3003V565.285H65.3003V564.172Z" fill="#542CEA" fill-opacity="0.28"/>
<path d="M65.3003 619.797H58.3003V612.01H57.2002V619.797H50.2002V620.91H57.2002V628.697H58.3003V620.91H65.3003V619.797Z" fill="#542CEA" fill-opacity="0.28"/>
<path d="M65.3003 675.422H58.3003V667.635H57.2002V675.422H50.2002V676.535H57.2002V684.322H58.3003V676.535H65.3003V675.422Z" fill="#542CEA" fill-opacity="0.28"/>
<path d="M65.3003 731.047H58.3003V723.26H57.2002V731.047H50.2002V732.16H57.2002V739.947H58.3003V732.16H65.3003V731.047Z" fill="#542CEA" fill-opacity="0.28"/>
<path d="M65.3003 786.672H58.3003V778.885H57.2002V786.672H50.2002V787.785H57.2002V795.572H58.3003V787.785H65.3003V786.672Z" fill="#542CEA" fill-opacity="0.28"/>
<path d="M65.3003 842.297H58.3003V834.51H57.2002V842.297H50.2002V843.41H57.2002V851.197H58.3003V843.41H65.3003V842.297Z" fill="#542CEA" fill-opacity="0.28"/>
<path d="M15.3003 7.92227H8.30029V0.134766H7.2002V7.92227H0.200195V9.03477H7.2002V16.8223H8.30029V9.03477H15.3003V7.92227Z" fill="#542CEA" fill-opacity="0.28"/>
<path d="M15.3003 63.5473H8.30029V55.7598H7.2002V63.5473H0.200195V64.6598H7.2002V72.4473H8.30029V64.6598H15.3003V63.5473Z" fill="#542CEA" fill-opacity="0.28"/>
<path d="M15.3003 119.172H8.30029V111.385H7.2002V119.172H0.200195V120.285H7.2002V128.072H8.30029V120.285H15.3003V119.172Z" fill="#542CEA" fill-opacity="0.28"/>
<path d="M15.3003 174.797H8.30029V167.01H7.2002V174.797H0.200195V175.91H7.2002V183.697H8.30029V175.91H15.3003V174.797Z" fill="#542CEA" fill-opacity="0.28"/>
<path d="M15.3003 230.422H8.30029V222.635H7.2002V230.422H0.200195V231.535H7.2002V239.322H8.30029V231.535H15.3003V230.422Z" fill="#542CEA" fill-opacity="0.28"/>
<path d="M15.3003 286.047H8.30029V278.26H7.2002V286.047H0.200195V287.16H7.2002V294.947H8.30029V287.16H15.3003V286.047Z" fill="#542CEA" fill-opacity="0.28"/>
<path d="M15.3003 341.672H8.30029V333.885H7.2002V341.672H0.200195V342.785H7.2002V350.572H8.30029V342.785H15.3003V341.672Z" fill="#542CEA" fill-opacity="0.28"/>
<path d="M15.3003 397.297H8.30029V389.51H7.2002V397.297H0.200195V398.41H7.2002V406.197H8.30029V398.41H15.3003V397.297Z" fill="#542CEA" fill-opacity="0.28"/>
<path d="M15.3003 452.922H8.30029V445.135H7.2002V452.922H0.200195V454.035H7.2002V461.822H8.30029V454.035H15.3003V452.922Z" fill="#542CEA" fill-opacity="0.28"/>
<path d="M15.3003 508.547H8.30029V500.76H7.2002V508.547H0.200195V509.66H7.2002V517.447H8.30029V509.66H15.3003V508.547Z" fill="#542CEA" fill-opacity="0.28"/>
<path d="M15.3003 564.172H8.30029V556.385H7.2002V564.172H0.200195V565.285H7.2002V573.072H8.30029V565.285H15.3003V564.172Z" fill="#542CEA" fill-opacity="0.28"/>
<path d="M15.3003 619.797H8.30029V612.01H7.2002V619.797H0.200195V620.91H7.2002V628.697H8.30029V620.91H15.3003V619.797Z" fill="#542CEA" fill-opacity="0.28"/>
<path d="M15.3003 675.422H8.30029V667.635H7.2002V675.422H0.200195V676.535H7.2002V684.322H8.30029V676.535H15.3003V675.422Z" fill="#542CEA" fill-opacity="0.28"/>
<path d="M15.3003 731.047H8.30029V723.26H7.2002V731.047H0.200195V732.16H7.2002V739.947H8.30029V732.16H15.3003V731.047Z" fill="#542CEA" fill-opacity="0.28"/>
<path d="M15.3003 786.672H8.30029V778.885H7.2002V786.672H0.200195V787.785H7.2002V795.572H8.30029V787.785H15.3003V786.672Z" fill="#542CEA" fill-opacity="0.28"/>
<path d="M15.3003 842.297H8.30029V834.51H7.2002V842.297H0.200195V843.41H7.2002V851.197H8.30029V843.41H15.3003V842.297Z" fill="#542CEA" fill-opacity="0.28"/>
</svg>
