<svg width="48" height="48" viewBox="0 0 48 48" fill="none" xmlns="http://www.w3.org/2000/svg">
<circle cx="24" cy="24" r="24" fill="url(#paint0_linear_145_826)"/>
<path d="M35.78 16.9867C35.5133 17.16 35.1334 17.32 34.9734 17.5C34.9133 17.56 34.88 17.6267 34.8934 17.6933V18.38L34.6934 19.0533L34.4934 19.72L34.2733 20.4533L33.82 21.9533L33.38 23.4333L33.0467 24.5467C33.0467 24.72 33.04 24.8933 33.0267 25.06C32.98 25.7 32.8467 26.3133 32.6334 26.8867C32.5067 27.24 32.3533 27.58 32.1667 27.9C32.1 28.0267 32.02 28.1533 31.94 28.2733C31.6733 28.6933 31.3534 29.08 31 29.42C30.7267 29.6933 30.4267 29.9467 30.1 30.16C30.1 30.16 30.1 30.16 30.0933 30.16C30.04 30.2067 29.98 30.2467 29.9133 30.28C29.7067 30.42 29.4867 30.54 29.26 30.6467C29.1067 30.7267 28.9534 30.7933 28.7934 30.8533C28.76 30.8733 28.72 30.8867 28.6867 30.9C28.3067 31.08 27.8667 31.2 27.4267 31.26C27.4 31.2667 27.38 31.2667 27.3534 31.2733C27.0867 31.32 26.8267 31.36 26.56 31.38C26.44 31.3933 26.3134 31.4 26.1934 31.4L25.72 31.3733L23.44 31.2533C23.44 31.2467 23.4333 31.2533 23.4333 31.2533L22.2867 31.1933C22.2 31.1933 22.1067 31.1933 22.02 31.1867C21.66 31.1733 21.3134 31.1333 20.9667 31.06C20.96 31.06 20.96 31.06 20.96 31.06C20.3267 30.94 19.72 30.7267 19.1533 30.44C18.84 30.28 18.5333 30.1 18.2467 29.8933C18.1267 29.8067 18.0134 29.7133 17.9 29.6133C17.58 29.3467 17.2933 29.06 17.0267 28.7667C16.9867 28.7267 16.9533 28.6867 16.92 28.6467C16.88 28.6067 16.84 28.56 16.8067 28.52C16.5533 28.2 16.34 27.8733 16.1667 27.5267C16.0067 27.22 15.88 26.8933 15.78 26.5333C15.74 26.4067 15.7067 26.2867 15.68 26.1533C15.6734 26.1467 15.6667 26.1333 15.6667 26.12C15.6 25.8467 15.54 25.56 15.5067 25.2733C15.4667 25.0533 15.4467 24.8333 15.4467 24.6067C15.4333 24.52 15.4333 24.4267 15.4333 24.34L16.7067 22.3733L17.9534 20.4533L18.52 19.58L19.0333 18.7933L19.2067 18.52V17.8333C19.22 17.68 19.2267 17.52 19.22 17.3733C19.2133 16.9067 19.12 16.4533 18.9667 16.02C18.82 15.56 18.6134 15.1267 18.4 14.7267C18.1467 14.2667 17.88 13.8533 17.66 13.48C17.3333 12.9333 17.1067 12.4867 17.1667 12.1733C17.6467 12.06 18.1533 12 18.6667 12H29.3334C32.12 12 34.52 13.7333 35.5134 16.1733C35.62 16.4333 35.7133 16.7067 35.78 16.9867Z" fill="url(#paint1_linear_145_826)"/>
<path d="M36 18.6667V18.8467L35.08 19.38L34.4934 19.72L33.8467 20.0933L32.5534 20.8467L31.2867 21.58L29.9934 22.3267L29.48 22.6267C29.48 22.9467 29.4 23.24 29.2534 23.5067C29.0467 23.8933 28.7 24.2133 28.26 24.4867C27.8134 24.76 27.2667 24.98 26.6534 25.14C26.6534 25.14 26.6534 25.1333 26.6467 25.14C24.2734 25.7533 21.0334 25.4733 19.46 24.3C19.02 23.9733 18.7134 23.5733 18.58 23.1133C18.54 22.96 18.52 22.7933 18.52 22.6267V17.8333C18.5267 17.7333 18.46 17.6333 18.34 17.5333C17.98 17.2467 17.1334 16.9733 16.1867 16.7C15.4467 16.4933 14.6534 16.2867 13.9867 16.0867C13.46 15.9267 13.0134 15.7667 12.7467 15.6133C12.8667 15.38 13.0067 15.1467 13.1534 14.9267C14.0867 13.56 15.5134 12.5533 17.1667 12.1733C17.6467 12.06 18.1534 12 18.6667 12H25.8667C29.4467 12.6267 32.7467 14.0867 35.5134 16.1733C35.62 16.4333 35.7134 16.7067 35.78 16.9867C35.9 17.4267 35.9734 17.88 35.9934 18.3533C36 18.4533 36 18.56 36 18.6667Z" fill="url(#paint2_linear_145_826)"/>
<path d="M35.9999 18.6667V21.6067L35.8533 22.06L35.3533 23.6134L34.8333 25.2134L34.5599 26.0667L34.3066 26.86L34.0599 27.6134L33.8199 28.36L33.6933 28.7534L33.5266 29.2734C33.5266 29.78 33.5133 30.2267 33.4799 30.6067C33.4733 30.6467 33.4666 30.6867 33.4666 30.7267C33.4266 31.08 33.3733 31.38 33.2866 31.6334C33.2799 31.6734 33.2666 31.7134 33.2533 31.7467C33.0799 32.2267 32.8199 32.5334 32.4333 32.7334C32.3399 32.7867 32.2333 32.8267 32.1199 32.8667C31.7666 32.9867 31.3199 33.0467 30.7733 33.08C30.3733 33.1067 29.9133 33.1134 29.3933 33.1134H28.9333L28.1399 33.08L27.9999 33.0734L26.5533 33.0134L25.0866 32.9534L20.2533 32.7534L18.9999 32.7H18.8266C18.3066 32.6934 17.8599 32.66 17.4733 32.6067C16.9133 32.52 16.4799 32.3734 16.1533 32.1534C15.6866 31.8534 15.4133 31.4134 15.2533 30.8C15.2133 30.6534 15.1799 30.5 15.1599 30.3334C15.0933 29.9467 15.0599 29.5 15.0399 29C15.0399 28.9 15.0399 28.8 15.0333 28.6934C15.0266 28.6867 15.0333 28.6867 15.0333 28.6867V28.3C15.0266 28.1067 15.0266 27.9067 15.0266 27.7L15.0599 26.6267L15.0799 25.86L15.1066 24.9667V24.84L15.1533 23.2L15.1999 21.56L15.2466 20.02L15.2866 18.5067L15.2999 18.1067C15.2999 17.9 14.5999 17.78 13.8199 17.68C13.1999 17.6 12.5199 17.5267 12.1133 17.4334C12.1466 17.28 12.1799 17.1267 12.2199 16.98C12.3399 16.5 12.5199 16.0467 12.7466 15.6134C12.8666 15.38 13.0066 15.1467 13.1533 14.9267C14.5933 14.2934 16.0933 13.8 17.6599 13.48C19.0333 13.1934 20.4666 13.04 21.9466 13.04C26.8533 13.04 31.3866 14.7 34.9733 17.5C35.3199 17.7667 35.6599 18.0534 35.9933 18.3534C35.9999 18.4534 35.9999 18.56 35.9999 18.6667Z" fill="url(#paint3_linear_145_826)"/>
<path d="M36 20.2463V23.2729L35.6333 23.9796L34.9333 25.3463L34.56 26.0663L34.22 26.7262L34.0733 27.0129C34.0733 27.2196 34.0733 27.4196 34.06 27.6129C34.06 27.8996 34.0467 28.1729 34.0267 28.4262C34 28.7262 33.96 28.9996 33.92 29.2529C33.82 29.7796 33.68 30.2329 33.48 30.6063C33.4533 30.6529 33.4267 30.6996 33.4 30.7396C33.3267 30.8596 33.24 30.9729 33.1467 31.0796C33.0267 31.2262 32.8933 31.3529 32.74 31.4596C32.5133 31.6329 32.2467 31.7729 31.94 31.8796C31.56 32.0196 31.12 32.1129 30.6 32.1663C30.26 32.1996 29.8867 32.2196 29.48 32.2196L29.2 32.2329L27.8133 32.3129H27.8067L26.3333 32.3996L24.8333 32.4862L22.7667 32.6063L20.2533 32.7529L19.8867 32.7729C19.5467 32.7729 19.2267 32.7529 18.92 32.7129C18.8867 32.7062 18.86 32.6996 18.8267 32.6996C18.3733 32.6262 17.96 32.5062 17.5867 32.3396C17.1333 32.1396 16.74 31.8729 16.4067 31.5529C16.1133 31.2663 15.86 30.9396 15.6533 30.5729C15.6067 30.4862 15.56 30.4062 15.52 30.3129C15.32 29.9196 15.16 29.4796 15.04 28.9996C15.02 28.9196 15 28.8329 14.9867 28.7463C14.9467 28.5929 14.9133 28.4329 14.8933 28.2663C14.82 27.8396 14.78 27.3863 14.76 26.9129V26.9062C14.7533 26.7129 14.7467 26.5263 14.7467 26.3263L14.42 25.5462L14.3733 25.4262L14.3333 25.3263L13.8333 24.1329L13.7533 23.9396L13.2733 22.7863L12.74 21.4996C12.74 21.4996 12.74 21.4996 12.7333 21.4996L12.1933 20.1996L12 19.7263V18.6663C12 18.2463 12.04 17.8329 12.1133 17.4329C12.1467 17.2796 12.18 17.1263 12.22 16.9796C12.7867 16.6529 13.38 16.3529 13.9867 16.0863C15.3733 15.4663 16.86 15.0063 18.4 14.7263C19.5467 14.5196 20.74 14.4062 21.9467 14.4062C26.82 14.4062 31.24 16.1729 34.6933 19.0529C34.8267 19.1596 34.9533 19.2663 35.08 19.3796C35.3933 19.6529 35.7 19.9396 36 20.2463Z" fill="url(#paint4_linear_145_826)"/>
<path d="M36 22.2336V25.6603L35.62 26.4536L34.9 27.9536L34.8933 27.9736C34.8933 28.2603 34.88 28.5203 34.86 28.7536C34.7933 29.5203 34.6067 30.0069 34.3 30.3069C34.08 30.5336 33.8067 30.6603 33.4667 30.7269C33.4467 30.7336 33.42 30.7336 33.4 30.7403C33.2933 30.7603 33.18 30.7736 33.06 30.7736C32.6467 30.8136 32.16 30.7869 31.6 30.7469C31.54 30.7469 31.4733 30.7403 31.4067 30.7336C31 30.7069 30.5667 30.6803 30.0867 30.6603C29.8267 30.6536 29.5533 30.6469 29.2733 30.6469H29.26L28.5867 30.7003H28.58L27.0667 30.8069L25.34 30.9403L25.0867 30.9603L23.0667 31.1069L22.02 31.1869L20.9867 31.2603C20.8067 31.2603 20.6333 31.2603 20.46 31.2536C20.46 31.2536 20.4533 31.2469 20.4533 31.2536C19.7 31.2403 19.0267 31.1936 18.4267 31.0803C17.8733 30.9869 17.3867 30.8403 16.9733 30.6203C16.5467 30.4136 16.1933 30.1203 15.9067 29.7469C15.6333 29.3803 15.4333 28.9203 15.3067 28.3669C15.3067 28.3603 15.3067 28.3603 15.3067 28.3603C15.2133 27.9136 15.16 27.3936 15.16 26.8069L15.06 26.6269L14.4667 25.5669L14.38 25.4203L14.3333 25.3269L13.7133 24.2269L13.4067 23.6736L13.02 22.9869L12.3533 21.7936L12 21.1669V18.7136C12.5867 18.3269 13.1933 17.9869 13.82 17.6803C14.58 17.2936 15.3667 16.9669 16.1867 16.7003C17.08 16.4069 18.0133 16.1736 18.9667 16.0203C19.9333 15.8603 20.9267 15.7803 21.9467 15.7803C26.48 15.7803 30.64 17.4003 33.8467 20.0936C33.9933 20.2069 34.1333 20.3336 34.2733 20.4536C34.8333 20.9536 35.3667 21.4936 35.8533 22.0603C35.9067 22.1203 35.96 22.1736 36 22.2336Z" fill="url(#paint5_linear_145_826)"/>
<path d="M36 24.4732V29.2932C35.84 29.1998 35.62 29.0865 35.3467 28.9665C35.2 28.8932 35.0333 28.8198 34.86 28.7532C34.6067 28.6398 34.3333 28.5331 34.0267 28.4265C33.96 28.3998 33.8933 28.3798 33.82 28.3598C33.7 28.3132 33.5733 28.2732 33.4467 28.2332C33.0533 28.1132 32.62 27.9998 32.1667 27.8998C31.9933 27.8665 31.8133 27.8332 31.6333 27.8065C31.0533 27.7065 30.4333 27.6465 29.7867 27.6398C29.7333 27.6332 29.6733 27.6332 29.62 27.6332L27.9067 27.6465L25.5733 27.6598H25.5667L20.5733 27.6998C18.9867 27.6998 18.0133 28.0798 17.4267 28.2332C17.4267 28.2332 17.42 28.2332 17.42 28.2398C16.8 28.3998 16.6067 28.2998 16.5533 27.2132C16.54 26.9132 16.5333 26.5265 16.5333 26.0532L16.16 25.7665L15.5067 25.2732L15.1067 24.9665L15.0267 24.9065L13.92 24.0665L13.7533 23.9398L13.4067 23.6732L12.7667 23.1932L12 22.6065V20.3398C12.0667 20.2865 12.1267 20.2398 12.1933 20.1998C13.16 19.5332 14.1933 18.9665 15.2867 18.5065C16.26 18.0932 17.2867 17.7665 18.34 17.5332C18.6267 17.4732 18.92 17.4132 19.22 17.3732C20.1067 17.2198 21.02 17.1465 21.9467 17.1465C25.9533 17.1465 29.6333 18.5398 32.5533 20.8465C32.9933 21.1932 33.42 21.5598 33.82 21.9532C34.3667 22.4732 34.88 23.0265 35.3533 23.6132C35.4467 23.7332 35.54 23.8532 35.6333 23.9798C35.76 24.1398 35.88 24.3065 36 24.4732Z" fill="url(#paint6_linear_145_826)"/>
<path d="M36 27.1462V29.3329C36 29.7662 35.96 30.1929 35.88 30.6062C35.76 31.2195 35.5533 31.8062 35.2733 32.3529C35.1267 32.3862 34.96 32.3862 34.7733 32.3595C34.3533 32.2862 33.86 32.0662 33.3267 31.7795C33.3 31.7729 33.2733 31.7595 33.2533 31.7462C33.0867 31.6595 32.9133 31.5662 32.74 31.4595C32.3867 31.2662 32.0133 31.0529 31.64 30.8529C31.56 30.8129 31.48 30.7729 31.4067 30.7329C30.98 30.5129 30.54 30.3129 30.1 30.1595C30.1 30.1595 30.1 30.1595 30.0933 30.1595C30 30.1262 29.9 30.0929 29.8 30.0662C29.42 29.9595 29.0333 29.8929 28.66 29.8929L27.9267 29.6795L24.68 28.7395C24.68 28.7395 24.68 28.7395 24.6733 28.7395L22.68 28.1595H22.6733L21.8067 27.9062C19.3 27.9062 17.76 28.9729 17.0133 28.5662C16.72 28.4129 16.5467 28.0262 16.4867 27.2662C16.4667 27.0529 16.46 26.8129 16.46 26.5329L15.68 26.1529L15.6467 26.1395H15.64L15.08 25.8595L14.4667 25.5662L14.42 25.5462L14.3067 25.4862L13 24.8529L12 24.3662V22.0795C12.1133 21.9795 12.2333 21.8862 12.3533 21.7929C12.48 21.6929 12.6067 21.5995 12.7333 21.4995C12.74 21.4995 12.74 21.4995 12.74 21.4995C13.5267 20.9329 14.36 20.4329 15.2467 20.0195C16.28 19.5262 17.38 19.1462 18.52 18.8995C18.6867 18.8595 18.86 18.8195 19.0333 18.7929C19.98 18.6129 20.9533 18.5195 21.9467 18.5195C25.46 18.5195 28.6867 19.6595 31.2867 21.5795C32.04 22.1395 32.74 22.7595 33.38 23.4329C33.9067 23.9862 34.3933 24.5862 34.8333 25.2129C34.8667 25.2595 34.9 25.3062 34.9333 25.3462C35.18 25.7062 35.4067 26.0729 35.62 26.4529C35.76 26.6795 35.88 26.9129 36 27.1462Z" fill="url(#paint7_linear_145_826)"/>
<path d="M35.88 30.6067C35.76 31.2201 35.5533 31.8067 35.2733 32.3534C35.1467 32.6001 35.0067 32.8334 34.8533 33.0601C34.76 33.2001 34.66 33.3334 34.56 33.4601C34.32 33.3667 33.9667 33.2334 33.5333 33.0867C33.5333 33.0867 33.5333 33.0867 33.5333 33.0801C33.2067 32.9667 32.8333 32.8467 32.4333 32.7334C32.32 32.7001 32.2067 32.6667 32.0867 32.6334C31.6133 32.5067 31.12 32.3934 30.64 32.3267C30.24 32.2601 29.8467 32.2201 29.48 32.2201L29.1733 32.1334H29.1667L27.5533 31.6667L26.56 31.3801L25.4533 31.0601H25.4467L25.0867 30.9601L20.7333 29.7067L19.48 29.3467L18.5467 29.1267L17.0267 28.7667L16.84 28.7201C16.84 28.7201 16.84 28.7201 16.8333 28.7201L15.3067 28.3667C15.3067 28.3601 15.3067 28.3601 15.3067 28.3601L15.0333 28.3001L14.8933 28.2667L13.78 28.0067L13.6533 27.9734L12.7067 27.1934L12 26.6001V23.8801C12.2467 23.6401 12.5 23.4134 12.7667 23.1934C12.8467 23.1201 12.9333 23.0534 13.02 22.9867C13.1 22.9201 13.1867 22.8534 13.2733 22.7867C13.88 22.3267 14.52 21.9134 15.2 21.5601C16.0667 21.0934 16.9867 20.7201 17.9533 20.4534C18.14 20.3934 18.3267 20.3401 18.52 20.3001C19.6133 20.0267 20.76 19.8867 21.9467 19.8867C24.9267 19.8867 27.7 20.7867 29.9933 22.3267C31.1333 23.0934 32.16 24.0134 33.0267 25.0601C33.4667 25.5867 33.8667 26.1401 34.22 26.7267C34.2533 26.7734 34.28 26.8134 34.3067 26.8601C34.52 27.2134 34.72 27.5801 34.9 27.9534C35.0667 28.2867 35.2133 28.6201 35.3467 28.9667C35.56 29.5001 35.7333 30.0467 35.88 30.6067Z" fill="url(#paint8_linear_145_826)"/>
<path d="M34.8533 33.0598C34.76 33.1998 34.66 33.3331 34.56 33.4598C34.2667 33.8264 33.9467 34.1598 33.5867 34.4531C33.2733 34.7131 32.94 34.9464 32.5867 35.1464C32.4533 35.1131 32.32 35.0731 32.18 35.0198C31.74 34.8664 31.28 34.6131 30.8533 34.3464C30.2133 33.9398 29.66 33.4998 29.4133 33.2998C29.32 33.2198 29.2733 33.1798 29.2733 33.1798L28.14 33.0798L28 33.0664L26.5333 32.9398L25.0133 32.8064L22.7667 32.6064L19.2067 32.2931L19.1933 32.2864L17.94 31.6798L16.6733 31.0664L15.6533 30.5731L15.4333 30.4664L15.16 30.3331L14.2133 29.8731L12.9533 29.2664L12.56 29.0731L12 28.8998V25.9198C12.3133 25.5464 12.6467 25.1931 13 24.8531C13.2267 24.6398 13.4667 24.4264 13.7133 24.2264C13.7533 24.1931 13.7933 24.1598 13.8333 24.1331C13.86 24.0998 13.8933 24.0798 13.92 24.0664C14.3133 23.7464 14.7267 23.4598 15.1533 23.1998C15.6467 22.8864 16.1667 22.6064 16.7067 22.3731C17.2867 22.1131 17.8933 21.8931 18.52 21.7264C19.6067 21.4198 20.76 21.2598 21.9467 21.2598C24.6667 21.2598 27.18 22.0864 29.2533 23.5064C30.58 24.4131 31.7267 25.5598 32.6333 26.8864C32.9333 27.3131 33.2 27.7664 33.4467 28.2331C33.5333 28.4064 33.62 28.5798 33.6933 28.7531C33.7733 28.9198 33.8467 29.0864 33.92 29.2531C34.06 29.5998 34.1867 29.9464 34.3 30.3064C34.5133 30.9731 34.6733 31.6531 34.7733 32.3598C34.8067 32.5931 34.8333 32.8264 34.8533 33.0598Z" fill="url(#paint9_linear_145_826)"/>
<path d="M33.5933 34.2803C33.5933 34.3336 33.5933 34.3936 33.5867 34.4536C33.2733 34.7136 32.94 34.947 32.5867 35.147C32.44 35.227 32.2933 35.307 32.14 35.3736C31.9867 35.447 31.8333 35.5136 31.6733 35.5736C31.4467 35.4536 31.14 35.307 30.8133 35.167C30.3533 34.9603 29.8533 34.7736 29.4667 34.7136C29.3733 34.6936 29.2867 34.687 29.2067 34.687L28.1133 34.547H28.1L26.74 34.367L25.3667 34.187L24.7267 34.107L19.6867 33.4536C19.36 33.4536 19.0133 33.4336 18.6533 33.387C18.2133 33.347 17.7533 33.2803 17.2933 33.187C16.84 33.107 16.38 33.0003 15.94 32.887C15.48 32.7803 15.0267 32.6536 14.6067 32.5336C14.12 32.387 13.6667 32.247 13.2867 32.1203C12.9733 32.0203 12.7067 31.927 12.5 31.8536C12.38 31.567 12.28 31.267 12.2067 30.9603C12.0667 30.4403 12 29.8936 12 29.3336V28.2203C12.2133 27.867 12.4467 27.5203 12.7067 27.1936C13.18 26.567 13.72 25.9936 14.3067 25.487C14.3267 25.4603 14.3533 25.4403 14.3733 25.427L14.38 25.4203C14.5867 25.2336 14.8 25.067 15.0267 24.907C15.0533 24.8803 15.08 24.8603 15.1067 24.8403C15.2133 24.7603 15.3267 24.6803 15.4467 24.607C16.4 23.9603 17.4533 23.4536 18.58 23.1136C19.6467 22.7936 20.7733 22.627 21.9467 22.627C24.2733 22.627 26.4467 23.3136 28.26 24.487C29.6 25.347 30.7533 26.4803 31.6333 27.807C31.74 27.9603 31.84 28.1136 31.94 28.2736C32.4 29.0536 32.78 29.8936 33.06 30.7736C33.0933 30.8736 33.12 30.9736 33.1467 31.0803C33.2 31.2603 33.2467 31.447 33.2867 31.6336C33.3 31.6803 33.3133 31.727 33.3267 31.7803C33.42 32.2003 33.4867 32.6403 33.5333 33.0803C33.5333 33.087 33.5333 33.087 33.5333 33.087C33.5733 33.4803 33.5933 33.8803 33.5933 34.2803Z" fill="url(#paint10_linear_145_826)"/>
<path d="M32.22 34.28C32.22 34.5133 32.2067 34.7667 32.18 35.02C32.1667 35.14 32.1533 35.26 32.14 35.3733C31.9867 35.4467 31.8333 35.5133 31.6733 35.5733C31.3733 35.6867 31.0667 35.78 30.7533 35.8467C30.54 35.8933 30.32 35.9333 30.1 35.9533H30.0933C29.8867 35.8267 29.6467 35.6733 29.4 35.5C28.9533 35.1867 28.4867 34.8333 28.1133 34.5467C28.1067 34.54 28.1067 34.54 28.1 34.5333C27.7067 34.2333 27.4267 34.0067 27.4267 34.0067L26.72 34.0333L25.36 34.08L24.7267 34.1067L22.18 34.2L20.0267 34.28C19.8867 34.2867 19.72 34.2867 19.5133 34.28H19.5067C19.2267 34.2733 18.8933 34.2533 18.5267 34.22C18.1 34.1867 17.6333 34.1467 17.16 34.1C16.7 34.0467 16.2333 33.9933 15.7867 33.94C15.2933 33.8867 14.8267 33.8267 14.4267 33.7733C14.1133 33.7333 13.84 33.7 13.62 33.6733C13.4333 33.46 13.2667 33.24 13.1067 33C12.8667 32.64 12.66 32.26 12.5 31.8533C12.38 31.5667 12.28 31.2667 12.2067 30.96C12.4 30.3667 12.6533 29.8067 12.9533 29.2667C13.1933 28.8267 13.4733 28.4067 13.78 28.0067C14.08 27.6133 14.4067 27.2467 14.76 26.9133V26.9067C14.86 26.8067 14.96 26.7133 15.06 26.6267C15.2467 26.4533 15.44 26.2933 15.64 26.14H15.6467C15.6533 26.1267 15.66 26.1267 15.6667 26.12C15.8267 25.9933 15.9933 25.88 16.16 25.7667C17.1467 25.0933 18.26 24.5933 19.46 24.3C20.2533 24.1067 21.0867 24 21.9467 24C23.64 24 25.24 24.4067 26.6467 25.14H26.6533C27.86 25.76 28.9267 26.6133 29.7867 27.64C30.26 28.1867 30.6667 28.7867 31 29.42C31.2333 29.8467 31.4333 30.2933 31.6 30.7467C31.6133 30.7867 31.6267 30.82 31.64 30.8533C31.7533 31.1867 31.8533 31.5333 31.94 31.88C32 32.1267 32.0467 32.38 32.0867 32.6333C32.1 32.7133 32.1133 32.7867 32.12 32.8667C32.1867 33.3267 32.22 33.8 32.22 34.28Z" fill="url(#paint11_linear_145_826)"/>
<path d="M30.8534 34.2797V34.3464C30.8534 34.573 30.8334 34.8597 30.8134 35.1664C30.7934 35.393 30.7734 35.6264 30.7534 35.8464C30.54 35.893 30.32 35.933 30.1 35.953H30.0934C29.84 35.9864 29.5934 35.9997 29.3334 35.9997H28.1667L27.9134 35.9264L26.6 35.5264L25.2667 35.1264L22.18 34.1997L20.8467 33.7997C20.8467 33.7997 20.2934 34.0197 19.5134 34.2797H19.5067C19.2067 34.3797 18.88 34.4864 18.5334 34.593C18.1 34.7197 17.64 34.8464 17.1867 34.9464C16.72 35.053 16.26 35.133 15.8467 35.1664C15.72 35.1797 15.5934 35.1864 15.48 35.1864C15.1067 34.9797 14.7467 34.733 14.42 34.4597C14.1334 34.2197 13.8667 33.9597 13.62 33.673C13.4334 33.4597 13.2667 33.2397 13.1067 32.9997C13.1534 32.6997 13.2067 32.4064 13.2867 32.1197C13.4867 31.3264 13.8 30.5664 14.2134 29.873C14.44 29.4797 14.6934 29.0997 14.9867 28.7464C14.9934 28.7264 15.0134 28.7064 15.0334 28.693C15.0267 28.6864 15.0334 28.6864 15.0334 28.6864C15.12 28.573 15.2134 28.4664 15.3067 28.3664C15.3067 28.3597 15.3067 28.3597 15.3067 28.3597C15.58 28.0664 15.86 27.7864 16.1667 27.5264C16.2734 27.4397 16.3734 27.353 16.4867 27.2664C16.5067 27.2464 16.5267 27.233 16.5534 27.213C18.0534 26.0664 19.9267 25.373 21.9467 25.373C24.24 25.373 26.3267 26.233 27.9067 27.6464C28.6667 28.333 29.3134 29.153 29.8 30.0664C29.84 30.133 29.88 30.2064 29.9134 30.2797C29.9734 30.3997 30.0334 30.5264 30.0867 30.6597C30.3067 31.1397 30.48 31.6464 30.6 32.1664C30.6134 32.2197 30.6267 32.273 30.64 32.3264C30.6934 32.573 30.74 32.8264 30.7734 33.0797C30.8267 33.473 30.8534 33.873 30.8534 34.2797Z" fill="url(#paint12_linear_145_826)"/>
<path d="M29.4799 34.2802C29.4799 34.4136 29.4733 34.5602 29.4666 34.7136C29.4533 34.9602 29.4333 35.2269 29.3999 35.5002C29.3866 35.6669 29.3599 35.8336 29.3333 36.0002H25.6799L24.9733 35.8869L22.2133 35.4469L21.8199 35.3869L20.9199 35.2402C20.5266 35.2402 19.6733 35.4136 18.7733 35.5802C18.2999 35.6669 17.8199 35.7602 17.3866 35.8202C17.3333 35.8269 17.28 35.8336 17.2333 35.8402H17.2266C16.7599 35.7402 16.3066 35.5869 15.8799 35.3869C15.7466 35.3269 15.6133 35.2602 15.4799 35.1869C15.1066 34.9802 14.7466 34.7336 14.4199 34.4602C14.4133 34.3802 14.4066 34.3136 14.4066 34.2802C14.4066 34.1069 14.4133 33.9402 14.4266 33.7736C14.4533 33.3469 14.5133 32.9336 14.6066 32.5336C14.7533 31.9269 14.9666 31.3402 15.2533 30.8002C15.3066 30.6869 15.3666 30.5736 15.4333 30.4669C15.4599 30.4136 15.4933 30.3669 15.5199 30.3136C15.6399 30.1202 15.7733 29.9336 15.9066 29.7469C16.1866 29.3802 16.4999 29.0336 16.8333 28.7202C16.8399 28.7202 16.84 28.7202 16.84 28.7202C16.8666 28.6936 16.8933 28.6669 16.92 28.6469C16.9533 28.6202 16.98 28.5869 17.0133 28.5669C17.1466 28.4469 17.2799 28.3402 17.42 28.2402C17.42 28.2336 17.4266 28.2336 17.4266 28.2336C18.6866 27.2936 20.2466 26.7402 21.9466 26.7402C23.2666 26.7402 24.4933 27.0736 25.5666 27.6602H25.5733C26.4933 28.1669 27.2933 28.8536 27.9266 29.6802C28.1733 30.0002 28.3933 30.3402 28.58 30.7002H28.5866C28.62 30.7669 28.6533 30.8336 28.6866 30.9002C28.8866 31.2936 29.0466 31.7069 29.1666 32.1336H29.1733C29.18 32.1669 29.1933 32.2002 29.1999 32.2336C29.2799 32.5202 29.3466 32.8136 29.3933 33.1136C29.4 33.1736 29.4066 33.2402 29.4133 33.3002C29.4599 33.6202 29.4799 33.9469 29.4799 34.2802Z" fill="url(#paint13_linear_145_826)"/>
<path d="M28.1134 34.2066C28.1134 34.3133 28.1134 34.4266 28.1 34.5333V34.5399C28.1 34.5466 28.1 34.5466 28.1 34.5466C28.0867 35.0266 28.02 35.4999 27.9134 35.9266C27.9134 35.9533 27.9067 35.9733 27.8934 35.9999H24.78L22.2134 35.4466L21.8734 35.3733L21.82 35.3866L18.9734 35.9733L18.8467 35.9999H18.6667C18.24 35.9999 17.82 35.9599 17.4134 35.8799C17.3534 35.8666 17.2934 35.8533 17.2334 35.8399H17.2267C16.76 35.7399 16.3067 35.5866 15.88 35.3866C15.8667 35.3133 15.8534 35.2399 15.8467 35.1666C15.8 34.8799 15.78 34.5799 15.78 34.2799C15.78 34.1666 15.78 34.0533 15.7867 33.9399C15.8067 33.5799 15.86 33.2266 15.94 32.8866C15.9934 32.6333 16.0667 32.3866 16.1534 32.1533C16.2267 31.9466 16.3134 31.7466 16.4067 31.5533C16.4867 31.3866 16.58 31.2266 16.6734 31.0666C16.7667 30.9133 16.8667 30.7666 16.9734 30.6199C17.24 30.2533 17.5534 29.9133 17.9 29.6133C18.1 29.4399 18.32 29.2733 18.5467 29.1266C19.52 28.4866 20.6867 28.1133 21.9467 28.1133C22.1934 28.1133 22.4334 28.1266 22.6667 28.1599H22.68C23.3934 28.2399 24.06 28.4399 24.6734 28.7399C24.68 28.7399 24.68 28.7399 24.68 28.7399C25.6467 29.2133 26.4667 29.9266 27.0667 30.8066C27.1667 30.9533 27.2667 31.1133 27.3534 31.2733C27.4267 31.3999 27.4934 31.5333 27.5534 31.6666C27.6467 31.8733 27.7334 32.0933 27.8067 32.3133H27.8134C27.8867 32.5599 27.9534 32.8066 28 33.0666V33.0733C28.0734 33.4399 28.1134 33.8199 28.1134 34.2066Z" fill="url(#paint14_linear_145_826)"/>
<path d="M26.7399 34.3469V34.3669C26.7399 34.7602 26.6933 35.1469 26.5999 35.5269C26.5666 35.6869 26.5199 35.8469 26.4599 36.0002H23.4733L21.9466 35.5802L20.4199 36.0002H18.6666C18.2399 36.0002 17.8199 35.9602 17.4133 35.8802C17.3999 35.8602 17.3933 35.8402 17.3866 35.8202C17.2933 35.5335 17.2199 35.2469 17.1866 34.9469C17.1599 34.7535 17.1466 34.5535 17.1466 34.3469C17.1466 34.2669 17.1466 34.1802 17.1599 34.1002C17.1666 33.7869 17.2133 33.4802 17.2933 33.1869C17.3333 32.9869 17.3933 32.7935 17.4733 32.6069C17.4999 32.5135 17.5399 32.4269 17.5866 32.3402C17.6866 32.1135 17.8066 31.8935 17.9399 31.6802C18.0866 31.4669 18.2466 31.2669 18.4266 31.0802C18.6399 30.8402 18.8799 30.6202 19.1533 30.4402C19.6199 30.1002 20.1533 29.8469 20.7333 29.7069C21.1199 29.6002 21.5266 29.5469 21.9466 29.5469C23.2799 29.5469 24.4733 30.0802 25.3399 30.9402C25.3733 30.9735 25.4133 31.0135 25.4466 31.0602H25.4533C25.5466 31.1602 25.6333 31.2602 25.7199 31.3735C25.9666 31.6869 26.1733 32.0269 26.3333 32.4002C26.4133 32.5735 26.4799 32.7535 26.5333 32.9402C26.5399 32.9669 26.5466 32.9869 26.5533 33.0135C26.6466 33.3402 26.7066 33.6802 26.7199 34.0335C26.7333 34.1335 26.7399 34.2402 26.7399 34.3469Z" fill="url(#paint15_linear_145_826)"/>
<path d="M25.3734 34.3466C25.3734 34.6199 25.34 34.8799 25.2667 35.1266C25.2 35.3933 25.1 35.6466 24.9734 35.8866C24.9534 35.9266 24.9067 35.9999 24.9067 35.9999H18.9867C18.98 35.9933 18.9734 35.9799 18.9734 35.9733C18.8934 35.8466 18.8267 35.7199 18.7734 35.5799C18.64 35.2733 18.56 34.9399 18.5334 34.5933C18.52 34.5133 18.52 34.4266 18.52 34.3466C18.52 34.3066 18.52 34.2599 18.5267 34.2199C18.5334 33.9266 18.5734 33.6466 18.6534 33.3866C18.72 33.1466 18.8067 32.9266 18.92 32.7133C18.92 32.7133 18.9267 32.7066 18.9267 32.6999C19.0067 32.5599 19.0934 32.4199 19.1934 32.2866C19.52 31.8466 19.9534 31.4866 20.4534 31.2533C20.46 31.2533 20.46 31.2533 20.46 31.2533C20.62 31.1733 20.7867 31.1066 20.96 31.0599C20.96 31.0599 20.96 31.0599 20.9667 31.0599C21.2734 30.9666 21.6067 30.9199 21.9467 30.9199C22.34 30.9199 22.72 30.9799 23.0667 31.1066C23.1934 31.1399 23.3134 31.1933 23.4334 31.2533C23.4334 31.2533 23.4334 31.2533 23.44 31.2533C24.0134 31.5266 24.5 31.9533 24.8334 32.4866C24.9 32.5866 24.96 32.6933 25.0134 32.8066C25.04 32.8533 25.0667 32.9066 25.0867 32.9533C25.24 33.2999 25.3334 33.6799 25.36 34.0799C25.3667 34.1133 25.3667 34.1466 25.3667 34.1866C25.3734 34.2399 25.3734 34.2933 25.3734 34.3466Z" fill="url(#paint16_linear_145_826)"/>
<path d="M28 15.333H20C17.4 15.333 15.3334 17.3997 15.3334 19.9997V27.9997C15.3334 30.5997 17.4 32.6663 20 32.6663H28C30.6 32.6663 32.6667 30.5997 32.6667 27.9997V19.9997C32.6667 17.3997 30.6 15.333 28 15.333Z" stroke="white" stroke-width="2" stroke-miterlimit="10" stroke-linecap="round" stroke-linejoin="round"/>
<path d="M28.6667 19.3331C29.0349 19.3331 29.3334 19.0346 29.3334 18.6664C29.3334 18.2982 29.0349 17.9998 28.6667 17.9998C28.2985 17.9998 28.0001 18.2982 28.0001 18.6664C28.0001 19.0346 28.2985 19.3331 28.6667 19.3331Z" fill="white"/>
<path d="M24 28C26.2091 28 28 26.2091 28 24C28 21.7909 26.2091 20 24 20C21.7909 20 20 21.7909 20 24C20 26.2091 21.7909 28 24 28Z" stroke="white" stroke-width="2" stroke-miterlimit="10" stroke-linecap="round" stroke-linejoin="round"/>
<defs>
<linearGradient id="paint0_linear_145_826" x1="-3.23316" y1="10.5205" x2="58.3738" y2="32.8007" gradientUnits="userSpaceOnUse">
<stop offset="0.00800497" stop-color="#38DBFF"/>
<stop offset="1" stop-color="#243AFF"/>
</linearGradient>
<linearGradient id="paint1_linear_145_826" x1="14.0628" y1="16.2521" x2="39.8788" y2="26.044" gradientUnits="userSpaceOnUse">
<stop offset="0.00800497" stop-color="#38DBFF"/>
<stop offset="1" stop-color="#243AFF"/>
</linearGradient>
<linearGradient id="paint2_linear_145_826" x1="11.1804" y1="14.9492" x2="35.4496" y2="30.1169" gradientUnits="userSpaceOnUse">
<stop offset="0.00800497" stop-color="#38DBFF"/>
<stop offset="1" stop-color="#243AFF"/>
</linearGradient>
<linearGradient id="paint3_linear_145_826" x1="10.5043" y1="17.4397" x2="39.7549" y2="30.0277" gradientUnits="userSpaceOnUse">
<stop offset="0.00800497" stop-color="#38DBFF"/>
<stop offset="1" stop-color="#243AFF"/>
</linearGradient>
<linearGradient id="paint4_linear_145_826" x1="10.3834" y1="18.4318" x2="38.8569" y2="31.8876" gradientUnits="userSpaceOnUse">
<stop offset="0.00800497" stop-color="#38DBFF"/>
<stop offset="1" stop-color="#243AFF"/>
</linearGradient>
<linearGradient id="paint5_linear_145_826" x1="10.3834" y1="19.1731" x2="36.8843" y2="34.0321" gradientUnits="userSpaceOnUse">
<stop offset="0.00800497" stop-color="#38DBFF"/>
<stop offset="1" stop-color="#243AFF"/>
</linearGradient>
<linearGradient id="paint6_linear_145_826" x1="10.3834" y1="19.8088" x2="33.442" y2="36.2856" gradientUnits="userSpaceOnUse">
<stop offset="0.00800497" stop-color="#38DBFF"/>
<stop offset="1" stop-color="#243AFF"/>
</linearGradient>
<linearGradient id="paint7_linear_145_826" x1="10.3834" y1="21.5572" x2="35.4028" y2="37.226" gradientUnits="userSpaceOnUse">
<stop offset="0.00800497" stop-color="#38DBFF"/>
<stop offset="1" stop-color="#243AFF"/>
</linearGradient>
<linearGradient id="paint8_linear_145_826" x1="10.3915" y1="22.8617" x2="35.0622" y2="38.5587" gradientUnits="userSpaceOnUse">
<stop offset="0.00800497" stop-color="#38DBFF"/>
<stop offset="1" stop-color="#243AFF"/>
</linearGradient>
<linearGradient id="paint9_linear_145_826" x1="10.4607" y1="24.3034" x2="34.953" y2="38.8804" gradientUnits="userSpaceOnUse">
<stop offset="0.00800497" stop-color="#38DBFF"/>
<stop offset="1" stop-color="#243AFF"/>
</linearGradient>
<linearGradient id="paint10_linear_145_826" x1="10.5455" y1="25.4646" x2="33.5245" y2="39.3251" gradientUnits="userSpaceOnUse">
<stop offset="0.00800497" stop-color="#38DBFF"/>
<stop offset="1" stop-color="#243AFF"/>
</linearGradient>
<linearGradient id="paint11_linear_145_826" x1="10.8586" y1="26.6199" x2="32.1125" y2="39.4892" gradientUnits="userSpaceOnUse">
<stop offset="0.00800497" stop-color="#38DBFF"/>
<stop offset="1" stop-color="#243AFF"/>
</linearGradient>
<linearGradient id="paint12_linear_145_826" x1="11.9113" y1="27.7022" x2="30.7838" y2="39.1004" gradientUnits="userSpaceOnUse">
<stop offset="0.00800497" stop-color="#38DBFF"/>
<stop offset="1" stop-color="#243AFF"/>
</linearGradient>
<linearGradient id="paint13_linear_145_826" x1="13.3913" y1="28.7698" x2="29.6377" y2="38.3339" gradientUnits="userSpaceOnUse">
<stop offset="0.00800497" stop-color="#38DBFF"/>
<stop offset="1" stop-color="#243AFF"/>
</linearGradient>
<linearGradient id="paint14_linear_145_826" x1="14.9493" y1="29.8419" x2="28.5114" y2="37.512" gradientUnits="userSpaceOnUse">
<stop offset="0.00800497" stop-color="#38DBFF"/>
<stop offset="1" stop-color="#243AFF"/>
</linearGradient>
<linearGradient id="paint15_linear_145_826" x1="16.5004" y1="30.9613" x2="27.3017" y2="36.7683" gradientUnits="userSpaceOnUse">
<stop offset="0.00800497" stop-color="#38DBFF"/>
<stop offset="1" stop-color="#243AFF"/>
</linearGradient>
<linearGradient id="paint16_linear_145_826" x1="18.0584" y1="32.0333" x2="26.0925" y2="35.9531" gradientUnits="userSpaceOnUse">
<stop offset="0.00800497" stop-color="#38DBFF"/>
<stop offset="1" stop-color="#243AFF"/>
</linearGradient>
</defs>
</svg>
