<svg width="33" height="32" viewBox="0 0 33 32" fill="none" xmlns="http://www.w3.org/2000/svg">
<path d="M27.98 8.98667C27.7133 9.16 27.3333 9.32 27.1733 9.5C27.1133 9.56 27.08 9.62667 27.0933 9.69333V10.38L26.8933 11.0533L26.6933 11.72L26.4733 12.4533L26.02 13.9533L25.58 15.4333L25.2467 16.5467C25.2467 16.72 25.24 16.8933 25.2267 17.06C25.18 17.7 25.0467 18.3133 24.8333 18.8867C24.7067 19.24 24.5533 19.58 24.3667 19.9C24.3 20.0267 24.22 20.1533 24.14 20.2733C23.8733 20.6933 23.5533 21.08 23.2 21.42C22.9267 21.6933 22.6267 21.9467 22.3 22.16C22.3 22.16 22.3 22.16 22.2933 22.16C22.24 22.2067 22.18 22.2467 22.1133 22.28C21.9067 22.42 21.6867 22.54 21.46 22.6467C21.3067 22.7267 21.1533 22.7933 20.9933 22.8533C20.96 22.8733 20.92 22.8867 20.8867 22.9C20.5067 23.08 20.0667 23.2 19.6267 23.26C19.6 23.2667 19.58 23.2667 19.5533 23.2733C19.2867 23.32 19.0267 23.36 18.76 23.38C18.64 23.3933 18.5133 23.4 18.3933 23.4L17.92 23.3733L15.64 23.2533C15.64 23.2467 15.6333 23.2533 15.6333 23.2533L14.4867 23.1933C14.4 23.1933 14.3067 23.1933 14.22 23.1867C13.86 23.1733 13.5133 23.1333 13.1667 23.06C13.16 23.06 13.16 23.06 13.16 23.06C12.5267 22.94 11.92 22.7267 11.3533 22.44C11.04 22.28 10.7333 22.1 10.4467 21.8933C10.3267 21.8067 10.2133 21.7133 10.1 21.6133C9.78 21.3467 9.49333 21.06 9.22666 20.7667C9.18666 20.7267 9.15333 20.6867 9.12 20.6467C9.08 20.6067 9.04 20.56 9.00666 20.52C8.75333 20.2 8.54 19.8733 8.36666 19.5267C8.20666 19.22 8.08 18.8933 7.98 18.5333C7.94 18.4067 7.90667 18.2867 7.88 18.1533C7.87333 18.1467 7.86666 18.1333 7.86666 18.12C7.8 17.8467 7.74 17.56 7.70667 17.2733C7.66667 17.0533 7.64666 16.8333 7.64666 16.6067C7.63333 16.52 7.63333 16.4267 7.63333 16.34L8.90667 14.3733L10.1533 12.4533L10.72 11.58L11.2333 10.7933L11.4067 10.52V9.83333C11.42 9.68 11.4267 9.52 11.42 9.37333C11.4133 8.90667 11.32 8.45333 11.1667 8.02C11.02 7.56 10.8133 7.12667 10.6 6.72667C10.3467 6.26667 10.08 5.85333 9.86 5.48C9.53333 4.93333 9.30666 4.48667 9.36666 4.17333C9.84666 4.06 10.3533 4 10.8667 4H21.5333C24.32 4 26.72 5.73333 27.7133 8.17333C27.82 8.43333 27.9133 8.70667 27.98 8.98667Z" fill="#949494"/>
<path d="M28.2 10.6667V10.8467L27.28 11.38L26.6934 11.72L26.0467 12.0933L24.7534 12.8467L23.4867 13.58L22.1934 14.3267L21.68 14.6267C21.68 14.9467 21.6 15.24 21.4534 15.5067C21.2467 15.8933 20.9 16.2133 20.46 16.4867C20.0134 16.76 19.4667 16.98 18.8534 17.14C18.8534 17.14 18.8534 17.1333 18.8467 17.14C16.4734 17.7533 13.2334 17.4733 11.66 16.3C11.22 15.9733 10.9134 15.5733 10.78 15.1133C10.74 14.96 10.72 14.7933 10.72 14.6267V9.83333C10.7267 9.73333 10.66 9.63333 10.54 9.53333C10.18 9.24667 9.33335 8.97333 8.38669 8.7C7.64669 8.49333 6.85335 8.28667 6.18669 8.08667C5.66002 7.92667 5.21335 7.76667 4.94669 7.61333C5.06669 7.38 5.20669 7.14667 5.35335 6.92667C6.28669 5.56 7.71335 4.55333 9.36669 4.17333C9.84669 4.06 10.3534 4 10.8667 4H18.0667C21.6467 4.62667 24.9467 6.08667 27.7134 8.17333C27.82 8.43333 27.9134 8.70667 27.98 8.98667C28.1 9.42667 28.1734 9.88 28.1934 10.3533C28.2 10.4533 28.2 10.56 28.2 10.6667Z" fill="#949494"/>
<path d="M28.2 10.6667V13.6067L28.0534 14.06L27.5534 15.6133L27.0334 17.2133L26.76 18.0667L26.5067 18.86L26.26 19.6133L26.02 20.36L25.8934 20.7533L25.7267 21.2733C25.7267 21.78 25.7134 22.2267 25.68 22.6067C25.6734 22.6467 25.6667 22.6867 25.6667 22.7267C25.6267 23.08 25.5734 23.38 25.4867 23.6333C25.48 23.6733 25.4667 23.7133 25.4534 23.7467C25.28 24.2267 25.02 24.5333 24.6334 24.7333C24.54 24.7867 24.4334 24.8267 24.32 24.8667C23.9667 24.9867 23.52 25.0467 22.9734 25.08C22.5734 25.1067 22.1134 25.1133 21.5934 25.1133H21.1334L20.34 25.08L20.2 25.0733L18.7534 25.0133L17.2867 24.9533L12.4534 24.7533L11.2 24.7H11.0267C10.5067 24.6933 10.06 24.66 9.67335 24.6067C9.11335 24.52 8.68002 24.3733 8.35335 24.1533C7.88669 23.8533 7.61335 23.4133 7.45335 22.8C7.41335 22.6533 7.38002 22.5 7.36002 22.3333C7.29335 21.9467 7.26002 21.5 7.24002 21C7.24002 20.9 7.24002 20.8 7.23335 20.6933C7.22669 20.6867 7.23335 20.6867 7.23335 20.6867V20.3C7.22669 20.1067 7.22669 19.9067 7.22669 19.7L7.26002 18.6267L7.28002 17.86L7.30669 16.9667V16.84L7.35335 15.2L7.40002 13.56L7.44669 12.02L7.48669 10.5067L7.50002 10.1067C7.50002 9.9 6.80002 9.78 6.02002 9.68C5.40002 9.6 4.72002 9.52667 4.31335 9.43333C4.34669 9.28 4.38002 9.12667 4.42002 8.98C4.54002 8.5 4.72002 8.04667 4.94669 7.61333C5.06669 7.38 5.20669 7.14667 5.35335 6.92667C6.79335 6.29333 8.29335 5.8 9.86002 5.48C11.2334 5.19333 12.6667 5.04 14.1467 5.04C19.0534 5.04 23.5867 6.7 27.1734 9.5C27.52 9.76667 27.86 10.0533 28.1934 10.3533C28.2 10.4533 28.2 10.56 28.2 10.6667Z" fill="#949494"/>
<path d="M28.2 12.2467V15.2733L27.8333 15.98L27.1333 17.3467L26.76 18.0667L26.42 18.7267L26.2733 19.0133C26.2733 19.22 26.2733 19.42 26.26 19.6133C26.26 19.9 26.2467 20.1733 26.2267 20.4267C26.2 20.7267 26.16 21 26.12 21.2533C26.02 21.78 25.88 22.2333 25.68 22.6067C25.6533 22.6533 25.6267 22.7 25.6 22.74C25.5267 22.86 25.44 22.9733 25.3467 23.08C25.2267 23.2267 25.0933 23.3533 24.94 23.46C24.7133 23.6333 24.4467 23.7733 24.14 23.88C23.76 24.02 23.32 24.1133 22.8 24.1667C22.46 24.2 22.0867 24.22 21.68 24.22L21.4 24.2333L20.0133 24.3133H20.0067L18.5333 24.4L17.0333 24.4867L14.9667 24.6067L12.4533 24.7533L12.0867 24.7733C11.7467 24.7733 11.4267 24.7533 11.12 24.7133C11.0867 24.7067 11.06 24.7 11.0267 24.7C10.5733 24.6267 10.16 24.5067 9.78668 24.34C9.33335 24.14 8.94001 23.8733 8.60668 23.5533C8.31335 23.2667 8.06001 22.94 7.85335 22.5733C7.80668 22.4867 7.76001 22.4067 7.72001 22.3133C7.52001 21.92 7.36001 21.48 7.24001 21C7.22001 20.92 7.20001 20.8333 7.18668 20.7467C7.14668 20.5933 7.11335 20.4333 7.09335 20.2667C7.02001 19.84 6.98001 19.3867 6.96001 18.9133V18.9067C6.95335 18.7133 6.94668 18.5267 6.94668 18.3267L6.62001 17.5467L6.57335 17.4267L6.53335 17.3267L6.03335 16.1333L5.95335 15.94L5.47335 14.7867L4.94001 13.5C4.94001 13.5 4.94001 13.5 4.93335 13.5L4.39335 12.2L4.20001 11.7267V10.6667C4.20001 10.2467 4.24001 9.83333 4.31335 9.43333C4.34668 9.28 4.38001 9.12667 4.42001 8.98C4.98668 8.65333 5.58001 8.35333 6.18668 8.08667C7.57335 7.46667 9.06001 7.00667 10.6 6.72667C11.7467 6.52 12.94 6.40667 14.1467 6.40667C19.02 6.40667 23.44 8.17333 26.8933 11.0533C27.0267 11.16 27.1533 11.2667 27.28 11.38C27.5933 11.6533 27.9 11.94 28.2 12.2467Z" fill="#949494"/>
<path d="M28.2 14.2333V17.66L27.82 18.4533L27.1 19.9533L27.0933 19.9733C27.0933 20.26 27.08 20.52 27.06 20.7533C26.9933 21.52 26.8067 22.0067 26.5 22.3067C26.28 22.5333 26.0067 22.66 25.6667 22.7267C25.6467 22.7333 25.62 22.7333 25.6 22.74C25.4933 22.76 25.38 22.7733 25.26 22.7733C24.8467 22.8133 24.36 22.7867 23.8 22.7467C23.74 22.7467 23.6733 22.74 23.6067 22.7333C23.2 22.7067 22.7667 22.68 22.2867 22.66C22.0267 22.6533 21.7533 22.6467 21.4733 22.6467H21.46L20.7867 22.7H20.78L19.2667 22.8067L17.54 22.94L17.2867 22.96L15.2667 23.1067L14.22 23.1867L13.1867 23.26C13.0067 23.26 12.8333 23.26 12.66 23.2533C12.66 23.2533 12.6533 23.2467 12.6533 23.2533C11.9 23.24 11.2267 23.1933 10.6267 23.08C10.0733 22.9867 9.58668 22.84 9.17335 22.62C8.74668 22.4133 8.39335 22.12 8.10668 21.7467C7.83335 21.38 7.63335 20.92 7.50668 20.3667C7.50668 20.36 7.50668 20.36 7.50668 20.36C7.41335 19.9133 7.36001 19.3933 7.36001 18.8067L7.26001 18.6267L6.66668 17.5667L6.58001 17.42L6.53335 17.3267L5.91335 16.2267L5.60668 15.6733L5.22001 14.9867L4.55335 13.7933L4.20001 13.1667V10.7133C4.78668 10.3267 5.39335 9.98667 6.02001 9.68C6.78001 9.29333 7.56668 8.96667 8.38668 8.7C9.28001 8.40667 10.2133 8.17333 11.1667 8.02C12.1333 7.86 13.1267 7.78 14.1467 7.78C18.68 7.78 22.84 9.4 26.0467 12.0933C26.1933 12.2067 26.3333 12.3333 26.4733 12.4533C27.0333 12.9533 27.5667 13.4933 28.0533 14.06C28.1067 14.12 28.16 14.1733 28.2 14.2333Z" fill="#949494"/>
<path d="M28.2 16.4733V21.2933C28.04 21.2 27.82 21.0867 27.5467 20.9667C27.4 20.8933 27.2333 20.82 27.06 20.7533C26.8067 20.64 26.5333 20.5333 26.2267 20.4267C26.16 20.4 26.0933 20.38 26.02 20.36C25.9 20.3133 25.7733 20.2733 25.6467 20.2333C25.2533 20.1133 24.82 20 24.3667 19.9C24.1933 19.8667 24.0133 19.8333 23.8333 19.8067C23.2533 19.7067 22.6333 19.6467 21.9867 19.64C21.9333 19.6333 21.8733 19.6333 21.82 19.6333L20.1067 19.6467L17.7733 19.66H17.7667L12.7733 19.7C11.1867 19.7 10.2133 20.08 9.62668 20.2333C9.62668 20.2333 9.62001 20.2333 9.62001 20.24C9.00001 20.4 8.80668 20.3 8.75335 19.2133C8.74001 18.9133 8.73335 18.5267 8.73335 18.0533L8.36001 17.7667L7.70668 17.2733L7.30668 16.9667L7.22668 16.9067L6.12001 16.0667L5.95335 15.94L5.60668 15.6733L4.96668 15.1933L4.20001 14.6067V12.34C4.26668 12.2867 4.32668 12.24 4.39335 12.2C5.36001 11.5333 6.39335 10.9667 7.48668 10.5067C8.46001 10.0933 9.48668 9.76667 10.54 9.53333C10.8267 9.47333 11.12 9.41333 11.42 9.37333C12.3067 9.22 13.22 9.14667 14.1467 9.14667C18.1533 9.14667 21.8333 10.54 24.7533 12.8467C25.1933 13.1933 25.62 13.56 26.02 13.9533C26.5667 14.4733 27.08 15.0267 27.5533 15.6133C27.6467 15.7333 27.74 15.8533 27.8333 15.98C27.96 16.14 28.08 16.3067 28.2 16.4733Z" fill="#949494"/>
<path d="M28.2 19.1467V21.3333C28.2 21.7667 28.16 22.1933 28.08 22.6067C27.96 23.22 27.7533 23.8067 27.4733 24.3533C27.3267 24.3867 27.16 24.3867 26.9733 24.36C26.5533 24.2867 26.06 24.0667 25.5267 23.78C25.5 23.7733 25.4733 23.76 25.4533 23.7467C25.2867 23.66 25.1133 23.5667 24.94 23.46C24.5867 23.2667 24.2133 23.0533 23.84 22.8533C23.76 22.8133 23.68 22.7733 23.6067 22.7333C23.18 22.5133 22.74 22.3133 22.3 22.16C22.3 22.16 22.3 22.16 22.2933 22.16C22.2 22.1267 22.1 22.0933 22 22.0667C21.62 21.96 21.2333 21.8933 20.86 21.8933L20.1267 21.68L16.88 20.74C16.88 20.74 16.88 20.74 16.8733 20.74L14.88 20.16H14.8733L14.0067 19.9067C11.5 19.9067 9.96001 20.9733 9.21335 20.5667C8.92001 20.4133 8.74668 20.0267 8.68668 19.2667C8.66668 19.0533 8.66001 18.8133 8.66001 18.5333L7.88001 18.1533L7.84668 18.14H7.84001L7.28001 17.86L6.66668 17.5667L6.62001 17.5467L6.50668 17.4867L5.20001 16.8533L4.20001 16.3667V14.08C4.31335 13.98 4.43335 13.8867 4.55335 13.7933C4.68001 13.6933 4.80668 13.6 4.93335 13.5C4.94001 13.5 4.94001 13.5 4.94001 13.5C5.72668 12.9333 6.56001 12.4333 7.44668 12.02C8.48001 11.5267 9.58001 11.1467 10.72 10.9C10.8867 10.86 11.06 10.82 11.2333 10.7933C12.18 10.6133 13.1533 10.52 14.1467 10.52C17.66 10.52 20.8867 11.66 23.4867 13.58C24.24 14.14 24.94 14.76 25.58 15.4333C26.1067 15.9867 26.5933 16.5867 27.0333 17.2133C27.0667 17.26 27.1 17.3067 27.1333 17.3467C27.38 17.7067 27.6067 18.0733 27.82 18.4533C27.96 18.68 28.08 18.9133 28.2 19.1467Z" fill="#949494"/>
<path d="M28.08 22.6067C27.96 23.22 27.7533 23.8067 27.4733 24.3533C27.3467 24.6 27.2067 24.8333 27.0533 25.06C26.96 25.2 26.86 25.3333 26.76 25.46C26.52 25.3667 26.1667 25.2333 25.7333 25.0867C25.7333 25.0867 25.7333 25.0867 25.7333 25.08C25.4067 24.9667 25.0333 24.8467 24.6333 24.7333C24.52 24.7 24.4067 24.6667 24.2867 24.6333C23.8133 24.5067 23.32 24.3933 22.84 24.3267C22.44 24.26 22.0467 24.22 21.68 24.22L21.3733 24.1333H21.3667L19.7533 23.6667L18.76 23.38L17.6533 23.06H17.6467L17.2867 22.96L12.9333 21.7067L11.68 21.3467L10.7467 21.1267L9.22668 20.7667L9.04001 20.72C9.04001 20.72 9.04001 20.72 9.03335 20.72L7.50668 20.3667C7.50668 20.36 7.50668 20.36 7.50668 20.36L7.23335 20.3L7.09335 20.2667L5.98001 20.0067L5.85335 19.9733L4.90668 19.1933L4.20001 18.6V15.88C4.44668 15.64 4.70001 15.4133 4.96668 15.1933C5.04668 15.12 5.13335 15.0533 5.22001 14.9867C5.30001 14.92 5.38668 14.8533 5.47335 14.7867C6.08001 14.3267 6.72001 13.9133 7.40001 13.56C8.26668 13.0933 9.18668 12.72 10.1533 12.4533C10.34 12.3933 10.5267 12.34 10.72 12.3C11.8133 12.0267 12.96 11.8867 14.1467 11.8867C17.1267 11.8867 19.9 12.7867 22.1933 14.3267C23.3333 15.0933 24.36 16.0133 25.2267 17.06C25.6667 17.5867 26.0667 18.14 26.42 18.7267C26.4533 18.7733 26.48 18.8133 26.5067 18.86C26.72 19.2133 26.92 19.58 27.1 19.9533C27.2667 20.2867 27.4133 20.62 27.5467 20.9667C27.76 21.5 27.9333 22.0467 28.08 22.6067Z" fill="#949494"/>
<path d="M27.0533 25.06C26.96 25.2 26.86 25.3333 26.76 25.46C26.4667 25.8267 26.1467 26.16 25.7867 26.4533C25.4733 26.7133 25.14 26.9467 24.7867 27.1467C24.6533 27.1133 24.52 27.0733 24.38 27.02C23.94 26.8667 23.48 26.6133 23.0533 26.3467C22.4133 25.94 21.86 25.5 21.6133 25.3C21.52 25.22 21.4733 25.18 21.4733 25.18L20.34 25.08L20.2 25.0667L18.7333 24.94L17.2133 24.8067L14.9667 24.6067L11.4067 24.2933L11.3933 24.2867L10.14 23.68L8.87335 23.0667L7.85335 22.5733L7.63335 22.4667L7.36001 22.3333L6.41335 21.8733L5.15335 21.2667L4.76001 21.0733L4.20001 20.9V17.92C4.51335 17.5467 4.84668 17.1933 5.20001 16.8533C5.42668 16.64 5.66668 16.4267 5.91335 16.2267C5.95335 16.1933 5.99335 16.16 6.03335 16.1333C6.06001 16.1 6.09335 16.08 6.12001 16.0667C6.51335 15.7467 6.92668 15.46 7.35335 15.2C7.84668 14.8867 8.36668 14.6067 8.90668 14.3733C9.48668 14.1133 10.0933 13.8933 10.72 13.7267C11.8067 13.42 12.96 13.26 14.1467 13.26C16.8667 13.26 19.38 14.0867 21.4533 15.5067C22.78 16.4133 23.9267 17.56 24.8333 18.8867C25.1333 19.3133 25.4 19.7667 25.6467 20.2333C25.7333 20.4067 25.82 20.58 25.8933 20.7533C25.9733 20.92 26.0467 21.0867 26.12 21.2533C26.26 21.6 26.3867 21.9467 26.5 22.3067C26.7133 22.9733 26.8733 23.6533 26.9733 24.36C27.0067 24.5933 27.0333 24.8267 27.0533 25.06Z" fill="#949494"/>
<path d="M25.7933 26.28C25.7933 26.3333 25.7933 26.3933 25.7867 26.4533C25.4733 26.7133 25.14 26.9467 24.7867 27.1467C24.64 27.2267 24.4933 27.3067 24.34 27.3733C24.1867 27.4467 24.0333 27.5133 23.8733 27.5733C23.6467 27.4533 23.34 27.3067 23.0133 27.1667C22.5533 26.96 22.0533 26.7733 21.6667 26.7133C21.5733 26.6933 21.4867 26.6867 21.4067 26.6867L20.3133 26.5467H20.3L18.94 26.3667L17.5667 26.1867L16.9267 26.1067L11.8867 25.4533C11.56 25.4533 11.2133 25.4333 10.8533 25.3867C10.4133 25.3467 9.95334 25.28 9.49334 25.1867C9.04001 25.1067 8.58001 25 8.14001 24.8867C7.68001 24.78 7.22668 24.6533 6.80668 24.5333C6.32001 24.3867 5.86668 24.2467 5.48668 24.12C5.17335 24.02 4.90668 23.9267 4.70001 23.8533C4.58001 23.5667 4.48001 23.2667 4.40668 22.96C4.26668 22.44 4.20001 21.8933 4.20001 21.3333V20.22C4.41335 19.8667 4.64668 19.52 4.90668 19.1933C5.38001 18.5667 5.92001 17.9933 6.50668 17.4867C6.52668 17.46 6.55335 17.44 6.57335 17.4267L6.58001 17.42C6.78668 17.2333 7.00001 17.0667 7.22668 16.9067C7.25335 16.88 7.28001 16.86 7.30668 16.84C7.41335 16.76 7.52668 16.68 7.64668 16.6067C8.60001 15.96 9.65335 15.4533 10.78 15.1133C11.8467 14.7933 12.9733 14.6267 14.1467 14.6267C16.4733 14.6267 18.6467 15.3133 20.46 16.4867C21.8 17.3467 22.9533 18.48 23.8333 19.8067C23.94 19.96 24.04 20.1133 24.14 20.2733C24.6 21.0533 24.98 21.8933 25.26 22.7733C25.2933 22.8733 25.32 22.9733 25.3467 23.08C25.4 23.26 25.4467 23.4467 25.4867 23.6333C25.5 23.68 25.5133 23.7267 25.5267 23.78C25.62 24.2 25.6867 24.64 25.7333 25.08C25.7333 25.0867 25.7333 25.0867 25.7333 25.0867C25.7733 25.48 25.7933 25.88 25.7933 26.28Z" fill="#949494"/>
<path d="M24.42 26.28C24.42 26.5133 24.4067 26.7667 24.38 27.02C24.3667 27.14 24.3533 27.26 24.34 27.3733C24.1867 27.4467 24.0333 27.5133 23.8733 27.5733C23.5733 27.6867 23.2667 27.78 22.9533 27.8467C22.74 27.8933 22.52 27.9333 22.3 27.9533H22.2933C22.0867 27.8267 21.8467 27.6733 21.6 27.5C21.1533 27.1867 20.6867 26.8333 20.3133 26.5467C20.3067 26.54 20.3067 26.54 20.3 26.5333C19.9067 26.2333 19.6267 26.0067 19.6267 26.0067L18.92 26.0333L17.56 26.08L16.9267 26.1067L14.38 26.2L12.2267 26.28C12.0867 26.2867 11.92 26.2867 11.7133 26.28H11.7067C11.4267 26.2733 11.0933 26.2533 10.7267 26.22C10.3 26.1867 9.83334 26.1467 9.36001 26.1C8.90001 26.0467 8.43334 25.9933 7.98668 25.94C7.49334 25.8867 7.02668 25.8267 6.62668 25.7733C6.31334 25.7333 6.04001 25.7 5.82001 25.6733C5.63334 25.46 5.46668 25.24 5.30668 25C5.06668 24.64 4.86001 24.26 4.70001 23.8533C4.58001 23.5667 4.48001 23.2667 4.40668 22.96C4.60001 22.3667 4.85334 21.8067 5.15334 21.2667C5.39334 20.8267 5.67334 20.4067 5.98001 20.0067C6.28001 19.6133 6.60668 19.2467 6.96001 18.9133V18.9067C7.06001 18.8067 7.16001 18.7133 7.26001 18.6267C7.44668 18.4533 7.64001 18.2933 7.84001 18.14H7.84668C7.85334 18.1267 7.86001 18.1267 7.86668 18.12C8.02668 17.9933 8.19334 17.88 8.36001 17.7667C9.34668 17.0933 10.46 16.5933 11.66 16.3C12.4533 16.1067 13.2867 16 14.1467 16C15.84 16 17.44 16.4067 18.8467 17.14H18.8533C20.06 17.76 21.1267 18.6133 21.9867 19.64C22.46 20.1867 22.8667 20.7867 23.2 21.42C23.4333 21.8467 23.6333 22.2933 23.8 22.7467C23.8133 22.7867 23.8267 22.82 23.84 22.8533C23.9533 23.1867 24.0533 23.5333 24.14 23.88C24.2 24.1267 24.2467 24.38 24.2867 24.6333C24.3 24.7133 24.3133 24.7867 24.32 24.8667C24.3867 25.3267 24.42 25.8 24.42 26.28Z" fill="#949494"/>
<path d="M23.0533 26.28V26.3467C23.0533 26.5733 23.0333 26.86 23.0133 27.1667C22.9933 27.3933 22.9733 27.6267 22.9533 27.8467C22.74 27.8933 22.52 27.9333 22.3 27.9533H22.2933C22.04 27.9867 21.7933 28 21.5333 28H20.3667L20.1133 27.9267L18.8 27.5267L17.4667 27.1267L14.38 26.2L13.0467 25.8C13.0467 25.8 12.4933 26.02 11.7133 26.28H11.7067C11.4067 26.38 11.08 26.4867 10.7333 26.5933C10.3 26.72 9.84 26.8467 9.38667 26.9467C8.92 27.0533 8.46001 27.1333 8.04667 27.1667C7.92 27.18 7.79334 27.1867 7.68 27.1867C7.30667 26.98 6.94667 26.7333 6.62 26.46C6.33334 26.22 6.06667 25.96 5.82 25.6733C5.63334 25.46 5.46667 25.24 5.30667 25C5.35334 24.7 5.40667 24.4067 5.48667 24.12C5.68667 23.3267 6 22.5667 6.41334 21.8733C6.64 21.48 6.89334 21.1 7.18667 20.7467C7.19334 20.7267 7.21334 20.7067 7.23334 20.6933C7.22667 20.6867 7.23334 20.6867 7.23334 20.6867C7.32 20.5733 7.41334 20.4667 7.50667 20.3667C7.50667 20.36 7.50667 20.36 7.50667 20.36C7.78 20.0667 8.06 19.7867 8.36667 19.5267C8.47334 19.44 8.57334 19.3533 8.68667 19.2667C8.70667 19.2467 8.72667 19.2333 8.75334 19.2133C10.2533 18.0667 12.1267 17.3733 14.1467 17.3733C16.44 17.3733 18.5267 18.2333 20.1067 19.6467C20.8667 20.3333 21.5133 21.1533 22 22.0667C22.04 22.1333 22.08 22.2067 22.1133 22.28C22.1733 22.4 22.2333 22.5267 22.2867 22.66C22.5067 23.14 22.68 23.6467 22.8 24.1667C22.8133 24.22 22.8267 24.2733 22.84 24.3267C22.8933 24.5733 22.94 24.8267 22.9733 25.08C23.0267 25.4733 23.0533 25.8733 23.0533 26.28Z" fill="#949494"/>
<path d="M21.68 26.28C21.68 26.4133 21.6734 26.56 21.6667 26.7133C21.6534 26.96 21.6334 27.2267 21.6 27.5C21.5867 27.6667 21.56 27.8333 21.5334 28H17.88L17.1734 27.8867L14.4134 27.4467L14.02 27.3867L13.12 27.24C12.7267 27.24 11.8734 27.4133 10.9734 27.58C10.5 27.6667 10.02 27.76 9.58669 27.82C9.53336 27.8267 9.48002 27.8333 9.43336 27.84H9.42669C8.96002 27.74 8.50669 27.5867 8.08002 27.3867C7.94669 27.3267 7.81336 27.26 7.68002 27.1867C7.30669 26.98 6.94669 26.7333 6.62002 26.46C6.61336 26.38 6.60669 26.3133 6.60669 26.28C6.60669 26.1067 6.61336 25.94 6.62669 25.7733C6.65336 25.3467 6.71336 24.9333 6.80669 24.5333C6.95336 23.9267 7.16669 23.34 7.45336 22.8C7.50669 22.6867 7.56669 22.5733 7.63336 22.4667C7.66002 22.4133 7.69336 22.3667 7.72002 22.3133C7.84002 22.12 7.97336 21.9333 8.10669 21.7467C8.38669 21.38 8.70002 21.0333 9.03336 20.72C9.04002 20.72 9.04002 20.72 9.04002 20.72C9.06669 20.6933 9.09336 20.6667 9.12002 20.6467C9.15336 20.62 9.18002 20.5867 9.21336 20.5667C9.34669 20.4467 9.48002 20.34 9.62002 20.24C9.62002 20.2333 9.62669 20.2333 9.62669 20.2333C10.8867 19.2933 12.4467 18.74 14.1467 18.74C15.4667 18.74 16.6934 19.0733 17.7667 19.66H17.7734C18.6934 20.1667 19.4934 20.8533 20.1267 21.68C20.3734 22 20.5934 22.34 20.78 22.7H20.7867C20.82 22.7667 20.8534 22.8333 20.8867 22.9C21.0867 23.2933 21.2467 23.7067 21.3667 24.1333H21.3734C21.38 24.1667 21.3934 24.2 21.4 24.2333C21.48 24.52 21.5467 24.8133 21.5934 25.1133C21.6 25.1733 21.6067 25.24 21.6134 25.3C21.66 25.62 21.68 25.9467 21.68 26.28Z" fill="#949494"/>
<path d="M20.3133 26.2067C20.3133 26.3133 20.3133 26.4267 20.3 26.5333V26.54C20.3 26.5467 20.3 26.5467 20.3 26.5467C20.2867 27.0267 20.22 27.5 20.1133 27.9267C20.1133 27.9533 20.1067 27.9733 20.0933 28H16.98L14.4133 27.4467L14.0733 27.3733L14.02 27.3867L11.1733 27.9733L11.0467 28H10.8667C10.44 28 10.02 27.96 9.61334 27.88C9.55334 27.8667 9.49334 27.8533 9.43334 27.84H9.42668C8.96001 27.74 8.50668 27.5867 8.08001 27.3867C8.06668 27.3133 8.05334 27.24 8.04668 27.1667C8.00001 26.88 7.98001 26.58 7.98001 26.28C7.98001 26.1667 7.98001 26.0533 7.98668 25.94C8.00668 25.58 8.06001 25.2267 8.14001 24.8867C8.19334 24.6333 8.26668 24.3867 8.35334 24.1533C8.42668 23.9467 8.51334 23.7467 8.60668 23.5533C8.68668 23.3867 8.78001 23.2267 8.87334 23.0667C8.96668 22.9133 9.06668 22.7667 9.17334 22.62C9.44001 22.2533 9.75334 21.9133 10.1 21.6133C10.3 21.44 10.52 21.2733 10.7467 21.1267C11.72 20.4867 12.8867 20.1133 14.1467 20.1133C14.3933 20.1133 14.6333 20.1267 14.8667 20.16H14.88C15.5933 20.24 16.26 20.44 16.8733 20.74C16.88 20.74 16.88 20.74 16.88 20.74C17.8467 21.2133 18.6667 21.9267 19.2667 22.8067C19.3667 22.9533 19.4667 23.1133 19.5533 23.2733C19.6267 23.4 19.6933 23.5333 19.7533 23.6667C19.8467 23.8733 19.9333 24.0933 20.0067 24.3133H20.0133C20.0867 24.56 20.1533 24.8067 20.2 25.0667V25.0733C20.2733 25.44 20.3133 25.82 20.3133 26.2067Z" fill="#949494"/>
<path d="M18.94 26.3467V26.3667C18.94 26.76 18.8933 27.1467 18.8 27.5267C18.7667 27.6867 18.72 27.8467 18.66 28H15.6733L14.1467 27.58L12.62 28H10.8667C10.44 28 10.02 27.96 9.61335 27.88C9.60001 27.86 9.59335 27.84 9.58668 27.82C9.49335 27.5333 9.42001 27.2467 9.38668 26.9467C9.36001 26.7533 9.34668 26.5533 9.34668 26.3467C9.34668 26.2667 9.34668 26.18 9.36001 26.1C9.36668 25.7867 9.41335 25.48 9.49335 25.1867C9.53335 24.9867 9.59335 24.7933 9.67335 24.6067C9.70001 24.5133 9.74001 24.4267 9.78668 24.34C9.88668 24.1133 10.0067 23.8933 10.14 23.68C10.2867 23.4667 10.4467 23.2667 10.6267 23.08C10.84 22.84 11.08 22.62 11.3533 22.44C11.82 22.1 12.3533 21.8467 12.9333 21.7067C13.32 21.6 13.7267 21.5467 14.1467 21.5467C15.48 21.5467 16.6733 22.08 17.54 22.94C17.5733 22.9733 17.6133 23.0133 17.6467 23.06H17.6533C17.7467 23.16 17.8333 23.26 17.92 23.3733C18.1667 23.6867 18.3733 24.0267 18.5333 24.4C18.6133 24.5733 18.68 24.7533 18.7333 24.94C18.74 24.9667 18.7467 24.9867 18.7533 25.0133C18.8467 25.34 18.9067 25.68 18.92 26.0333C18.9333 26.1333 18.94 26.24 18.94 26.3467Z" fill="#949494"/>
<path d="M17.5733 26.3467C17.5733 26.62 17.54 26.88 17.4667 27.1267C17.4 27.3933 17.3 27.6467 17.1733 27.8867C17.1533 27.9267 17.1067 28 17.1067 28H11.1867C11.18 27.9933 11.1733 27.98 11.1733 27.9733C11.0933 27.8467 11.0267 27.72 10.9733 27.58C10.84 27.2733 10.76 26.94 10.7333 26.5933C10.72 26.5133 10.72 26.4267 10.72 26.3467C10.72 26.3067 10.72 26.26 10.7267 26.22C10.7333 25.9267 10.7733 25.6467 10.8533 25.3867C10.92 25.1467 11.0067 24.9267 11.12 24.7133C11.12 24.7133 11.1267 24.7067 11.1267 24.7C11.2067 24.56 11.2933 24.42 11.3933 24.2867C11.72 23.8467 12.1533 23.4867 12.6533 23.2533C12.66 23.2533 12.66 23.2533 12.66 23.2533C12.82 23.1733 12.9867 23.1067 13.16 23.06C13.16 23.06 13.16 23.06 13.1667 23.06C13.4733 22.9667 13.8067 22.92 14.1467 22.92C14.54 22.92 14.92 22.98 15.2667 23.1067C15.3933 23.14 15.5133 23.1933 15.6333 23.2533C15.6333 23.2533 15.6333 23.2533 15.64 23.2533C16.2133 23.5267 16.7 23.9533 17.0333 24.4867C17.1 24.5867 17.16 24.6933 17.2133 24.8067C17.24 24.8533 17.2667 24.9067 17.2867 24.9533C17.44 25.3 17.5333 25.68 17.56 26.08C17.5667 26.1133 17.5667 26.1467 17.5667 26.1867C17.5733 26.24 17.5733 26.2933 17.5733 26.3467Z" fill="#949494"/>
<path d="M20.2 7.33333H12.2C9.60002 7.33333 7.53336 9.4 7.53336 12V20C7.53336 22.6 9.60002 24.6667 12.2 24.6667H20.2C22.8 24.6667 24.8667 22.6 24.8667 20V12C24.8667 9.4 22.8 7.33333 20.2 7.33333Z" stroke="white" stroke-width="2" stroke-miterlimit="10" stroke-linecap="round" stroke-linejoin="round"/>
<path d="M20.8667 11.3333C21.2349 11.3333 21.5333 11.0349 21.5333 10.6667C21.5333 10.2985 21.2349 10 20.8667 10C20.4985 10 20.2 10.2985 20.2 10.6667C20.2 11.0349 20.4985 11.3333 20.8667 11.3333Z" fill="white"/>
<path d="M16.2 20C18.4092 20 20.2 18.2091 20.2 16C20.2 13.7909 18.4092 12 16.2 12C13.9909 12 12.2 13.7909 12.2 16C12.2 18.2091 13.9909 20 16.2 20Z" stroke="white" stroke-width="2" stroke-miterlimit="10" stroke-linecap="round" stroke-linejoin="round"/>
</svg>
