<svg width="49" height="58" viewBox="0 0 49 58" fill="none" xmlns="http://www.w3.org/2000/svg">
<path d="M48.1882 27.4247V9.31487C31.8409 12.3288 24.8966 0.678567 24.5176 0.0264374L24.5 0L24.4383 0.105751C23.7069 1.33951 16.7009 12.2495 0.811846 9.31487V27.4247C0.811846 27.4247 -0.0870363 49.1476 24.2092 56.9379L24.5 57.0789L24.7908 56.9379C49.087 49.1476 48.1882 27.4247 48.1882 27.4247ZM24.7115 48.8128L24.5 48.9009V28.5351H7.60633C7.57989 28.0327 7.5887 27.7419 7.5887 27.7419V14.8051C18.9305 16.9025 23.936 9.121 24.4471 8.23974L24.4912 8.16043V28.5351H41.3849C41.2527 31.7693 39.7017 44.0099 24.7115 48.8128Z" fill="url(#paint0_linear_98_928)"/>
<defs>
<linearGradient id="paint0_linear_98_928" x1="-2.38415" y1="12.5105" x2="60.7013" y2="31.4505" gradientUnits="userSpaceOnUse">
<stop offset="0.00800497" stop-color="#38DBFF"/>
<stop offset="1" stop-color="#243AFF"/>
</linearGradient>
</defs>
</svg>
