<svg width="443" height="483" viewBox="0 0 443 483" fill="none" xmlns="http://www.w3.org/2000/svg">
<rect x="0.976535" y="0.466953" width="440.803" height="481.895" rx="27.5502" fill="#1B223A" stroke="#FDFDFD" stroke-width="0.933906"/>
<line x1="34.1302" y1="136.822" x2="414.431" y2="136.822" stroke="white" stroke-width="0.549568"/>
<line x1="34.1302" y1="308.288" x2="414.431" y2="308.288" stroke="white" stroke-width="0.549568"/>
<line x1="34.1302" y1="93.9562" x2="414.431" y2="93.9562" stroke="white" stroke-width="0.549568"/>
<line x1="34.1303" y1="51.09" x2="414.431" y2="51.09" stroke="white" stroke-width="0.549568"/>
<line x1="34.1302" y1="265.422" x2="414.431" y2="265.422" stroke="white" stroke-width="0.549568"/>
<line x1="34.1302" y1="179.689" x2="414.431" y2="179.689" stroke="white" stroke-width="0.549568"/>
<line x1="34.1302" y1="351.154" x2="414.431" y2="351.154" stroke="white" stroke-width="0.549568"/>
<line x1="34.1302" y1="222.555" x2="414.431" y2="222.555" stroke="white" stroke-width="0.549568"/>
<line x1="34.1302" y1="394.02" x2="414.431" y2="394.02" stroke="white" stroke-width="0.549568"/>
<line x1="34.1302" y1="436.886" x2="414.431" y2="436.886" stroke="white" stroke-width="0.549568"/>
<line x1="34.405" y1="51.3647" x2="34.405" y2="437.068" stroke="white" stroke-width="0.549568"/>
<line x1="414.505" y1="51.3647" x2="414.505" y2="437.068" stroke="white" stroke-width="0.549568"/>
<path d="M222.425 81.6206H223.955L220.385 72.233H218.803L215.208 81.6206H216.659L217.522 79.2933H221.575L222.425 81.6206ZM219.562 73.8019L221.144 78.1297H217.954L219.562 73.8019ZM229.537 81.6206H230.766L233.747 74.4295V81.6206H235.081V72.233H233.303L230.165 79.8555L227.014 72.233H225.249V81.6206H226.569V74.4426L229.537 81.6206ZM241.334 81.8167C244.053 81.8167 246.106 79.6856 246.106 76.9137C246.106 74.1419 244.053 72.0369 241.334 72.0369C238.614 72.0369 236.561 74.1419 236.561 76.9137C236.561 79.6856 238.614 81.8167 241.334 81.8167ZM241.334 80.5223C239.346 80.5223 238.052 78.9272 238.052 76.9137C238.052 74.9002 239.346 73.3313 241.334 73.3313C243.321 73.3313 244.615 74.9002 244.615 76.9137C244.615 78.9272 243.321 80.5223 241.334 80.5223ZM254.823 72.233H253.385V78.2866C253.385 79.6463 252.588 80.5223 251.189 80.5223C249.803 80.5223 249.005 79.6463 249.005 78.2866V72.233H247.567V78.2473C247.567 80.4047 248.94 81.8167 251.189 81.8167C253.437 81.8167 254.823 80.4047 254.823 78.2473V72.233ZM263.1 81.6206H264.552V72.233H263.218V79.3718L258.394 72.233H256.825V81.6206H258.158V74.2857L263.1 81.6206ZM270.306 81.6206V73.5274H273.365V72.233H265.808V73.5274H268.868V81.6206H270.306Z" fill="white"/>
<path d="M209.306 121.189V112.351H206.259V113.502H207.972V121.189H209.306ZM213.046 120.627C213.046 119.751 212.654 119.228 211.935 119.228C211.399 119.228 210.98 119.594 210.98 120.157C210.98 120.64 211.347 121.046 211.843 121.046C211.935 121.046 212.013 121.033 212.131 120.993C212.053 121.634 211.477 122.092 210.627 122.118V122.863C212.066 122.837 213.046 121.869 213.046 120.627ZM216.494 121.189V112.351H213.448V113.502H215.161V121.189H216.494ZM218.169 116.783C218.169 119.712 219.306 121.32 221.425 121.32C223.543 121.32 224.693 119.712 224.693 116.783C224.693 113.855 223.516 112.22 221.425 112.22C219.333 112.22 218.169 113.855 218.169 116.783ZM219.529 116.783C219.529 114.574 220.209 113.41 221.425 113.41C222.667 113.41 223.333 114.574 223.333 116.783C223.333 118.98 222.667 120.13 221.425 120.13C220.182 120.13 219.529 118.967 219.529 116.783ZM229.043 121.307C230.926 121.307 232.207 120.235 232.207 118.666C232.207 117.646 231.54 116.888 230.376 116.574C231.292 116.143 231.802 115.45 231.802 114.587C231.802 113.201 230.703 112.22 229.004 112.22C227.395 112.22 226.166 113.305 226.127 114.757H227.409C227.448 113.855 228.049 113.279 228.951 113.279C229.84 113.279 230.429 113.841 230.429 114.678C230.429 115.541 229.775 116.116 228.781 116.116H227.932V117.176H228.847C230.063 117.176 230.834 117.764 230.834 118.692C230.834 119.647 230.154 120.248 229.043 120.248C227.971 120.248 227.265 119.634 227.212 118.679H225.918C225.931 120.235 227.212 121.307 229.043 121.307ZM235.48 120.627C235.48 119.751 235.088 119.228 234.369 119.228C233.833 119.228 233.414 119.594 233.414 120.157C233.414 120.64 233.78 121.046 234.277 121.046C234.369 121.046 234.447 121.033 234.565 120.993C234.486 121.634 233.911 122.092 233.061 122.118V122.863C234.499 122.837 235.48 121.869 235.48 120.627ZM239.651 121.32C241.704 121.32 242.841 119.947 242.841 118.365C242.841 116.862 241.782 115.502 239.834 115.502C239.232 115.502 238.67 115.685 238.173 116.077L238.566 113.528H242.331V112.351H237.611L236.827 117.28L237.899 117.62C238.265 116.979 238.853 116.653 239.638 116.653C240.814 116.653 241.468 117.45 241.468 118.365C241.468 119.372 240.867 120.13 239.651 120.13C238.67 120.13 237.951 119.568 237.86 118.627H236.539C236.604 120.196 237.925 121.32 239.651 121.32ZM249.624 120.013H245.898L247.676 117.999C249.127 116.456 249.507 115.75 249.507 114.744C249.507 113.292 248.304 112.22 246.656 112.22C244.904 112.22 243.675 113.397 243.675 115.031H244.97C244.97 114.051 245.623 113.41 246.604 113.41C247.506 113.41 248.121 114.025 248.121 114.901C248.121 115.698 247.715 116.313 246.669 117.45L243.911 120.431V121.189H249.624V120.013ZM250.843 116.783C250.843 119.712 251.98 121.32 254.098 121.32C256.217 121.32 257.367 119.712 257.367 116.783C257.367 113.855 256.19 112.22 254.098 112.22C252.007 112.22 250.843 113.855 250.843 116.783ZM252.203 116.783C252.203 114.574 252.883 113.41 254.098 113.41C255.341 113.41 256.007 114.574 256.007 116.783C256.007 118.98 255.341 120.13 254.098 120.13C252.856 120.13 252.203 118.967 252.203 116.783ZM260.455 120.627C260.455 119.751 260.062 119.228 259.343 119.228C258.807 119.228 258.389 119.594 258.389 120.157C258.389 120.64 258.755 121.046 259.252 121.046C259.343 121.046 259.422 121.033 259.539 120.993C259.461 121.634 258.886 122.092 258.036 122.118V122.863C259.474 122.837 260.455 121.869 260.455 120.627ZM261.53 116.783C261.53 119.712 262.667 121.32 264.785 121.32C266.904 121.32 268.054 119.712 268.054 116.783C268.054 113.855 266.877 112.22 264.785 112.22C262.694 112.22 261.53 113.855 261.53 116.783ZM262.89 116.783C262.89 114.574 263.57 113.41 264.785 113.41C266.028 113.41 266.694 114.574 266.694 116.783C266.694 118.98 266.028 120.13 264.785 120.13C263.543 120.13 262.89 118.967 262.89 116.783ZM269.331 116.783C269.331 119.712 270.469 121.32 272.587 121.32C274.705 121.32 275.856 119.712 275.856 116.783C275.856 113.855 274.679 112.22 272.587 112.22C270.495 112.22 269.331 113.855 269.331 116.783ZM270.691 116.783C270.691 114.574 271.371 113.41 272.587 113.41C273.829 113.41 274.496 114.574 274.496 116.783C274.496 118.98 273.829 120.13 272.587 120.13C271.345 120.13 270.691 118.967 270.691 116.783ZM277.133 116.783C277.133 119.712 278.27 121.32 280.388 121.32C282.506 121.32 283.657 119.712 283.657 116.783C283.657 113.855 282.48 112.22 280.388 112.22C278.296 112.22 277.133 113.855 277.133 116.783ZM278.492 116.783C278.492 114.574 279.172 113.41 280.388 113.41C281.63 113.41 282.297 114.574 282.297 116.783C282.297 118.98 281.63 120.13 280.388 120.13C279.146 120.13 278.492 118.967 278.492 116.783Z" fill="white"/>
<path d="M214.194 291.478H210.468L212.246 289.465C213.697 287.922 214.077 287.216 214.077 286.209C214.077 284.758 212.874 283.686 211.226 283.686C209.474 283.686 208.245 284.862 208.245 286.497H209.54C209.54 285.516 210.193 284.875 211.174 284.875C212.076 284.875 212.691 285.49 212.691 286.366C212.691 287.163 212.285 287.778 211.239 288.915L208.481 291.896V292.655H214.194V291.478ZM215.413 288.249C215.413 291.177 216.55 292.786 218.668 292.786C220.787 292.786 221.937 291.177 221.937 288.249C221.937 285.32 220.76 283.686 218.668 283.686C216.577 283.686 215.413 285.32 215.413 288.249ZM216.773 288.249C216.773 286.039 217.453 284.875 218.668 284.875C219.911 284.875 220.577 286.039 220.577 288.249C220.577 290.445 219.911 291.596 218.668 291.596C217.426 291.596 216.773 290.432 216.773 288.249ZM226.287 292.772C228.17 292.772 229.451 291.7 229.451 290.131C229.451 289.112 228.784 288.353 227.62 288.039C228.536 287.608 229.046 286.915 229.046 286.052C229.046 284.666 227.947 283.686 226.248 283.686C224.639 283.686 223.41 284.771 223.371 286.222H224.652C224.692 285.32 225.293 284.745 226.195 284.745C227.084 284.745 227.673 285.307 227.673 286.144C227.673 287.007 227.019 287.582 226.025 287.582H225.175V288.641H226.091C227.307 288.641 228.078 289.229 228.078 290.158C228.078 291.112 227.398 291.713 226.287 291.713C225.215 291.713 224.509 291.099 224.456 290.144H223.162C223.175 291.7 224.456 292.772 226.287 292.772ZM232.724 292.093C232.724 291.217 232.332 290.694 231.613 290.694C231.077 290.694 230.658 291.06 230.658 291.622C230.658 292.106 231.024 292.511 231.521 292.511C231.613 292.511 231.691 292.498 231.809 292.459C231.73 293.099 231.155 293.557 230.305 293.583V294.328C231.743 294.302 232.724 293.335 232.724 292.093ZM239.871 291.478H236.145L237.923 289.465C239.374 287.922 239.754 287.216 239.754 286.209C239.754 284.758 238.551 283.686 236.903 283.686C235.151 283.686 233.922 284.862 233.922 286.497H235.217C235.217 285.516 235.87 284.875 236.851 284.875C237.753 284.875 238.368 285.49 238.368 286.366C238.368 287.163 237.962 287.778 236.916 288.915L234.158 291.896V292.655H239.871V291.478ZM247.523 290.171C247.523 289.098 246.804 288.392 245.876 288.052C246.608 287.726 247.184 287.033 247.184 286.131C247.184 284.692 245.968 283.686 244.294 283.686C242.594 283.686 241.391 284.692 241.391 286.131C241.391 287.033 241.954 287.726 242.699 288.052C241.771 288.392 241.038 289.098 241.038 290.171C241.038 291.713 242.359 292.772 244.294 292.772C246.216 292.772 247.523 291.713 247.523 290.171ZM242.751 286.17C242.751 285.294 243.379 284.745 244.294 284.745C245.196 284.745 245.824 285.294 245.824 286.17C245.824 287.033 245.196 287.556 244.294 287.556C243.379 287.556 242.751 287.033 242.751 286.17ZM242.424 290.144C242.424 289.19 243.183 288.615 244.294 288.615C245.392 288.615 246.164 289.19 246.164 290.144C246.164 291.125 245.392 291.713 244.294 291.713C243.183 291.713 242.424 291.125 242.424 290.144ZM248.802 288.249C248.802 291.177 249.939 292.786 252.057 292.786C254.176 292.786 255.326 291.177 255.326 288.249C255.326 285.32 254.149 283.686 252.057 283.686C249.965 283.686 248.802 285.32 248.802 288.249ZM250.162 288.249C250.162 286.039 250.841 284.875 252.057 284.875C253.3 284.875 253.966 286.039 253.966 288.249C253.966 290.445 253.3 291.596 252.057 291.596C250.815 291.596 250.162 290.432 250.162 288.249ZM258.414 292.093C258.414 291.217 258.021 290.694 257.302 290.694C256.766 290.694 256.348 291.06 256.348 291.622C256.348 292.106 256.714 292.511 257.211 292.511C257.302 292.511 257.381 292.498 257.498 292.459C257.42 293.099 256.845 293.557 255.995 293.583V294.328C257.433 294.302 258.414 293.335 258.414 292.093ZM259.489 288.249C259.489 291.177 260.626 292.786 262.744 292.786C264.863 292.786 266.013 291.177 266.013 288.249C266.013 285.32 264.836 283.686 262.744 283.686C260.652 283.686 259.489 285.32 259.489 288.249ZM260.849 288.249C260.849 286.039 261.528 284.875 262.744 284.875C263.987 284.875 264.653 286.039 264.653 288.249C264.653 290.445 263.987 291.596 262.744 291.596C261.502 291.596 260.849 290.432 260.849 288.249ZM267.29 288.249C267.29 291.177 268.428 292.786 270.546 292.786C272.664 292.786 273.814 291.177 273.814 288.249C273.814 285.32 272.638 283.686 270.546 283.686C268.454 283.686 267.29 285.32 267.29 288.249ZM268.65 288.249C268.65 286.039 269.33 284.875 270.546 284.875C271.788 284.875 272.455 286.039 272.455 288.249C272.455 290.445 271.788 291.596 270.546 291.596C269.304 291.596 268.65 290.432 268.65 288.249ZM275.092 288.249C275.092 291.177 276.229 292.786 278.347 292.786C280.465 292.786 281.616 291.177 281.616 288.249C281.616 285.32 280.439 283.686 278.347 283.686C276.255 283.686 275.092 285.32 275.092 288.249ZM276.451 288.249C276.451 286.039 277.131 284.875 278.347 284.875C279.589 284.875 280.256 286.039 280.256 288.249C280.256 290.445 279.589 291.596 278.347 291.596C277.105 291.596 276.451 290.432 276.451 288.249Z" fill="white"/>
<path d="M216.475 162.879H212.749L214.527 160.865C215.978 159.323 216.358 158.617 216.358 157.61C216.358 156.159 215.155 155.086 213.507 155.086C211.755 155.086 210.526 156.263 210.526 157.897H211.821C211.821 156.917 212.474 156.276 213.455 156.276C214.357 156.276 214.972 156.891 214.972 157.767C214.972 158.564 214.566 159.179 213.52 160.316L210.762 163.297V164.056H216.475V162.879ZM220.778 155.1C218.895 155.1 217.536 156.407 217.536 158.081C217.536 159.78 218.791 160.944 220.503 160.944C220.752 160.944 221.013 160.905 221.275 160.813L218.673 164.056H220.19L222.844 160.761C223.628 159.793 224.007 159.1 224.007 158.015C224.007 156.407 222.661 155.1 220.778 155.1ZM220.765 156.211C221.798 156.211 222.635 156.943 222.635 158.054C222.635 159.283 221.798 159.911 220.765 159.911C219.719 159.911 218.908 159.205 218.908 158.041C218.908 156.943 219.719 156.211 220.765 156.211ZM226.272 163.493C226.272 162.617 225.879 162.094 225.16 162.094C224.624 162.094 224.206 162.461 224.206 163.023C224.206 163.507 224.572 163.912 225.069 163.912C225.16 163.912 225.239 163.899 225.356 163.86C225.278 164.5 224.703 164.958 223.853 164.984V165.729C225.291 165.703 226.272 164.736 226.272 163.493ZM227.347 159.649C227.347 162.578 228.484 164.186 230.602 164.186C232.72 164.186 233.871 162.578 233.871 159.649C233.871 156.721 232.694 155.086 230.602 155.086C228.51 155.086 227.347 156.721 227.347 159.649ZM228.706 159.649C228.706 157.44 229.386 156.276 230.602 156.276C231.844 156.276 232.511 157.44 232.511 159.649C232.511 161.846 231.844 162.997 230.602 162.997C229.36 162.997 228.706 161.833 228.706 159.649ZM241.581 162.108V160.957H240.378V155.217H239.358L234.808 161.179V162.108H239.057V164.056H240.378V162.108H241.581ZM236.286 160.957L239.057 157.218V160.957H236.286ZM242.694 159.649C242.694 162.578 243.832 164.186 245.95 164.186C248.068 164.186 249.218 162.578 249.218 159.649C249.218 156.721 248.042 155.086 245.95 155.086C243.858 155.086 242.694 156.721 242.694 159.649ZM244.054 159.649C244.054 157.44 244.734 156.276 245.95 156.276C247.192 156.276 247.859 157.44 247.859 159.649C247.859 161.846 247.192 162.997 245.95 162.997C244.708 162.997 244.054 161.833 244.054 159.649ZM252.306 163.493C252.306 162.617 251.914 162.094 251.195 162.094C250.659 162.094 250.24 162.461 250.24 163.023C250.24 163.507 250.606 163.912 251.103 163.912C251.195 163.912 251.273 163.899 251.391 163.86C251.312 164.5 250.737 164.958 249.887 164.984V165.729C251.325 165.703 252.306 164.736 252.306 163.493ZM253.381 159.649C253.381 162.578 254.519 164.186 256.637 164.186C258.755 164.186 259.905 162.578 259.905 159.649C259.905 156.721 258.729 155.086 256.637 155.086C254.545 155.086 253.381 156.721 253.381 159.649ZM254.741 159.649C254.741 157.44 255.421 156.276 256.637 156.276C257.879 156.276 258.546 157.44 258.546 159.649C258.546 161.846 257.879 162.997 256.637 162.997C255.395 162.997 254.741 161.833 254.741 159.649ZM261.183 159.649C261.183 162.578 262.32 164.186 264.438 164.186C266.556 164.186 267.707 162.578 267.707 159.649C267.707 156.721 266.53 155.086 264.438 155.086C262.346 155.086 261.183 156.721 261.183 159.649ZM262.542 159.649C262.542 157.44 263.222 156.276 264.438 156.276C265.68 156.276 266.347 157.44 266.347 159.649C266.347 161.846 265.68 162.997 264.438 162.997C263.196 162.997 262.542 161.833 262.542 159.649ZM268.984 159.649C268.984 162.578 270.121 164.186 272.24 164.186C274.358 164.186 275.508 162.578 275.508 159.649C275.508 156.721 274.331 155.086 272.24 155.086C270.148 155.086 268.984 156.721 268.984 159.649ZM270.344 159.649C270.344 157.44 271.024 156.276 272.24 156.276C273.482 156.276 274.148 157.44 274.148 159.649C274.148 161.846 273.482 162.997 272.24 162.997C270.997 162.997 270.344 161.833 270.344 159.649Z" fill="white"/>
<path d="M211.659 334.344H207.933L209.711 332.33C211.162 330.787 211.541 330.081 211.541 329.075C211.541 327.623 210.338 326.551 208.691 326.551C206.939 326.551 205.71 327.728 205.71 329.362H207.004C207.004 328.382 207.658 327.741 208.639 327.741C209.541 327.741 210.155 328.356 210.155 329.232C210.155 330.029 209.75 330.644 208.704 331.781L205.945 334.762V335.521H211.659V334.344ZM215.962 326.564C214.079 326.564 212.719 327.872 212.719 329.545C212.719 331.245 213.974 332.409 215.687 332.409C215.935 332.409 216.197 332.37 216.458 332.278L213.857 335.521H215.373L218.027 332.226C218.812 331.258 219.191 330.565 219.191 329.48C219.191 327.872 217.844 326.564 215.962 326.564ZM215.948 327.676C216.981 327.676 217.818 328.408 217.818 329.519C217.818 330.748 216.981 331.376 215.948 331.376C214.903 331.376 214.092 330.67 214.092 329.506C214.092 328.408 214.903 327.676 215.948 327.676ZM220.245 331.114C220.245 334.043 221.382 335.651 223.5 335.651C225.618 335.651 226.769 334.043 226.769 331.114C226.769 328.186 225.592 326.551 223.5 326.551C221.408 326.551 220.245 328.186 220.245 331.114ZM221.605 331.114C221.605 328.905 222.284 327.741 223.5 327.741C224.742 327.741 225.409 328.905 225.409 331.114C225.409 333.311 224.742 334.461 223.5 334.461C222.258 334.461 221.605 333.298 221.605 331.114ZM229.857 334.958C229.857 334.082 229.464 333.559 228.745 333.559C228.209 333.559 227.791 333.925 227.791 334.488C227.791 334.971 228.157 335.377 228.654 335.377C228.745 335.377 228.824 335.364 228.941 335.324C228.863 335.965 228.288 336.423 227.438 336.449V337.194C228.876 337.168 229.857 336.2 229.857 334.958ZM237.479 333.572V332.422H236.277V326.682H235.257L230.707 332.644V333.572H234.956V335.521H236.277V333.572H237.479ZM232.184 332.422L234.956 328.682V332.422H232.184ZM238.593 331.114C238.593 334.043 239.73 335.651 241.848 335.651C243.966 335.651 245.117 334.043 245.117 331.114C245.117 328.186 243.94 326.551 241.848 326.551C239.756 326.551 238.593 328.186 238.593 331.114ZM239.952 331.114C239.952 328.905 240.632 327.741 241.848 327.741C243.09 327.741 243.757 328.905 243.757 331.114C243.757 333.311 243.09 334.461 241.848 334.461C240.606 334.461 239.952 333.298 239.952 331.114ZM246.394 331.114C246.394 334.043 247.532 335.651 249.65 335.651C251.768 335.651 252.918 334.043 252.918 331.114C252.918 328.186 251.742 326.551 249.65 326.551C247.558 326.551 246.394 328.186 246.394 331.114ZM247.754 331.114C247.754 328.905 248.434 327.741 249.65 327.741C250.892 327.741 251.559 328.905 251.559 331.114C251.559 333.311 250.892 334.461 249.65 334.461C248.408 334.461 247.754 333.298 247.754 331.114ZM256.006 334.958C256.006 334.082 255.614 333.559 254.895 333.559C254.359 333.559 253.94 333.925 253.94 334.488C253.94 334.971 254.306 335.377 254.803 335.377C254.895 335.377 254.973 335.364 255.091 335.324C255.012 335.965 254.437 336.423 253.587 336.449V337.194C255.025 337.168 256.006 336.2 256.006 334.958ZM257.081 331.114C257.081 334.043 258.219 335.651 260.337 335.651C262.455 335.651 263.605 334.043 263.605 331.114C263.605 328.186 262.429 326.551 260.337 326.551C258.245 326.551 257.081 328.186 257.081 331.114ZM258.441 331.114C258.441 328.905 259.121 327.741 260.337 327.741C261.579 327.741 262.246 328.905 262.246 331.114C262.246 333.311 261.579 334.461 260.337 334.461C259.095 334.461 258.441 333.298 258.441 331.114ZM264.883 331.114C264.883 334.043 266.02 335.651 268.138 335.651C270.256 335.651 271.407 334.043 271.407 331.114C271.407 328.186 270.23 326.551 268.138 326.551C266.046 326.551 264.883 328.186 264.883 331.114ZM266.242 331.114C266.242 328.905 266.922 327.741 268.138 327.741C269.38 327.741 270.047 328.905 270.047 331.114C270.047 333.311 269.38 334.461 268.138 334.461C266.896 334.461 266.242 333.298 266.242 331.114ZM272.684 331.114C272.684 334.043 273.821 335.651 275.939 335.651C278.058 335.651 279.208 334.043 279.208 331.114C279.208 328.186 278.031 326.551 275.939 326.551C273.848 326.551 272.684 328.186 272.684 331.114ZM274.044 331.114C274.044 328.905 274.724 327.741 275.939 327.741C277.182 327.741 277.848 328.905 277.848 331.114C277.848 333.311 277.182 334.461 275.939 334.461C274.697 334.461 274.044 333.298 274.044 331.114Z" fill="white"/>
<path d="M214.102 206.922V198.084H211.055V199.234H212.768V206.922H214.102ZM218.418 206.922V198.084H215.371V199.234H217.084V206.922H218.418ZM223.099 207.04C224.995 207.04 226.342 205.733 226.342 204.059C226.342 202.346 225.087 201.183 223.361 201.183C223.125 201.183 222.864 201.235 222.602 201.326L225.204 198.084H223.701L221.034 201.379C220.275 202.294 219.87 203 219.87 204.124C219.87 205.733 221.23 207.04 223.099 207.04ZM223.112 205.929C222.079 205.929 221.256 205.197 221.256 204.085C221.256 202.856 222.079 202.229 223.112 202.229C224.158 202.229 224.969 202.935 224.969 204.098C224.969 205.197 224.158 205.929 223.112 205.929ZM229.398 206.36C229.398 205.484 229.005 204.961 228.286 204.961C227.75 204.961 227.332 205.327 227.332 205.889C227.332 206.373 227.698 206.779 228.195 206.779C228.286 206.779 228.365 206.765 228.482 206.726C228.404 207.367 227.829 207.825 226.979 207.851V208.596C228.417 208.57 229.398 207.602 229.398 206.36ZM232.846 206.922V198.084H229.799V199.234H231.512V206.922H232.846ZM237.527 207.04C239.423 207.04 240.77 205.733 240.77 204.059C240.77 202.346 239.515 201.183 237.789 201.183C237.554 201.183 237.292 201.235 237.031 201.326L239.632 198.084H238.129L235.462 201.379C234.703 202.294 234.298 203 234.298 204.124C234.298 205.733 235.658 207.04 237.527 207.04ZM237.54 205.929C236.508 205.929 235.684 205.197 235.684 204.085C235.684 202.856 236.508 202.229 237.54 202.229C238.586 202.229 239.397 202.935 239.397 204.098C239.397 205.197 238.586 205.929 237.54 205.929ZM241.824 202.516C241.824 205.445 242.961 207.053 245.079 207.053C247.197 207.053 248.348 205.445 248.348 202.516C248.348 199.587 247.171 197.953 245.079 197.953C242.987 197.953 241.824 199.587 241.824 202.516ZM243.183 202.516C243.183 200.307 243.863 199.143 245.079 199.143C246.321 199.143 246.988 200.307 246.988 202.516C246.988 204.713 246.321 205.863 245.079 205.863C243.837 205.863 243.183 204.7 243.183 202.516ZM251.436 206.36C251.436 205.484 251.043 204.961 250.324 204.961C249.788 204.961 249.37 205.327 249.37 205.889C249.37 206.373 249.736 206.779 250.233 206.779C250.324 206.779 250.403 206.765 250.52 206.726C250.442 207.367 249.867 207.825 249.017 207.851V208.596C250.455 208.57 251.436 207.602 251.436 206.36ZM252.511 202.516C252.511 205.445 253.648 207.053 255.766 207.053C257.884 207.053 259.035 205.445 259.035 202.516C259.035 199.587 257.858 197.953 255.766 197.953C253.674 197.953 252.511 199.587 252.511 202.516ZM253.87 202.516C253.87 200.307 254.55 199.143 255.766 199.143C257.008 199.143 257.675 200.307 257.675 202.516C257.675 204.713 257.008 205.863 255.766 205.863C254.524 205.863 253.87 204.7 253.87 202.516ZM260.312 202.516C260.312 205.445 261.45 207.053 263.568 207.053C265.686 207.053 266.836 205.445 266.836 202.516C266.836 199.587 265.66 197.953 263.568 197.953C261.476 197.953 260.312 199.587 260.312 202.516ZM261.672 202.516C261.672 200.307 262.352 199.143 263.568 199.143C264.81 199.143 265.477 200.307 265.477 202.516C265.477 204.713 264.81 205.863 263.568 205.863C262.326 205.863 261.672 204.7 261.672 202.516ZM268.113 202.516C268.113 205.445 269.251 207.053 271.369 207.053C273.487 207.053 274.638 205.445 274.638 202.516C274.638 199.587 273.461 197.953 271.369 197.953C269.277 197.953 268.113 199.587 268.113 202.516ZM269.473 202.516C269.473 200.307 270.153 199.143 271.369 199.143C272.611 199.143 273.278 200.307 273.278 202.516C273.278 204.713 272.611 205.863 271.369 205.863C270.127 205.863 269.473 204.7 269.473 202.516Z" fill="white"/>
<path d="M210.457 378.387V369.548H207.411V370.699H209.123V378.387H210.457ZM218.501 376.439V375.288H217.298V369.548H216.278L211.728 375.51V376.439H215.977V378.387H217.298V376.439H218.501ZM213.205 375.288L215.977 371.549V375.288H213.205ZM222.544 378.517C224.596 378.517 225.734 377.145 225.734 375.563C225.734 374.059 224.675 372.699 222.727 372.699C222.125 372.699 221.563 372.882 221.066 373.275L221.458 370.725H225.224V369.548H220.504L219.719 374.477L220.792 374.817C221.158 374.177 221.746 373.85 222.53 373.85C223.707 373.85 224.361 374.647 224.361 375.563C224.361 376.569 223.759 377.328 222.544 377.328C221.563 377.328 220.844 376.765 220.752 375.824H219.432C219.497 377.393 220.818 378.517 222.544 378.517ZM228.83 377.825C228.83 376.949 228.438 376.426 227.719 376.426C227.182 376.426 226.764 376.792 226.764 377.354C226.764 377.838 227.13 378.243 227.627 378.243C227.719 378.243 227.797 378.23 227.915 378.191C227.836 378.831 227.261 379.289 226.411 379.315V380.06C227.849 380.034 228.83 379.067 228.83 377.825ZM235.977 377.21H232.251L234.029 375.196C235.48 373.654 235.859 372.948 235.859 371.941C235.859 370.49 234.657 369.417 233.009 369.417C231.257 369.417 230.028 370.594 230.028 372.229H231.323C231.323 371.248 231.976 370.607 232.957 370.607C233.859 370.607 234.474 371.222 234.474 372.098C234.474 372.895 234.068 373.51 233.022 374.647L230.264 377.628V378.387H235.977V377.21ZM237.196 373.981C237.196 376.909 238.333 378.517 240.451 378.517C242.569 378.517 243.72 376.909 243.72 373.981C243.72 371.052 242.543 369.417 240.451 369.417C238.359 369.417 237.196 371.052 237.196 373.981ZM238.556 373.981C238.556 371.771 239.235 370.607 240.451 370.607C241.693 370.607 242.36 371.771 242.36 373.981C242.36 376.177 241.693 377.328 240.451 377.328C239.209 377.328 238.556 376.164 238.556 373.981ZM244.997 373.981C244.997 376.909 246.135 378.517 248.253 378.517C250.371 378.517 251.521 376.909 251.521 373.981C251.521 371.052 250.345 369.417 248.253 369.417C246.161 369.417 244.997 371.052 244.997 373.981ZM246.357 373.981C246.357 371.771 247.037 370.607 248.253 370.607C249.495 370.607 250.162 371.771 250.162 373.981C250.162 376.177 249.495 377.328 248.253 377.328C247.011 377.328 246.357 376.164 246.357 373.981ZM254.609 377.825C254.609 376.949 254.217 376.426 253.498 376.426C252.962 376.426 252.543 376.792 252.543 377.354C252.543 377.838 252.909 378.243 253.406 378.243C253.498 378.243 253.576 378.23 253.694 378.191C253.615 378.831 253.04 379.289 252.19 379.315V380.06C253.628 380.034 254.609 379.067 254.609 377.825ZM255.684 373.981C255.684 376.909 256.822 378.517 258.94 378.517C261.058 378.517 262.208 376.909 262.208 373.981C262.208 371.052 261.032 369.417 258.94 369.417C256.848 369.417 255.684 371.052 255.684 373.981ZM257.044 373.981C257.044 371.771 257.724 370.607 258.94 370.607C260.182 370.607 260.849 371.771 260.849 373.981C260.849 376.177 260.182 377.328 258.94 377.328C257.698 377.328 257.044 376.164 257.044 373.981ZM263.486 373.981C263.486 376.909 264.623 378.517 266.741 378.517C268.859 378.517 270.01 376.909 270.01 373.981C270.01 371.052 268.833 369.417 266.741 369.417C264.649 369.417 263.486 371.052 263.486 373.981ZM264.845 373.981C264.845 371.771 265.525 370.607 266.741 370.607C267.983 370.607 268.65 371.771 268.65 373.981C268.65 376.177 267.983 377.328 266.741 377.328C265.499 377.328 264.845 376.164 264.845 373.981ZM271.287 373.981C271.287 376.909 272.424 378.517 274.543 378.517C276.661 378.517 277.811 376.909 277.811 373.981C277.811 371.052 276.634 369.417 274.543 369.417C272.451 369.417 271.287 371.052 271.287 373.981ZM272.647 373.981C272.647 371.771 273.327 370.607 274.543 370.607C275.785 370.607 276.451 371.771 276.451 373.981C276.451 376.177 275.785 377.328 274.543 377.328C273.3 377.328 272.647 376.164 272.647 373.981Z" fill="white"/>
<path d="M216.587 248.612H212.86L214.638 246.598C216.09 245.056 216.469 244.35 216.469 243.343C216.469 241.891 215.266 240.819 213.619 240.819C211.867 240.819 210.638 241.996 210.638 243.63H211.932C211.932 242.65 212.586 242.009 213.566 242.009C214.469 242.009 215.083 242.624 215.083 243.5C215.083 244.297 214.678 244.912 213.632 246.049L210.873 249.03V249.789H216.587V248.612ZM220.889 240.832C219.007 240.832 217.647 242.14 217.647 243.813C217.647 245.513 218.902 246.677 220.615 246.677C220.863 246.677 221.125 246.638 221.386 246.546L218.784 249.789H220.301L222.955 246.494C223.74 245.526 224.119 244.833 224.119 243.748C224.119 242.14 222.772 240.832 220.889 240.832ZM220.876 241.944C221.909 241.944 222.746 242.676 222.746 243.787C222.746 245.016 221.909 245.644 220.876 245.644C219.83 245.644 219.02 244.938 219.02 243.774C219.02 242.676 219.83 241.944 220.876 241.944ZM226.383 249.226C226.383 248.35 225.991 247.827 225.271 247.827C224.735 247.827 224.317 248.193 224.317 248.756C224.317 249.239 224.683 249.645 225.18 249.645C225.271 249.645 225.35 249.632 225.468 249.592C225.389 250.233 224.814 250.691 223.964 250.717V251.462C225.402 251.436 226.383 250.468 226.383 249.226ZM227.458 245.382C227.458 248.311 228.595 249.919 230.714 249.919C232.832 249.919 233.982 248.311 233.982 245.382C233.982 242.454 232.806 240.819 230.714 240.819C228.622 240.819 227.458 242.454 227.458 245.382ZM228.818 245.382C228.818 243.173 229.498 242.009 230.714 242.009C231.956 242.009 232.622 243.173 232.622 245.382C232.622 247.579 231.956 248.73 230.714 248.73C229.471 248.73 228.818 247.566 228.818 245.382ZM241.692 247.84V246.69H240.489V240.95H239.469L234.919 246.912V247.84H239.169V249.789H240.489V247.84H241.692ZM236.397 246.69L239.169 242.951V246.69H236.397ZM242.805 245.382C242.805 248.311 243.943 249.919 246.061 249.919C248.179 249.919 249.33 248.311 249.33 245.382C249.33 242.454 248.153 240.819 246.061 240.819C243.969 240.819 242.805 242.454 242.805 245.382ZM244.165 245.382C244.165 243.173 244.845 242.009 246.061 242.009C247.303 242.009 247.97 243.173 247.97 245.382C247.97 247.579 247.303 248.73 246.061 248.73C244.819 248.73 244.165 247.566 244.165 245.382ZM252.417 249.226C252.417 248.35 252.025 247.827 251.306 247.827C250.77 247.827 250.351 248.193 250.351 248.756C250.351 249.239 250.718 249.645 251.214 249.645C251.306 249.645 251.384 249.632 251.502 249.592C251.424 250.233 250.848 250.691 249.998 250.717V251.462C251.437 251.436 252.417 250.468 252.417 249.226ZM253.492 245.382C253.492 248.311 254.63 249.919 256.748 249.919C258.866 249.919 260.017 248.311 260.017 245.382C260.017 242.454 258.84 240.819 256.748 240.819C254.656 240.819 253.492 242.454 253.492 245.382ZM254.852 245.382C254.852 243.173 255.532 242.009 256.748 242.009C257.99 242.009 258.657 243.173 258.657 245.382C258.657 247.579 257.99 248.73 256.748 248.73C255.506 248.73 254.852 247.566 254.852 245.382ZM261.294 245.382C261.294 248.311 262.431 249.919 264.549 249.919C266.668 249.919 267.818 248.311 267.818 245.382C267.818 242.454 266.641 240.819 264.549 240.819C262.457 240.819 261.294 242.454 261.294 245.382ZM262.654 245.382C262.654 243.173 263.333 242.009 264.549 242.009C265.792 242.009 266.458 243.173 266.458 245.382C266.458 247.579 265.792 248.73 264.549 248.73C263.307 248.73 262.654 247.566 262.654 245.382ZM269.095 245.382C269.095 248.311 270.233 249.919 272.351 249.919C274.469 249.919 275.619 248.311 275.619 245.382C275.619 242.454 274.443 240.819 272.351 240.819C270.259 240.819 269.095 242.454 269.095 245.382ZM270.455 245.382C270.455 243.173 271.135 242.009 272.351 242.009C273.593 242.009 274.26 243.173 274.26 245.382C274.26 247.579 273.593 248.73 272.351 248.73C271.109 248.73 270.455 247.566 270.455 245.382Z" fill="white"/>
<path d="M209.882 412.297C207.999 412.297 206.639 413.605 206.639 415.278C206.639 416.978 207.894 418.142 209.607 418.142C209.855 418.142 210.117 418.102 210.378 418.011L207.777 421.253H209.293L211.947 417.959C212.732 416.991 213.111 416.298 213.111 415.213C213.111 413.605 211.764 412.297 209.882 412.297ZM209.869 413.409C210.901 413.409 211.738 414.141 211.738 415.252C211.738 416.481 210.901 417.109 209.869 417.109C208.823 417.109 208.012 416.403 208.012 415.239C208.012 414.141 208.823 413.409 209.869 413.409ZM220.573 418.769C220.573 417.697 219.854 416.991 218.926 416.651C219.658 416.324 220.233 415.631 220.233 414.729C220.233 413.291 219.017 412.284 217.343 412.284C215.644 412.284 214.441 413.291 214.441 414.729C214.441 415.631 215.003 416.324 215.748 416.651C214.82 416.991 214.088 417.697 214.088 418.769C214.088 420.312 215.408 421.371 217.343 421.371C219.265 421.371 220.573 420.312 220.573 418.769ZM215.801 414.768C215.801 413.892 216.428 413.343 217.343 413.343C218.246 413.343 218.873 413.892 218.873 414.768C218.873 415.631 218.246 416.154 217.343 416.154C216.428 416.154 215.801 415.631 215.801 414.768ZM215.474 418.743C215.474 417.789 216.232 417.213 217.343 417.213C218.442 417.213 219.213 417.789 219.213 418.743C219.213 419.724 218.442 420.312 217.343 420.312C216.232 420.312 215.474 419.724 215.474 418.743ZM227.166 413.186V412.415H221.204V413.605H225.688L222.328 421.253H223.753L227.166 413.186ZM229.331 420.691C229.331 419.815 228.939 419.292 228.219 419.292C227.683 419.292 227.265 419.658 227.265 420.221C227.265 420.704 227.631 421.11 228.128 421.11C228.219 421.11 228.298 421.097 228.416 421.057C228.337 421.698 227.762 422.156 226.912 422.182V422.927C228.35 422.901 229.331 421.933 229.331 420.691ZM233.606 421.371C235.489 421.371 236.77 420.299 236.77 418.73C236.77 417.71 236.103 416.952 234.94 416.638C235.855 416.207 236.365 415.514 236.365 414.651C236.365 413.265 235.267 412.284 233.567 412.284C231.959 412.284 230.73 413.369 230.691 414.821H231.972C232.011 413.919 232.613 413.343 233.515 413.343C234.404 413.343 234.992 413.905 234.992 414.742C234.992 415.605 234.338 416.18 233.345 416.18H232.495V417.239H233.41C234.626 417.239 235.397 417.828 235.397 418.756C235.397 419.711 234.718 420.312 233.606 420.312C232.534 420.312 231.828 419.698 231.776 418.743H230.481C230.494 420.299 231.776 421.371 233.606 421.371ZM241.01 421.371C242.906 421.371 244.253 420.064 244.253 418.39C244.253 416.677 242.998 415.514 241.272 415.514C241.036 415.514 240.775 415.566 240.513 415.657L243.115 412.415H241.612L238.944 415.71C238.186 416.625 237.781 417.331 237.781 418.455C237.781 420.064 239.141 421.371 241.01 421.371ZM241.023 420.26C239.99 420.26 239.167 419.528 239.167 418.416C239.167 417.187 239.99 416.56 241.023 416.56C242.069 416.56 242.88 417.266 242.88 418.429C242.88 419.528 242.069 420.26 241.023 420.26ZM245.307 416.847C245.307 419.776 246.444 421.384 248.562 421.384C250.68 421.384 251.831 419.776 251.831 416.847C251.831 413.919 250.654 412.284 248.562 412.284C246.47 412.284 245.307 413.919 245.307 416.847ZM246.666 416.847C246.666 414.638 247.346 413.474 248.562 413.474C249.804 413.474 250.471 414.638 250.471 416.847C250.471 419.044 249.804 420.194 248.562 420.194C247.32 420.194 246.666 419.031 246.666 416.847ZM254.918 420.691C254.918 419.815 254.526 419.292 253.807 419.292C253.271 419.292 252.853 419.658 252.853 420.221C252.853 420.704 253.219 421.11 253.715 421.11C253.807 421.11 253.885 421.097 254.003 421.057C253.925 421.698 253.349 422.156 252.5 422.182V422.927C253.938 422.901 254.918 421.933 254.918 420.691ZM255.994 416.847C255.994 419.776 257.131 421.384 259.249 421.384C261.367 421.384 262.518 419.776 262.518 416.847C262.518 413.919 261.341 412.284 259.249 412.284C257.157 412.284 255.994 413.919 255.994 416.847ZM257.353 416.847C257.353 414.638 258.033 413.474 259.249 413.474C260.491 413.474 261.158 414.638 261.158 416.847C261.158 419.044 260.491 420.194 259.249 420.194C258.007 420.194 257.353 419.031 257.353 416.847ZM263.795 416.847C263.795 419.776 264.932 421.384 267.051 421.384C269.169 421.384 270.319 419.776 270.319 416.847C270.319 413.919 269.142 412.284 267.051 412.284C264.959 412.284 263.795 413.919 263.795 416.847ZM265.155 416.847C265.155 414.638 265.835 413.474 267.051 413.474C268.293 413.474 268.959 414.638 268.959 416.847C268.959 419.044 268.293 420.194 267.051 420.194C265.808 420.194 265.155 419.031 265.155 416.847ZM271.596 416.847C271.596 419.776 272.734 421.384 274.852 421.384C276.97 421.384 278.121 419.776 278.121 416.847C278.121 413.919 276.944 412.284 274.852 412.284C272.76 412.284 271.596 413.919 271.596 416.847ZM272.956 416.847C272.956 414.638 273.636 413.474 274.852 413.474C276.094 413.474 276.761 414.638 276.761 416.847C276.761 419.044 276.094 420.194 274.852 420.194C273.61 420.194 272.956 419.031 272.956 416.847Z" fill="white"/>
<path d="M331.405 78.3519C333.51 78.3519 334.87 77.2406 334.87 75.2663C334.87 73.3051 333.51 72.233 331.405 72.233H328.15V81.6206H329.588V78.3519H331.405ZM331.392 73.4489C332.66 73.4489 333.432 74.1157 333.432 75.2794C333.432 76.443 332.66 77.136 331.392 77.136H329.588V73.4489H331.392ZM338.927 81.7514C340.561 81.7514 341.751 80.8231 342.091 79.2802H340.783C340.561 80.1824 339.881 80.7185 338.9 80.7185C337.737 80.7185 337.031 79.8947 336.926 78.4827H342.091C342.326 76.2338 340.953 74.5603 338.887 74.5603C336.978 74.5603 335.579 76.0639 335.579 78.1166C335.579 80.3001 336.926 81.7514 338.927 81.7514ZM338.861 75.554C339.933 75.554 340.626 76.3254 340.692 77.6067H336.939C337.083 76.3123 337.802 75.554 338.861 75.554ZM344.815 78.0774C344.815 76.5476 345.9 75.8939 347.391 75.9723V74.5995C346.253 74.5995 345.207 75.2009 344.724 76.1554V74.691H343.495V81.6206H344.815V78.0774ZM351.143 81.7644C352.882 81.7644 354.111 80.64 354.346 78.8095H352.973C352.817 79.934 352.137 80.5877 351.156 80.5877C350.019 80.5877 349.273 79.6333 349.273 78.1558C349.273 76.6915 350.019 75.7239 351.156 75.7239C352.124 75.7239 352.817 76.3907 352.96 77.5021H354.346C354.098 75.6978 352.856 74.5603 351.143 74.5603C349.273 74.5603 347.914 76.0639 347.914 78.1558C347.914 80.2739 349.247 81.7644 351.143 81.7644ZM358.462 81.7514C360.096 81.7514 361.286 80.8231 361.626 79.2802H360.319C360.096 80.1824 359.416 80.7185 358.436 80.7185C357.272 80.7185 356.566 79.8947 356.462 78.4827H361.626C361.861 76.2338 360.489 74.5603 358.423 74.5603C356.514 74.5603 355.115 76.0639 355.115 78.1166C355.115 80.3001 356.462 81.7514 358.462 81.7514ZM358.397 75.554C359.469 75.554 360.162 76.3254 360.227 77.6067H356.475C356.618 76.3123 357.338 75.554 358.397 75.554ZM364.351 77.7113C364.351 76.4823 365.109 75.7239 366.011 75.7239C366.992 75.7239 367.515 76.3907 367.515 77.5805V81.6206H368.835V77.136C368.835 75.4755 367.894 74.5603 366.469 74.5603C365.514 74.5603 364.73 75.0702 364.259 75.8416V74.691H363.03V81.6206H364.351V77.7113ZM374.473 80.3393C374.198 80.47 373.923 80.5223 373.61 80.5223C372.904 80.5223 372.446 80.1824 372.446 79.2279V75.8154H374.538V74.691H372.446V72.6383H371.126V74.691H369.596V75.8154H371.126V79.5287C371.126 81.0584 372.015 81.7514 373.296 81.7514C373.714 81.7514 374.067 81.686 374.473 81.5029V80.3393ZM379.995 81.6206H381.094V77.1752C381.094 75.5278 380.1 74.5603 378.387 74.5603C376.766 74.5603 375.654 75.5932 375.589 77.1491H376.792C376.831 76.1815 377.42 75.6063 378.387 75.6063C379.302 75.6063 379.838 76.1685 379.838 77.1621V77.6721C379.276 77.6067 378.949 77.5936 378.544 77.5936C376.478 77.5936 375.393 78.2996 375.393 79.6594C375.393 80.9276 376.334 81.7514 377.773 81.7514C378.792 81.7514 379.564 81.3199 379.995 80.5485V81.6206ZM376.648 79.6202C376.648 78.8095 377.302 78.4173 378.622 78.4173C378.962 78.4173 379.328 78.4304 379.838 78.4958V79.058C379.838 80.117 379.145 80.81 378.034 80.81C377.184 80.81 376.648 80.3393 376.648 79.6202ZM385.631 84.2878C387.592 84.2878 388.756 83.2026 388.756 81.3853V74.691H387.527V75.92C387.056 75.044 386.272 74.5603 385.278 74.5603C383.539 74.5603 382.362 75.9462 382.362 78.012C382.362 80.0516 383.591 81.4768 385.317 81.4768C386.259 81.4768 387.043 80.993 387.435 80.1562V81.4114C387.435 82.6012 386.808 83.2419 385.618 83.2419C384.546 83.2419 383.918 82.7189 383.84 81.7514H382.558C382.637 83.3203 383.814 84.2878 385.631 84.2878ZM383.696 78.012C383.696 76.5869 384.415 75.6978 385.553 75.6978C386.69 75.6978 387.435 76.613 387.435 78.0512C387.435 79.4241 386.677 80.3262 385.553 80.3262C384.402 80.3262 383.696 79.4502 383.696 78.012ZM393.434 81.7514C395.069 81.7514 396.258 80.8231 396.598 79.2802H395.291C395.069 80.1824 394.389 80.7185 393.408 80.7185C392.244 80.7185 391.538 79.8947 391.434 78.4827H396.598C396.834 76.2338 395.461 74.5603 393.395 74.5603C391.486 74.5603 390.087 76.0639 390.087 78.1166C390.087 80.3001 391.434 81.7514 393.434 81.7514ZM393.369 75.554C394.441 75.554 395.134 76.3254 395.199 77.6067H391.447C391.591 76.3123 392.31 75.554 393.369 75.554Z" fill="white"/>
<path d="M350.411 121.307C352.294 121.307 353.575 120.235 353.575 118.666C353.575 117.646 352.908 116.888 351.745 116.574C352.66 116.143 353.17 115.45 353.17 114.587C353.17 113.201 352.071 112.22 350.372 112.22C348.763 112.22 347.534 113.305 347.495 114.757H348.777C348.816 113.855 349.417 113.279 350.319 113.279C351.208 113.279 351.797 113.841 351.797 114.678C351.797 115.541 351.143 116.116 350.149 116.116H349.3V117.176H350.215C351.431 117.176 352.202 117.764 352.202 118.692C352.202 119.647 351.522 120.248 350.411 120.248C349.339 120.248 348.633 119.634 348.58 118.679H347.286C347.299 120.235 348.58 121.307 350.411 121.307ZM361.254 118.705C361.254 117.633 360.535 116.927 359.607 116.587C360.339 116.26 360.914 115.567 360.914 114.665C360.914 113.227 359.698 112.22 358.025 112.22C356.325 112.22 355.122 113.227 355.122 114.665C355.122 115.567 355.684 116.26 356.43 116.587C355.501 116.927 354.769 117.633 354.769 118.705C354.769 120.248 356.09 121.307 358.025 121.307C359.947 121.307 361.254 120.248 361.254 118.705ZM356.482 114.704C356.482 113.828 357.11 113.279 358.025 113.279C358.927 113.279 359.554 113.828 359.554 114.704C359.554 115.567 358.927 116.09 358.025 116.09C357.11 116.09 356.482 115.567 356.482 114.704ZM356.155 118.679C356.155 117.725 356.913 117.149 358.025 117.149C359.123 117.149 359.894 117.725 359.894 118.679C359.894 119.66 359.123 120.248 358.025 120.248C356.913 120.248 356.155 119.66 356.155 118.679ZM365.03 117.764C366.638 117.764 367.789 116.535 367.789 115.018C367.789 113.502 366.638 112.273 365.03 112.273C363.435 112.273 362.284 113.502 362.284 115.018C362.284 116.535 363.435 117.764 365.03 117.764ZM366.913 121.189L371.907 112.351H370.822L365.827 121.189H366.913ZM365.03 116.809C364.154 116.809 363.395 116.182 363.395 115.018C363.395 113.841 364.154 113.227 365.03 113.227C365.919 113.227 366.677 113.841 366.677 115.018C366.677 116.182 365.919 116.809 365.03 116.809ZM372.848 121.294C374.457 121.294 375.594 120.078 375.594 118.548C375.594 117.032 374.457 115.803 372.848 115.803C371.24 115.803 370.103 117.032 370.103 118.548C370.103 120.078 371.24 121.294 372.848 121.294ZM372.848 120.34C371.972 120.34 371.201 119.712 371.201 118.548C371.201 117.385 371.972 116.77 372.848 116.77C373.738 116.77 374.483 117.385 374.483 118.548C374.483 119.712 373.738 120.34 372.848 120.34Z" fill="white"/>
<path d="M357.413 284.588V283.816H351.45V285.006H355.935L352.575 292.655H354L357.413 284.588ZM360.865 289.229C362.473 289.229 363.623 288 363.623 286.484C363.623 284.967 362.473 283.738 360.865 283.738C359.269 283.738 358.119 284.967 358.119 286.484C358.119 288 359.269 289.229 360.865 289.229ZM362.747 292.655L367.742 283.816H366.657L361.662 292.655H362.747ZM360.865 288.275C359.989 288.275 359.23 287.647 359.23 286.484C359.23 285.307 359.989 284.692 360.865 284.692C361.754 284.692 362.512 285.307 362.512 286.484C362.512 287.647 361.754 288.275 360.865 288.275ZM368.683 292.759C370.291 292.759 371.429 291.543 371.429 290.014C371.429 288.497 370.291 287.268 368.683 287.268C367.075 287.268 365.938 288.497 365.938 290.014C365.938 291.543 367.075 292.759 368.683 292.759ZM368.683 291.805C367.807 291.805 367.036 291.177 367.036 290.014C367.036 288.85 367.807 288.236 368.683 288.236C369.572 288.236 370.318 288.85 370.318 290.014C370.318 291.177 369.572 291.805 368.683 291.805Z" fill="white"/>
<path d="M356.403 164.056V155.217H353.357V156.368H355.07V164.056H356.403ZM360.575 160.63C362.183 160.63 363.334 159.401 363.334 157.884C363.334 156.368 362.183 155.139 360.575 155.139C358.98 155.139 357.829 156.368 357.829 157.884C357.829 159.401 358.98 160.63 360.575 160.63ZM362.458 164.056L367.452 155.217H366.367L361.373 164.056H362.458ZM360.575 159.676C359.699 159.676 358.941 159.048 358.941 157.884C358.941 156.708 359.699 156.093 360.575 156.093C361.464 156.093 362.222 156.708 362.222 157.884C362.222 159.048 361.464 159.676 360.575 159.676ZM368.394 164.16C370.002 164.16 371.139 162.944 371.139 161.415C371.139 159.898 370.002 158.669 368.394 158.669C366.785 158.669 365.648 159.898 365.648 161.415C365.648 162.944 366.785 164.16 368.394 164.16ZM368.394 163.206C367.518 163.206 366.746 162.578 366.746 161.415C366.746 160.251 367.518 159.636 368.394 159.636C369.283 159.636 370.028 160.251 370.028 161.415C370.028 162.578 369.283 163.206 368.394 163.206Z" fill="white"/>
<path d="M358.212 204.37V203.22H357.009V197.48H355.989L351.439 203.442V204.37H355.688V206.318H357.009V204.37H358.212ZM352.917 203.22L355.688 199.48V203.22H352.917ZM361.822 202.893C363.431 202.893 364.581 201.664 364.581 200.147C364.581 198.63 363.431 197.401 361.822 197.401C360.227 197.401 359.077 198.63 359.077 200.147C359.077 201.664 360.227 202.893 361.822 202.893ZM363.705 206.318L368.7 197.48H367.614L362.62 206.318H363.705ZM361.822 201.938C360.946 201.938 360.188 201.311 360.188 200.147C360.188 198.97 360.946 198.356 361.822 198.356C362.711 198.356 363.47 198.97 363.47 200.147C363.47 201.311 362.711 201.938 361.822 201.938ZM369.641 206.423C371.249 206.423 372.387 205.207 372.387 203.677C372.387 202.161 371.249 200.932 369.641 200.932C368.033 200.932 366.895 202.161 366.895 203.677C366.895 205.207 368.033 206.423 369.641 206.423ZM369.641 205.469C368.765 205.469 367.994 204.841 367.994 203.677C367.994 202.514 368.765 201.899 369.641 201.899C370.53 201.899 371.275 202.514 371.275 203.677C371.275 204.841 370.53 205.469 369.641 205.469Z" fill="white"/>
<path d="M352.767 335.521V326.682H349.72V327.833H351.433V335.521H352.767ZM354.441 331.114C354.441 334.043 355.579 335.651 357.697 335.651C359.815 335.651 360.966 334.043 360.966 331.114C360.966 328.186 359.789 326.551 357.697 326.551C355.605 326.551 354.441 328.186 354.441 331.114ZM355.801 331.114C355.801 328.905 356.481 327.741 357.697 327.741C358.939 327.741 359.606 328.905 359.606 331.114C359.606 333.311 358.939 334.461 357.697 334.461C356.455 334.461 355.801 333.298 355.801 331.114ZM364.74 332.095C366.348 332.095 367.499 330.866 367.499 329.349C367.499 327.833 366.348 326.604 364.74 326.604C363.145 326.604 361.994 327.833 361.994 329.349C361.994 330.866 363.145 332.095 364.74 332.095ZM366.623 335.521L371.617 326.682H370.532L365.538 335.521H366.623ZM364.74 331.14C363.864 331.14 363.106 330.513 363.106 329.349C363.106 328.173 363.864 327.558 364.74 327.558C365.629 327.558 366.387 328.173 366.387 329.349C366.387 330.513 365.629 331.14 364.74 331.14ZM372.559 335.625C374.167 335.625 375.304 334.409 375.304 332.879C375.304 331.363 374.167 330.134 372.559 330.134C370.951 330.134 369.813 331.363 369.813 332.879C369.813 334.409 370.951 335.625 372.559 335.625ZM372.559 334.671C371.683 334.671 370.911 334.043 370.911 332.879C370.911 331.716 371.683 331.101 372.559 331.101C373.448 331.101 374.193 331.716 374.193 332.879C374.193 334.043 373.448 334.671 372.559 334.671Z" fill="white"/>
<path d="M355.828 378.517C357.88 378.517 359.018 377.145 359.018 375.563C359.018 374.059 357.959 372.699 356.011 372.699C355.409 372.699 354.847 372.882 354.35 373.275L354.743 370.725H358.508V369.548H353.788L353.004 374.477L354.076 374.817C354.442 374.177 355.03 373.85 355.815 373.85C356.991 373.85 357.645 374.647 357.645 375.563C357.645 376.569 357.044 377.328 355.828 377.328C354.847 377.328 354.128 376.765 354.037 375.824H352.716C352.781 377.393 354.102 378.517 355.828 378.517ZM362.609 374.961C364.218 374.961 365.368 373.732 365.368 372.215C365.368 370.699 364.218 369.47 362.609 369.47C361.014 369.47 359.864 370.699 359.864 372.215C359.864 373.732 361.014 374.961 362.609 374.961ZM364.492 378.387L369.487 369.548H368.402L363.407 378.387H364.492ZM362.609 374.007C361.733 374.007 360.975 373.379 360.975 372.215C360.975 371.039 361.733 370.424 362.609 370.424C363.499 370.424 364.257 371.039 364.257 372.215C364.257 373.379 363.499 374.007 362.609 374.007ZM370.428 378.491C372.036 378.491 373.174 377.275 373.174 375.746C373.174 374.229 372.036 373 370.428 373C368.82 373 367.682 374.229 367.682 375.746C367.682 377.275 368.82 378.491 370.428 378.491ZM370.428 377.537C369.552 377.537 368.781 376.909 368.781 375.746C368.781 374.582 369.552 373.967 370.428 373.967C371.317 373.967 372.062 374.582 372.062 375.746C372.062 376.909 371.317 377.537 370.428 377.537Z" fill="white"/>
<path d="M356.403 249.789V240.95H353.357V242.101H355.07V249.789H356.403ZM360.575 246.363C362.183 246.363 363.334 245.134 363.334 243.617C363.334 242.101 362.183 240.872 360.575 240.872C358.98 240.872 357.829 242.101 357.829 243.617C357.829 245.134 358.98 246.363 360.575 246.363ZM362.458 249.789L367.452 240.95H366.367L361.373 249.789H362.458ZM360.575 245.409C359.699 245.409 358.941 244.781 358.941 243.617C358.941 242.441 359.699 241.826 360.575 241.826C361.464 241.826 362.222 242.441 362.222 243.617C362.222 244.781 361.464 245.409 360.575 245.409ZM368.394 249.893C370.002 249.893 371.139 248.677 371.139 247.147C371.139 245.631 370.002 244.402 368.394 244.402C366.785 244.402 365.648 245.631 365.648 247.147C365.648 248.677 366.785 249.893 368.394 249.893ZM368.394 248.939C367.518 248.939 366.746 248.311 366.746 247.147C366.746 245.984 367.518 245.369 368.394 245.369C369.283 245.369 370.028 245.984 370.028 247.147C370.028 248.311 369.283 248.939 368.394 248.939Z" fill="white"/>
<path d="M351.362 421.371C353.245 421.371 354.526 420.299 354.526 418.73C354.526 417.71 353.859 416.952 352.696 416.638C353.611 416.207 354.121 415.514 354.121 414.651C354.121 413.265 353.023 412.284 351.323 412.284C349.715 412.284 348.486 413.369 348.446 414.821H349.728C349.767 413.919 350.368 413.343 351.271 413.343C352.16 413.343 352.748 413.905 352.748 414.742C352.748 415.605 352.094 416.18 351.101 416.18H350.251V417.239H351.166C352.382 417.239 353.153 417.828 353.153 418.756C353.153 419.711 352.473 420.312 351.362 420.312C350.29 420.312 349.584 419.698 349.532 418.743H348.237C348.25 420.299 349.532 421.371 351.362 421.371ZM362.23 419.305V418.155H361.027V412.415H360.007L355.457 418.377V419.305H359.707V421.253H361.027V419.305H362.23ZM356.935 418.155L359.707 414.415V418.155H356.935ZM365.841 417.828C367.449 417.828 368.599 416.599 368.599 415.082C368.599 413.566 367.449 412.336 365.841 412.336C364.245 412.336 363.095 413.566 363.095 415.082C363.095 416.599 364.245 417.828 365.841 417.828ZM367.723 421.253L372.718 412.415H371.633L366.638 421.253H367.723ZM365.841 416.873C364.965 416.873 364.206 416.246 364.206 415.082C364.206 413.905 364.965 413.291 365.841 413.291C366.73 413.291 367.488 413.905 367.488 415.082C367.488 416.246 366.73 416.873 365.841 416.873ZM373.659 421.358C375.267 421.358 376.405 420.142 376.405 418.612C376.405 417.096 375.267 415.867 373.659 415.867C372.051 415.867 370.914 417.096 370.914 418.612C370.914 420.142 372.051 421.358 373.659 421.358ZM373.659 420.404C372.783 420.404 372.012 419.776 372.012 418.612C372.012 417.449 372.783 416.834 373.659 416.834C374.548 416.834 375.294 417.449 375.294 418.612C375.294 419.776 374.548 420.404 373.659 420.404Z" fill="white"/>
<path d="M86.219 117.921C88.3241 117.921 89.6838 116.809 89.6838 114.835C89.6838 112.874 88.3241 111.802 86.219 111.802H82.9634V121.189H84.4017V117.921H86.219ZM86.206 113.018C87.4742 113.018 88.2456 113.685 88.2456 114.848C88.2456 116.012 87.4742 116.705 86.206 116.705H84.4017V113.018H86.206ZM95.3455 118.339C95.3455 119.424 94.6264 120.157 93.7373 120.157C92.8744 120.157 92.2729 119.66 92.2729 118.457V114.26H90.9524V118.718C90.9524 120.496 91.9199 121.32 93.3189 121.32C94.2603 121.32 95.0709 120.81 95.437 120.091V121.189H96.666V114.26H95.3455V118.339ZM105.116 117.725C105.116 115.62 103.9 114.129 102.043 114.129C101.102 114.129 100.304 114.6 99.8205 115.45V111.802H98.4999V121.189H99.729V119.947C100.226 120.823 101.063 121.32 102.043 121.32C103.913 121.32 105.116 119.804 105.116 117.725ZM103.743 117.725C103.743 119.267 102.919 120.143 101.782 120.143C100.657 120.143 99.8205 119.228 99.8205 117.699C99.8205 116.143 100.683 115.293 101.782 115.293C102.919 115.293 103.743 116.156 103.743 117.725ZM107.788 121.189V111.802H106.455V121.189H107.788ZM111.229 112.652C111.229 112.142 110.837 111.776 110.275 111.776C109.713 111.776 109.307 112.142 109.307 112.652C109.307 113.149 109.713 113.528 110.275 113.528C110.837 113.528 111.229 113.149 111.229 112.652ZM110.942 121.189V114.26H109.621V121.189H110.942ZM115.507 121.333C117.246 121.333 118.475 120.209 118.711 118.378H117.338C117.181 119.503 116.501 120.157 115.521 120.157C114.383 120.157 113.638 119.202 113.638 117.725C113.638 116.26 114.383 115.293 115.521 115.293C116.488 115.293 117.181 115.96 117.325 117.071H118.711C118.462 115.267 117.22 114.129 115.507 114.129C113.638 114.129 112.278 115.633 112.278 117.725C112.278 119.843 113.612 121.333 115.507 121.333ZM128.264 119.124C128.264 118.13 127.61 117.529 126.237 117.28L125.06 117.058C124.224 116.901 123.871 116.639 123.871 116.077C123.871 115.476 124.433 115.123 125.27 115.123C126.198 115.123 126.812 115.607 126.891 116.443H128.159C128.041 115.018 126.917 114.129 125.257 114.129C123.648 114.129 122.589 114.979 122.589 116.195C122.589 117.241 123.308 117.895 124.59 118.143L125.714 118.352C126.577 118.522 126.93 118.771 126.93 119.346C126.93 120 126.316 120.327 125.387 120.327C124.328 120.327 123.635 119.79 123.583 118.928H122.315C122.446 120.418 123.531 121.32 125.361 121.32C127.205 121.32 128.264 120.483 128.264 119.124ZM133.902 121.189H135.001V116.744C135.001 115.097 134.007 114.129 132.294 114.129C130.673 114.129 129.562 115.162 129.496 116.718H130.699C130.738 115.75 131.327 115.175 132.294 115.175C133.21 115.175 133.746 115.737 133.746 116.731V117.241C133.183 117.176 132.857 117.162 132.451 117.162C130.385 117.162 129.3 117.868 129.3 119.228C129.3 120.496 130.242 121.32 131.68 121.32C132.7 121.32 133.471 120.889 133.902 120.117V121.189ZM130.555 119.189C130.555 118.378 131.209 117.986 132.53 117.986C132.87 117.986 133.236 117.999 133.746 118.065V118.627C133.746 119.686 133.053 120.379 131.941 120.379C131.091 120.379 130.555 119.908 130.555 119.189ZM138.1 121.189V111.802H136.766V121.189H138.1ZM142.783 121.32C144.417 121.32 145.607 120.392 145.947 118.849H144.64C144.417 119.751 143.738 120.287 142.757 120.287C141.593 120.287 140.887 119.464 140.783 118.052H145.947C146.183 115.803 144.81 114.129 142.744 114.129C140.835 114.129 139.436 115.633 139.436 117.685C139.436 119.869 140.783 121.32 142.783 121.32ZM142.718 115.123C143.79 115.123 144.483 115.894 144.548 117.176H140.796C140.94 115.881 141.659 115.123 142.718 115.123Z" fill="white"/>
<path d="M89.8277 289.909C89.8277 288.51 88.9255 287.804 87.3173 287.477L85.9314 287.203C85.0554 287.02 84.284 286.706 84.284 285.817C84.284 285.006 84.9508 284.287 86.1667 284.287C87.3435 284.287 88.1541 285.071 88.2325 286.196H89.6969C89.5792 284.326 88.1018 283.136 86.1537 283.136C84.2055 283.136 82.8196 284.326 82.8196 285.908C82.8196 287.503 84.0225 288.17 85.343 288.432L86.7028 288.693C87.788 288.929 88.2979 289.321 88.2979 290.105C88.2979 291.073 87.4088 291.635 86.219 291.635C84.7808 291.635 84.0225 290.864 83.9571 289.674H82.4928C82.6104 291.543 83.9833 292.786 86.2452 292.786C88.5202 292.786 89.8277 291.543 89.8277 289.909ZM95.3229 291.373C95.0483 291.504 94.7738 291.557 94.46 291.557C93.7539 291.557 93.2963 291.217 93.2963 290.262V286.85H95.3883V285.725H93.2963V283.672H91.9758V285.725H90.446V286.85H91.9758V290.563C91.9758 292.093 92.8649 292.786 94.1462 292.786C94.5646 292.786 94.9176 292.72 95.3229 292.537V291.373ZM100.846 292.655H101.944V288.209C101.944 286.562 100.95 285.594 99.2373 285.594C97.6161 285.594 96.5047 286.627 96.4394 288.183H97.6422C97.6814 287.216 98.2698 286.64 99.2373 286.64C100.153 286.64 100.689 287.203 100.689 288.196V288.706C100.126 288.641 99.7995 288.628 99.3942 288.628C97.3284 288.628 96.2432 289.334 96.2432 290.694C96.2432 291.962 97.1846 292.786 98.6228 292.786C99.6426 292.786 100.414 292.354 100.846 291.583V292.655ZM97.4984 290.654C97.4984 289.844 98.1521 289.451 99.4727 289.451C99.8126 289.451 100.179 289.465 100.689 289.53V290.092C100.689 291.151 99.9957 291.844 98.8843 291.844C98.0345 291.844 97.4984 291.373 97.4984 290.654ZM105.594 292.655V286.85H107.529V285.725H105.594V285.228C105.594 284.562 105.96 284.274 106.587 284.274C106.823 284.274 107.058 284.3 107.267 284.392V283.319C107.006 283.215 106.692 283.149 106.3 283.149C104.992 283.149 104.273 283.882 104.273 285.215V285.725H102.743V286.85H104.273V292.655H105.594ZM110.867 292.655V286.85H112.802V285.725H110.867V285.228C110.867 284.562 111.233 284.274 111.861 284.274C112.096 284.274 112.331 284.3 112.541 284.392V283.319C112.279 283.215 111.965 283.149 111.573 283.149C110.266 283.149 109.546 283.882 109.546 285.215V285.725H108.017V286.85H109.546V292.655H110.867ZM122.595 291.4H118.084V288.445H122.111V287.19H118.084V284.522H122.504V283.267H116.646V292.655H122.595V291.4ZM127.655 289.648V288.458H123.589V289.648H127.655ZM134.392 290.589C134.392 289.595 133.739 288.994 132.366 288.745L131.189 288.523C130.352 288.366 129.999 288.105 129.999 287.543C129.999 286.941 130.562 286.588 131.398 286.588C132.327 286.588 132.941 287.072 133.02 287.909H134.288C134.17 286.484 133.046 285.594 131.385 285.594C129.777 285.594 128.718 286.444 128.718 287.66C128.718 288.706 129.437 289.36 130.719 289.608L131.843 289.818C132.706 289.988 133.059 290.236 133.059 290.811C133.059 291.465 132.444 291.792 131.516 291.792C130.457 291.792 129.764 291.256 129.712 290.393H128.444C128.574 291.883 129.659 292.786 131.49 292.786C133.333 292.786 134.392 291.949 134.392 290.589ZM141.408 292.655H142.728L144.742 285.725H143.434L142.035 290.785L140.493 285.725H139.185L137.616 290.772L136.217 285.725H134.923L136.923 292.655H138.257L139.839 287.503L141.408 292.655ZM149.799 292.655H150.897V288.209C150.897 286.562 149.904 285.594 148.191 285.594C146.57 285.594 145.458 286.627 145.393 288.183H146.596C146.635 287.216 147.223 286.64 148.191 286.64C149.106 286.64 149.642 287.203 149.642 288.196V288.706C149.08 288.641 148.753 288.628 148.348 288.628C146.282 288.628 145.197 289.334 145.197 290.694C145.197 291.962 146.138 292.786 147.576 292.786C148.596 292.786 149.367 292.354 149.799 291.583V292.655ZM146.452 290.654C146.452 289.844 147.106 289.451 148.426 289.451C148.766 289.451 149.132 289.465 149.642 289.53V290.092C149.642 291.151 148.949 291.844 147.838 291.844C146.988 291.844 146.452 291.373 146.452 290.654ZM159.279 289.19C159.279 287.098 158.063 285.594 156.219 285.594C155.239 285.594 154.389 286.104 153.892 286.993V285.725H152.663V295.178H153.983V291.478C154.48 292.315 155.278 292.786 156.219 292.786C158.076 292.786 159.279 291.282 159.279 289.19ZM157.906 289.19C157.906 290.746 157.082 291.609 155.945 291.609C154.833 291.609 153.983 290.72 153.983 289.19C153.983 287.634 154.846 286.758 155.945 286.758C157.082 286.758 157.906 287.634 157.906 289.19Z" fill="white"/>
<path d="M61.9595 81.6206V73.5274H65.0189V72.233H57.4618V73.5274H60.5213V81.6206H61.9595ZM69.9896 81.8167C72.7091 81.8167 74.7618 79.6856 74.7618 76.9137C74.7618 74.1419 72.7091 72.0369 69.9896 72.0369C67.27 72.0369 65.2173 74.1419 65.2173 76.9137C65.2173 79.6856 67.27 81.8167 69.9896 81.8167ZM69.9896 80.5223C68.0022 80.5223 66.7078 78.9272 66.7078 76.9137C66.7078 74.9002 68.0022 73.3313 69.9896 73.3313C71.9769 73.3313 73.2713 74.9002 73.2713 76.9137C73.2713 78.9272 71.9769 80.5223 69.9896 80.5223ZM77.6874 81.6206V77.2667L81.6229 81.6206H83.4272L79.1387 76.8353L83.3226 72.233H81.6621L77.6874 76.5738V72.233H76.2492V81.6206H77.6874ZM90.6507 80.3654H86.14V77.4106H90.167V76.1554H86.14V73.4882H90.5592V72.233H84.7018V81.6206H90.6507V80.3654ZM98.613 81.6206H100.064V72.233H98.7307V79.3718L93.9061 72.233H92.3372V81.6206H93.6708V74.2857L98.613 81.6206ZM107.792 81.6206C110.721 81.6206 112.512 79.594 112.512 76.8876C112.512 74.1419 110.787 72.233 107.792 72.233H104.824V81.6206H107.792ZM106.263 73.4751H107.727C109.897 73.4751 111.048 74.7695 111.048 76.8876C111.048 79.0449 109.884 80.3785 107.727 80.3785H106.263V73.4751ZM115.456 81.6206V72.233H114.018V81.6206H115.456ZM124.355 78.8749C124.355 77.4759 123.453 76.7699 121.844 76.443L120.459 76.1685C119.583 75.9854 118.811 75.6716 118.811 74.7825C118.811 73.9719 119.478 73.2528 120.694 73.2528C121.871 73.2528 122.681 74.0373 122.76 75.1617H124.224C124.106 73.292 122.629 72.1022 120.681 72.1022C118.733 72.1022 117.347 73.292 117.347 74.8741C117.347 76.4692 118.55 77.136 119.87 77.3975L121.23 77.659C122.315 77.8943 122.825 78.2866 122.825 79.071C122.825 80.0386 121.936 80.6008 120.746 80.6008C119.308 80.6008 118.55 79.8294 118.484 78.6396H117.02C117.138 80.5093 118.51 81.7514 120.772 81.7514C123.047 81.7514 124.355 80.5093 124.355 78.8749ZM129.414 81.6206V73.5274H132.474V72.233H124.916V73.5274H127.976V81.6206H129.414ZM135.183 81.6206V78.0904H136.909L139.249 81.6206H140.975L138.425 77.8812C139.85 77.5413 140.7 76.5084 140.7 75.1617C140.7 73.292 139.406 72.233 137.249 72.233H133.745V81.6206H135.183ZM135.183 73.4359H137.157C138.491 73.4359 139.249 74.0373 139.249 75.1617C139.249 76.2992 138.491 76.8876 137.157 76.8876H135.183V73.4359ZM143.801 81.6206V72.233H142.363V81.6206H143.801ZM152.478 78.9272C152.478 77.8551 151.85 77.0575 150.687 76.7307C151.589 76.3384 152.125 75.5801 152.125 74.691C152.125 73.109 150.988 72.233 149.092 72.233H145.836V81.6206H149.275C151.223 81.6206 152.478 80.64 152.478 78.9272ZM149 73.3836C150.138 73.3836 150.752 73.9196 150.752 74.7956C150.752 75.6716 150.138 76.2077 149 76.2077H147.157V73.3836H149ZM149.183 77.3583C150.412 77.3583 151.105 77.9335 151.105 78.888C151.105 79.8817 150.412 80.47 149.183 80.47H147.157V77.3583H149.183ZM161.174 72.233H159.736V78.2866C159.736 79.6463 158.938 80.5223 157.539 80.5223C156.154 80.5223 155.356 79.6463 155.356 78.2866V72.233H153.918V78.2473C153.918 80.4047 155.291 81.8167 157.539 81.8167C159.788 81.8167 161.174 80.4047 161.174 78.2473V72.233ZM166.902 81.6206V73.5274H169.961V72.233H162.404V73.5274H165.463V81.6206H166.902ZM172.67 81.6206V72.233H171.232V81.6206H172.67ZM178.928 81.8167C181.648 81.8167 183.7 79.6856 183.7 76.9137C183.7 74.1419 181.648 72.0369 178.928 72.0369C176.209 72.0369 174.156 74.1419 174.156 76.9137C174.156 79.6856 176.209 81.8167 178.928 81.8167ZM178.928 80.5223C176.941 80.5223 175.646 78.9272 175.646 76.9137C175.646 74.9002 176.941 73.3313 178.928 73.3313C180.916 73.3313 182.21 74.9002 182.21 76.9137C182.21 78.9272 180.916 80.5223 178.928 80.5223ZM191.464 81.6206H192.915V72.233H191.581V79.3718L186.757 72.233H185.188V81.6206H186.521V74.2857L191.464 81.6206Z" fill="white"/>
<path d="M86.219 203.654C88.3241 203.654 89.6838 202.542 89.6838 200.568C89.6838 198.607 88.3241 197.535 86.219 197.535H82.9634V206.922H84.4017V203.654H86.219ZM86.206 198.751C87.4742 198.751 88.2456 199.417 88.2456 200.581C88.2456 201.745 87.4742 202.438 86.206 202.438H84.4017V198.751H86.206ZM92.3383 203.379C92.3383 201.849 93.4235 201.196 94.914 201.274V199.901C93.7765 199.901 92.7305 200.503 92.2468 201.457V199.993H91.0178V206.922H92.3383V203.379ZM98.8361 207.053C100.797 207.053 102.236 205.51 102.236 203.458C102.236 201.405 100.797 199.862 98.8361 199.862C96.8749 199.862 95.4367 201.405 95.4367 203.458C95.4367 205.51 96.8749 207.053 98.8361 207.053ZM98.8361 205.889C97.6986 205.889 96.8095 204.974 96.8095 203.458C96.8095 201.941 97.6986 201.039 98.8361 201.039C99.9736 201.039 100.876 201.941 100.876 203.458C100.876 204.974 99.9736 205.889 98.8361 205.889ZM105.19 198.385C105.19 197.875 104.798 197.509 104.235 197.509C103.673 197.509 103.268 197.875 103.268 198.385C103.268 198.881 103.673 199.261 104.235 199.261C104.798 199.261 105.19 198.881 105.19 198.385ZM104.889 199.993H103.569V207.236C103.569 208.034 103.189 208.348 102.601 208.348C102.313 208.348 102.065 208.308 101.843 208.204V209.446C102.143 209.563 102.47 209.577 102.758 209.577C104.026 209.577 104.889 208.844 104.889 207.262V199.993ZM109.573 207.053C111.207 207.053 112.397 206.125 112.737 204.582H111.43C111.207 205.484 110.527 206.02 109.547 206.02C108.383 206.02 107.677 205.197 107.573 203.784H112.737C112.972 201.536 111.6 199.862 109.534 199.862C107.625 199.862 106.226 201.366 106.226 203.418C106.226 205.602 107.573 207.053 109.573 207.053ZM109.508 200.856C110.58 200.856 111.273 201.627 111.338 202.908H107.586C107.729 201.614 108.449 200.856 109.508 200.856ZM116.746 207.066C118.485 207.066 119.714 205.942 119.949 204.111H118.576C118.42 205.236 117.74 205.889 116.759 205.889C115.622 205.889 114.876 204.935 114.876 203.458C114.876 201.993 115.622 201.026 116.759 201.026C117.727 201.026 118.42 201.692 118.563 202.804H119.949C119.701 201 118.459 199.862 116.746 199.862C114.876 199.862 113.517 201.366 113.517 203.458C113.517 205.576 114.85 207.066 116.746 207.066ZM125.188 205.641C124.913 205.772 124.639 205.824 124.325 205.824C123.619 205.824 123.161 205.484 123.161 204.53V201.117H125.253V199.993H123.161V197.94H121.841V199.993H120.311V201.117H121.841V204.83C121.841 206.36 122.73 207.053 124.011 207.053C124.429 207.053 124.782 206.988 125.188 206.805V205.641ZM128.749 203.458C128.749 205.536 129.952 207.053 131.822 207.053C132.802 207.053 133.639 206.556 134.136 205.68V206.922H135.365V197.535H134.044V201.183C133.561 200.333 132.75 199.862 131.822 199.862C129.952 199.862 128.749 201.353 128.749 203.458ZM130.122 203.458C130.122 201.889 130.933 201.026 132.083 201.026C133.181 201.026 134.044 201.876 134.044 203.431C134.044 204.961 133.207 205.876 132.083 205.876C130.933 205.876 130.122 205 130.122 203.458ZM140.051 207.053C141.685 207.053 142.875 206.125 143.215 204.582H141.907C141.685 205.484 141.005 206.02 140.025 206.02C138.861 206.02 138.155 205.197 138.05 203.784H143.215C143.45 201.536 142.077 199.862 140.012 199.862C138.103 199.862 136.704 201.366 136.704 203.418C136.704 205.602 138.05 207.053 140.051 207.053ZM139.985 200.856C141.058 200.856 141.75 201.627 141.816 202.908H138.063C138.207 201.614 138.926 200.856 139.985 200.856ZM150.155 199.993H148.808L146.86 205.406L144.938 199.993H143.513L146.115 206.922H147.553L150.155 199.993ZM152.028 205.981C152.028 205.366 151.623 204.948 151.021 204.948C150.433 204.948 150.015 205.366 150.015 205.981C150.015 206.569 150.433 206.988 151.021 206.988C151.623 206.988 152.028 206.569 152.028 205.981Z" fill="white"/>
<path d="M84.4017 378.387V368.999H82.9634V378.387H84.4017ZM89.4044 378.387C92.3331 378.387 94.1243 376.36 94.1243 373.654C94.1243 370.908 92.3985 368.999 89.4044 368.999H86.4364V378.387H89.4044ZM87.8746 370.241H89.339C91.5094 370.241 92.66 371.536 92.66 373.654C92.66 375.811 91.4963 377.145 89.339 377.145H87.8746V370.241ZM99.8527 378.583C102.572 378.583 104.625 376.452 104.625 373.68C104.625 370.908 102.572 368.803 99.8527 368.803C97.1331 368.803 95.0804 370.908 95.0804 373.68C95.0804 376.452 97.1331 378.583 99.8527 378.583ZM99.8527 377.288C97.8653 377.288 96.5709 375.693 96.5709 373.68C96.5709 371.666 97.8653 370.097 99.8527 370.097C101.84 370.097 103.134 371.666 103.134 373.68C103.134 375.693 101.84 377.288 99.8527 377.288ZM105.103 380.91L110.882 368.999H109.574L103.782 380.91H105.103ZM113.028 378.387V368.999H111.59V378.387H113.028ZM116.501 378.387V374.569H120.136V373.314H116.501V370.254H120.763V368.999H115.063V378.387H116.501ZM126.398 378.583C129.117 378.583 131.17 376.452 131.17 373.68C131.17 370.908 129.117 368.803 126.398 368.803C123.678 368.803 121.626 370.908 121.626 373.68C121.626 376.452 123.678 378.583 126.398 378.583ZM126.398 377.288C124.41 377.288 123.116 375.693 123.116 373.68C123.116 371.666 124.41 370.097 126.398 370.097C128.385 370.097 129.68 371.666 129.68 373.68C129.68 375.693 128.385 377.288 126.398 377.288ZM131.648 380.91L137.427 368.999H136.12L130.328 380.91H131.648ZM139.573 378.387V368.999H138.135V378.387H139.573ZM145.7 378.583C148.054 378.583 149.937 377.014 150.29 374.687H148.76C148.498 376.203 147.269 377.288 145.713 377.288C143.857 377.288 142.549 375.785 142.549 373.68C142.549 371.601 143.857 370.097 145.713 370.097C147.269 370.097 148.498 371.169 148.76 372.686H150.29C149.937 370.372 148.054 368.803 145.7 368.803C143.085 368.803 141.059 370.921 141.059 373.68C141.059 376.452 143.085 378.583 145.7 378.583ZM156.007 378.583C158.727 378.583 160.78 376.452 160.78 373.68C160.78 370.908 158.727 368.803 156.007 368.803C153.288 368.803 151.235 370.908 151.235 373.68C151.235 376.452 153.288 378.583 156.007 378.583ZM156.007 377.288C154.02 377.288 152.726 375.693 152.726 373.68C152.726 371.666 154.02 370.097 156.007 370.097C157.995 370.097 159.289 371.666 159.289 373.68C159.289 375.693 157.995 377.288 156.007 377.288Z" fill="white"/>
<path d="M89.6054 161.362C89.6054 160.29 88.9778 159.493 87.8141 159.166C88.7163 158.773 89.2524 158.015 89.2524 157.126C89.2524 155.544 88.1149 154.668 86.219 154.668H82.9634V164.056H86.4021C88.3502 164.056 89.6054 163.075 89.6054 161.362ZM86.1275 155.819C87.265 155.819 87.8795 156.355 87.8795 157.231C87.8795 158.107 87.265 158.643 86.1275 158.643H84.284V155.819H86.1275ZM86.3106 159.793C87.5396 159.793 88.2325 160.369 88.2325 161.323C88.2325 162.317 87.5396 162.905 86.3106 162.905H84.284V159.793H86.3106ZM94.0608 164.186C96.022 164.186 97.4602 162.644 97.4602 160.591C97.4602 158.538 96.022 156.995 94.0608 156.995C92.0996 156.995 90.6614 158.538 90.6614 160.591C90.6614 162.644 92.0996 164.186 94.0608 164.186ZM94.0608 163.023C92.9233 163.023 92.0342 162.108 92.0342 160.591C92.0342 159.074 92.9233 158.172 94.0608 158.172C95.1983 158.172 96.1004 159.074 96.1004 160.591C96.1004 162.108 95.1983 163.023 94.0608 163.023ZM103.134 161.205C103.134 162.291 102.415 163.023 101.526 163.023C100.663 163.023 100.062 162.526 100.062 161.323V157.126H98.741V161.585C98.741 163.363 99.7085 164.186 101.108 164.186C102.049 164.186 102.86 163.676 103.226 162.957V164.056H104.455V157.126H103.134V161.205ZM107.609 160.146C107.609 158.917 108.367 158.159 109.27 158.159C110.25 158.159 110.773 158.826 110.773 160.016V164.056H112.094V159.571C112.094 157.911 111.152 156.995 109.727 156.995C108.773 156.995 107.988 157.505 107.518 158.277V157.126H106.289V164.056H107.609V160.146ZM117.731 162.774C117.457 162.905 117.182 162.957 116.868 162.957C116.162 162.957 115.705 162.617 115.705 161.663V158.251H117.797V157.126H115.705V155.073H114.384V157.126H112.854V158.251H114.384V161.964C114.384 163.493 115.273 164.186 116.554 164.186C116.973 164.186 117.326 164.121 117.731 163.938V162.774ZM124.81 157.126H123.476L121.606 162.408L119.593 157.126H118.168L120.9 163.964L119.907 166.579H121.345L124.81 157.126ZM135.096 160.591C135.096 158.499 133.88 156.995 132.036 156.995C131.055 156.995 130.206 157.505 129.709 158.394V157.126H128.48V166.579H129.8V162.879C130.297 163.716 131.095 164.186 132.036 164.186C133.893 164.186 135.096 162.683 135.096 160.591ZM133.723 160.591C133.723 162.147 132.899 163.01 131.762 163.01C130.65 163.01 129.8 162.121 129.8 160.591C129.8 159.035 130.663 158.159 131.762 158.159C132.899 158.159 133.723 159.035 133.723 160.591ZM137.755 160.512C137.755 158.983 138.84 158.329 140.331 158.407V157.035C139.193 157.035 138.147 157.636 137.663 158.59V157.126H136.434V164.056H137.755V160.512ZM144.253 164.186C146.214 164.186 147.652 162.644 147.652 160.591C147.652 158.538 146.214 156.995 144.253 156.995C142.292 156.995 140.853 158.538 140.853 160.591C140.853 162.644 142.292 164.186 144.253 164.186ZM144.253 163.023C143.115 163.023 142.226 162.108 142.226 160.591C142.226 159.074 143.115 158.172 144.253 158.172C145.39 158.172 146.292 159.074 146.292 160.591C146.292 162.108 145.39 163.023 144.253 163.023ZM151.642 166.723C153.604 166.723 154.767 165.638 154.767 163.82V157.126H153.538V158.355C153.068 157.479 152.283 156.995 151.289 156.995C149.551 156.995 148.374 158.381 148.374 160.447C148.374 162.487 149.603 163.912 151.329 163.912C152.27 163.912 153.055 163.428 153.447 162.591V163.846C153.447 165.036 152.819 165.677 151.629 165.677C150.557 165.677 149.93 165.154 149.851 164.186H148.57C148.648 165.755 149.825 166.723 151.642 166.723ZM149.707 160.447C149.707 159.022 150.427 158.133 151.564 158.133C152.702 158.133 153.447 159.048 153.447 160.486C153.447 161.859 152.688 162.761 151.564 162.761C150.413 162.761 149.707 161.885 149.707 160.447ZM157.916 160.512C157.916 158.983 159.001 158.329 160.492 158.407V157.035C159.354 157.035 158.308 157.636 157.824 158.59V157.126H156.595V164.056H157.916V160.512ZM165.734 164.056H166.832V159.61C166.832 157.963 165.838 156.995 164.126 156.995C162.504 156.995 161.393 158.028 161.328 159.584H162.53C162.57 158.617 163.158 158.041 164.126 158.041C165.041 158.041 165.577 158.604 165.577 159.597V160.107C165.015 160.042 164.688 160.029 164.282 160.029C162.217 160.029 161.131 160.735 161.131 162.094C161.131 163.363 162.073 164.186 163.511 164.186C164.531 164.186 165.302 163.755 165.734 162.984V164.056ZM162.387 162.055C162.387 161.245 163.04 160.852 164.361 160.852C164.701 160.852 165.067 160.865 165.577 160.931V161.493C165.577 162.552 164.884 163.245 163.773 163.245C162.923 163.245 162.387 162.774 162.387 162.055ZM169.918 164.056V160.081C169.918 158.917 170.637 158.159 171.552 158.159C172.52 158.159 173.03 158.839 173.03 159.989V164.056H174.35V160.081C174.35 158.917 175.083 158.159 175.985 158.159C176.952 158.159 177.462 158.839 177.462 159.989V164.056H178.783V159.571C178.783 157.924 177.868 156.995 176.442 156.995C175.383 156.995 174.586 157.544 174.102 158.434C173.788 157.518 173.017 156.995 171.997 156.995C171.043 156.995 170.297 157.479 169.827 158.277V157.126H168.598V164.056H169.918Z" fill="white"/>
<path d="M87.2519 335.521H88.481L91.462 328.329V335.521H92.7956V326.133H91.0174L87.8795 333.755L84.7285 326.133H82.9634V335.521H84.284V328.343L87.2519 335.521ZM98.9175 335.521H100.016V331.075C100.016 329.428 99.0221 328.46 97.3093 328.46C95.6881 328.46 94.5767 329.493 94.5113 331.049H95.7142C95.7534 330.081 96.3418 329.506 97.3093 329.506C98.2246 329.506 98.7606 330.068 98.7606 331.062V331.572C98.1984 331.507 97.8715 331.494 97.4662 331.494C95.4004 331.494 94.3152 332.2 94.3152 333.559C94.3152 334.828 95.2566 335.651 96.6948 335.651C97.7146 335.651 98.486 335.22 98.9175 334.448V335.521ZM95.5704 333.52C95.5704 332.709 96.2241 332.317 97.5447 332.317C97.8846 332.317 98.2507 332.33 98.7606 332.396V332.958C98.7606 334.017 98.0677 334.71 96.9563 334.71C96.1065 334.71 95.5704 334.239 95.5704 333.52ZM103.102 331.611C103.102 330.382 103.86 329.624 104.762 329.624C105.743 329.624 106.266 330.291 106.266 331.48V335.521H107.587V331.036C107.587 329.375 106.645 328.46 105.22 328.46C104.266 328.46 103.481 328.97 103.01 329.741V328.591H101.781V335.521H103.102V331.611ZM113.537 335.521H114.635V331.075C114.635 329.428 113.642 328.46 111.929 328.46C110.308 328.46 109.196 329.493 109.131 331.049H110.334C110.373 330.081 110.961 329.506 111.929 329.506C112.844 329.506 113.38 330.068 113.38 331.062V331.572C112.818 331.507 112.491 331.494 112.086 331.494C110.02 331.494 108.935 332.2 108.935 333.559C108.935 334.828 109.876 335.651 111.314 335.651C112.334 335.651 113.106 335.22 113.537 334.448V335.521ZM110.19 333.52C110.19 332.709 110.844 332.317 112.164 332.317C112.504 332.317 112.87 332.33 113.38 332.396V332.958C113.38 334.017 112.687 334.71 111.576 334.71C110.726 334.71 110.19 334.239 110.19 333.52ZM119.173 338.188C121.134 338.188 122.298 337.103 122.298 335.285V328.591H121.069V329.82C120.598 328.944 119.814 328.46 118.82 328.46C117.081 328.46 115.904 329.846 115.904 331.912C115.904 333.952 117.133 335.377 118.859 335.377C119.8 335.377 120.585 334.893 120.977 334.056V335.311C120.977 336.501 120.35 337.142 119.16 337.142C118.088 337.142 117.46 336.619 117.382 335.651H116.1C116.179 337.22 117.355 338.188 119.173 338.188ZM117.238 331.912C117.238 330.487 117.957 329.598 119.094 329.598C120.232 329.598 120.977 330.513 120.977 331.951C120.977 333.324 120.219 334.226 119.094 334.226C117.944 334.226 117.238 333.35 117.238 331.912ZM126.976 335.651C128.61 335.651 129.8 334.723 130.14 333.18H128.833C128.61 334.082 127.931 334.618 126.95 334.618C125.786 334.618 125.08 333.795 124.976 332.383H130.14C130.375 330.134 129.003 328.46 126.937 328.46C125.028 328.46 123.629 329.964 123.629 332.016C123.629 334.2 124.976 335.651 126.976 335.651ZM126.911 329.454C127.983 329.454 128.676 330.225 128.741 331.507H124.989C125.133 330.212 125.852 329.454 126.911 329.454ZM132.865 335.521V331.546C132.865 330.382 133.584 329.624 134.499 329.624C135.467 329.624 135.976 330.304 135.976 331.454V335.521H137.297V331.546C137.297 330.382 138.029 329.624 138.931 329.624C139.899 329.624 140.409 330.304 140.409 331.454V335.521H141.729V331.036C141.729 329.388 140.814 328.46 139.389 328.46C138.33 328.46 137.532 329.009 137.049 329.898C136.735 328.983 135.963 328.46 134.944 328.46C133.989 328.46 133.244 328.944 132.773 329.741V328.591H131.544V335.521H132.865ZM146.346 335.651C147.98 335.651 149.17 334.723 149.51 333.18H148.202C147.98 334.082 147.3 334.618 146.319 334.618C145.156 334.618 144.45 333.795 144.345 332.383H149.51C149.745 330.134 148.372 328.46 146.306 328.46C144.397 328.46 142.998 329.964 142.998 332.016C142.998 334.2 144.345 335.651 146.346 335.651ZM146.28 329.454C147.352 329.454 148.045 330.225 148.111 331.507H144.358C144.502 330.212 145.221 329.454 146.28 329.454ZM152.234 331.611C152.234 330.382 152.992 329.624 153.895 329.624C154.875 329.624 155.398 330.291 155.398 331.48V335.521H156.719V331.036C156.719 329.375 155.777 328.46 154.352 328.46C153.398 328.46 152.613 328.97 152.143 329.741V328.591H150.914V335.521H152.234V331.611ZM162.356 334.239C162.082 334.37 161.807 334.422 161.493 334.422C160.787 334.422 160.33 334.082 160.33 333.128V329.715H162.422V328.591H160.33V326.538H159.009V328.591H157.479V329.715H159.009V333.429C159.009 334.958 159.898 335.651 161.179 335.651C161.598 335.651 161.951 335.586 162.356 335.403V334.239Z" fill="white"/>
<path d="M89.4223 249.789H90.9521L87.3827 240.401H85.8006L82.2051 249.789H83.6564L84.5193 247.461H88.5725L89.4223 249.789ZM86.559 241.97L88.141 246.298H84.9508L86.559 241.97ZM91.2487 246.324C91.2487 248.403 92.4516 249.919 94.3213 249.919C95.3019 249.919 96.1386 249.422 96.6355 248.546V249.789H97.8645V240.401H96.5439V244.049C96.0602 243.199 95.2496 242.728 94.3213 242.728C92.4516 242.728 91.2487 244.219 91.2487 246.324ZM92.6215 246.324C92.6215 244.755 93.4322 243.892 94.5827 243.892C95.681 243.892 96.5439 244.742 96.5439 246.298C96.5439 247.827 95.7072 248.743 94.5827 248.743C93.4322 248.743 92.6215 247.867 92.6215 246.324ZM101.021 249.789V245.814C101.021 244.65 101.74 243.892 102.655 243.892C103.623 243.892 104.132 244.572 104.132 245.722V249.789H105.453V245.814C105.453 244.65 106.185 243.892 107.087 243.892C108.055 243.892 108.565 244.572 108.565 245.722V249.789H109.885V245.304C109.885 243.657 108.97 242.728 107.545 242.728C106.486 242.728 105.688 243.277 105.205 244.166C104.891 243.251 104.119 242.728 103.1 242.728C102.145 242.728 101.4 243.212 100.929 244.01V242.859H99.7002V249.789H101.021ZM113.259 241.251C113.259 240.741 112.867 240.375 112.305 240.375C111.743 240.375 111.337 240.741 111.337 241.251C111.337 241.748 111.743 242.127 112.305 242.127C112.867 242.127 113.259 241.748 113.259 241.251ZM112.972 249.789V242.859H111.651V249.789H112.972ZM116.126 245.879C116.126 244.65 116.884 243.892 117.786 243.892C118.767 243.892 119.29 244.559 119.29 245.748V249.789H120.61V245.304C120.61 243.643 119.669 242.728 118.244 242.728C117.289 242.728 116.505 243.238 116.034 244.01V242.859H114.805V249.789H116.126V245.879ZM124.155 248.847C124.155 248.233 123.75 247.814 123.148 247.814C122.56 247.814 122.142 248.233 122.142 248.847C122.142 249.436 122.56 249.854 123.148 249.854C123.75 249.854 124.155 249.436 124.155 248.847ZM131.434 244.755C130.82 244.049 130.506 243.643 130.506 243.055C130.506 242.375 131.016 241.878 131.696 241.878C132.336 241.878 132.899 242.31 132.964 243.081H134.206C134.18 241.735 133.16 240.819 131.696 240.819C130.245 240.819 129.159 241.761 129.159 243.042C129.159 243.67 129.355 244.153 129.761 244.703C128.728 245.199 128.048 246.049 128.048 247.108C128.048 248.821 129.251 249.919 131.134 249.919C131.997 249.919 132.82 249.592 133.526 248.952L134.272 249.789H135.919L134.311 247.984C134.729 247.278 134.991 246.363 135.017 245.487H133.801C133.775 246.088 133.683 246.651 133.526 247.108L131.434 244.755ZM129.316 247.03C129.316 246.311 129.774 245.762 130.441 245.487L132.846 248.193C132.415 248.599 131.84 248.834 131.238 248.834C129.931 248.834 129.316 247.958 129.316 247.03ZM141.037 249.789V240.401H139.703V249.789H141.037ZM145.72 249.919C147.354 249.919 148.544 248.991 148.884 247.448H147.576C147.354 248.35 146.674 248.886 145.694 248.886C144.53 248.886 143.824 248.063 143.719 246.651H148.884C149.119 244.402 147.746 242.728 145.681 242.728C143.772 242.728 142.373 244.232 142.373 246.285C142.373 248.468 143.719 249.919 145.72 249.919ZM145.654 243.722C146.727 243.722 147.42 244.493 147.485 245.775H143.733C143.876 244.48 144.595 243.722 145.654 243.722ZM152.932 252.456C154.893 252.456 156.057 251.371 156.057 249.553V242.859H154.828V244.088C154.357 243.212 153.573 242.728 152.579 242.728C150.84 242.728 149.663 244.114 149.663 246.18C149.663 248.22 150.892 249.645 152.618 249.645C153.56 249.645 154.344 249.161 154.736 248.324V249.579C154.736 250.769 154.109 251.41 152.919 251.41C151.847 251.41 151.219 250.887 151.141 249.919H149.86C149.938 251.488 151.115 252.456 152.932 252.456ZM150.997 246.18C150.997 244.755 151.716 243.866 152.854 243.866C153.991 243.866 154.736 244.781 154.736 246.219C154.736 247.592 153.978 248.494 152.854 248.494C151.703 248.494 150.997 247.618 150.997 246.18ZM162.082 249.789H163.18V245.343C163.18 243.696 162.187 242.728 160.474 242.728C158.853 242.728 157.741 243.761 157.676 245.317H158.879C158.918 244.35 159.506 243.774 160.474 243.774C161.389 243.774 161.925 244.336 161.925 245.33V245.84C161.363 245.775 161.036 245.762 160.631 245.762C158.565 245.762 157.48 246.468 157.48 247.827C157.48 249.096 158.421 249.919 159.859 249.919C160.879 249.919 161.651 249.488 162.082 248.716V249.789ZM158.735 247.788C158.735 246.978 159.389 246.585 160.709 246.585C161.049 246.585 161.415 246.598 161.925 246.664V247.226C161.925 248.285 161.232 248.978 160.121 248.978C159.271 248.978 158.735 248.507 158.735 247.788ZM166.279 249.789V240.401H164.946V249.789H166.279Z" fill="white"/>
<path d="M88.6509 421.253V419.959H84.4017V411.866H82.9634V421.253H88.6509ZM92.669 421.384C94.6302 421.384 96.0685 419.841 96.0685 417.789C96.0685 415.736 94.6302 414.193 92.669 414.193C90.7078 414.193 89.2696 415.736 89.2696 417.789C89.2696 419.841 90.7078 421.384 92.669 421.384ZM92.669 420.221C91.5315 420.221 90.6425 419.305 90.6425 417.789C90.6425 416.272 91.5315 415.37 92.669 415.37C93.8065 415.37 94.7087 416.272 94.7087 417.789C94.7087 419.305 93.8065 420.221 92.669 420.221ZM100.147 421.397C101.886 421.397 103.115 420.273 103.351 418.442H101.978C101.821 419.567 101.141 420.221 100.16 420.221C99.0228 420.221 98.2776 419.266 98.2776 417.789C98.2776 416.324 99.0228 415.357 100.16 415.357C101.128 415.357 101.821 416.024 101.965 417.135H103.351C103.102 415.331 101.86 414.193 100.147 414.193C98.2776 414.193 96.9178 415.697 96.9178 417.789C96.9178 419.907 98.2514 421.397 100.147 421.397ZM106 421.253V417.972L109.125 421.253H110.825L107.321 417.684L110.524 414.324H108.968L106 417.423V411.866H104.68V421.253H106ZM114.272 421.384C115.906 421.384 117.096 420.456 117.436 418.913H116.128C115.906 419.815 115.226 420.351 114.246 420.351C113.082 420.351 112.376 419.528 112.271 418.115H117.436C117.671 415.867 116.298 414.193 114.232 414.193C112.324 414.193 110.925 415.697 110.925 417.749C110.925 419.933 112.271 421.384 114.272 421.384ZM114.206 415.187C115.278 415.187 115.971 415.958 116.037 417.239H112.284C112.428 415.945 113.147 415.187 114.206 415.187ZM118.215 417.789C118.215 419.868 119.418 421.384 121.288 421.384C122.268 421.384 123.105 420.887 123.602 420.011V421.253H124.831V411.866H123.51V415.514C123.027 414.664 122.216 414.193 121.288 414.193C119.418 414.193 118.215 415.684 118.215 417.789ZM119.588 417.789C119.588 416.22 120.399 415.357 121.549 415.357C122.648 415.357 123.51 416.207 123.51 417.762C123.51 419.292 122.674 420.207 121.549 420.207C120.399 420.207 119.588 419.331 119.588 417.789ZM133.308 419.972C133.034 420.103 132.759 420.155 132.445 420.155C131.739 420.155 131.282 419.815 131.282 418.861V415.448H133.374V414.324H131.282V412.271H129.961V414.324H128.432V415.448H129.961V419.161C129.961 420.691 130.85 421.384 132.132 421.384C132.55 421.384 132.903 421.319 133.308 421.136V419.972ZM137.345 421.384C139.306 421.384 140.745 419.841 140.745 417.789C140.745 415.736 139.306 414.193 137.345 414.193C135.384 414.193 133.946 415.736 133.946 417.789C133.946 419.841 135.384 421.384 137.345 421.384ZM137.345 420.221C136.208 420.221 135.319 419.305 135.319 417.789C135.319 416.272 136.208 415.37 137.345 415.37C138.483 415.37 139.385 416.272 139.385 417.789C139.385 419.305 138.483 420.221 137.345 420.221ZM143.411 421.253V417.972L146.536 421.253H148.236L144.732 417.684L147.935 414.324H146.379L143.411 417.423V411.866H142.091V421.253H143.411ZM151.683 421.384C153.317 421.384 154.507 420.456 154.847 418.913H153.539C153.317 419.815 152.637 420.351 151.656 420.351C150.493 420.351 149.787 419.528 149.682 418.115H154.847C155.082 415.867 153.709 414.193 151.643 414.193C149.735 414.193 148.336 415.697 148.336 417.749C148.336 419.933 149.682 421.384 151.683 421.384ZM151.617 415.187C152.689 415.187 153.382 415.958 153.448 417.239H149.695C149.839 415.945 150.558 415.187 151.617 415.187ZM157.571 417.344C157.571 416.115 158.33 415.357 159.232 415.357C160.212 415.357 160.735 416.024 160.735 417.213V421.253H162.056V416.769C162.056 415.108 161.114 414.193 159.689 414.193C158.735 414.193 157.95 414.703 157.48 415.474V414.324H156.251V421.253H157.571V417.344Z" fill="white"/>
<path d="M73.7004 120.061C73.7004 116.507 72.5982 113.044 70.5516 110.168L57.2134 120.061H73.7004Z" fill="#7E32F1"/>
<path d="M73.7004 205.794C73.7004 202.24 72.5982 198.777 70.5516 195.901L57.2134 205.794H73.7004Z" fill="#FFF21A"/>
<path d="M73.7004 291.526C73.7004 287.972 72.5982 284.509 70.5516 281.634L57.2134 291.526H73.7004Z" fill="#B62A18"/>
<path d="M73.7004 334.392C73.7004 330.838 72.5982 327.375 70.5516 324.5L57.2134 334.392H73.7004Z" fill="#2CFAFC"/>
<path d="M73.7004 162.927C73.7004 159.373 72.5982 155.91 70.5516 153.035L57.2134 162.927H73.7004Z" fill="#01681C"/>
<path d="M73.7004 248.66C73.7004 245.106 72.5982 241.643 70.5516 238.768L57.2134 248.66H73.7004Z" fill="#3AF49A"/>
<path d="M73.7004 377.258C73.7004 373.704 72.5982 370.242 70.5516 367.366L57.2134 377.258H73.7004Z" fill="#0F4469"/>
<path d="M73.7004 420.125C73.7004 416.571 72.5982 413.108 70.5516 410.232L57.2134 420.125H73.7004Z" fill="#FF9F41"/>
</svg>
